<svg width="465" height="250" viewBox="0 0 465 250" fill="none" xmlns="http://www.w3.org/2000/svg">
<path d="M393.698 0.735607C399.439 1.77629 403.798 4.37623 408.288 7.92232C434.264 5.23103 457.916 46.0792 464.951 67.4124C465.335 68.5771 463.355 69.9584 462.491 67.7775C456.698 53.1602 449.356 38.2255 438.641 26.5577C437.135 24.6427 434.592 22.3186 432.812 20.6706C427.56 15.8082 418.084 10.1006 410.704 10.5093C410.75 10.5701 410.795 10.6314 410.839 10.6929C413.163 13.9323 415.461 18.2133 414.67 22.2072C413.256 29.3493 404.268 28.7439 400.937 23.3896C398.058 18.7608 398.202 13.4066 402.691 9.96718C403.281 9.51523 404.13 9.15479 404.788 8.71902C404.717 8.52821 404.617 8.36809 404.453 8.24436C395.365 1.37696 381.967 1.20511 371.989 5.67723C369.917 6.58954 367.924 7.67057 366.028 8.90945C365.484 9.27013 363.735 10.5779 363.267 10.4738C360.027 9.75286 363.274 7.53936 364.164 6.96285C372.787 1.37898 383.543 -1.44014 393.698 0.735607ZM407.223 24.886C414.189 25.5915 412.5 17.6951 410.087 14.1227C409.4 13.1055 408.275 11.442 407.237 10.7855C405.393 11.257 403.438 12.228 402.524 13.9631C400.272 18.2403 402.528 23.7388 407.223 24.886Z" fill="white"/>
<path d="M71.3021 249.161C65.5608 248.12 61.2019 245.52 56.7116 241.974C30.7356 244.666 7.0837 203.817 0.0488196 182.484C-0.335171 181.32 1.64527 179.938 2.50944 182.119C8.30246 196.736 15.6444 211.671 26.3593 223.339C27.865 225.254 30.4078 227.578 32.1878 229.226C37.4396 234.088 46.9165 239.796 54.2958 239.387C54.2504 239.327 54.2054 239.265 54.1609 239.204C51.8366 235.964 49.5393 231.683 50.3301 227.689C51.7445 220.547 60.7318 221.153 64.0627 226.507C66.9422 231.136 66.7977 236.49 62.3086 239.929C61.7189 240.381 60.8696 240.742 60.2119 241.178C60.2834 241.368 60.3834 241.529 60.547 241.652C69.6345 248.52 83.0332 248.692 93.0113 244.219C95.0829 243.307 97.0765 242.226 98.9721 240.987C99.5162 240.626 101.265 239.319 101.733 239.423C104.973 240.144 101.726 242.357 100.836 242.934C92.2133 248.518 81.4568 251.337 71.3021 249.161ZM57.7766 225.011C50.8107 224.305 52.4999 232.202 54.9128 235.774C55.5999 236.791 56.7254 238.455 57.763 239.111C59.6073 238.64 61.5623 237.669 62.4758 235.934C64.728 231.656 62.4721 226.158 57.7766 225.011Z" fill="white"/>
</svg>
