<svg width="228" height="73" viewBox="0 0 228 73" fill="none" xmlns="http://www.w3.org/2000/svg">
<g clip-path="url(#clip0_0_348)">
<path d="M55.5468 32.0449C55.5468 32.5694 55.5468 33.009 55.5258 33.3637C55.5176 33.662 55.4925 33.9596 55.4505 34.255L60.8185 34.1732C61.3786 34.1712 61.9361 34.0948 62.4764 33.9458C62.9506 33.8142 63.3855 33.5675 63.7431 33.2272C64.1174 32.8539 64.3971 32.3954 64.5586 31.8902C64.7727 31.2144 64.8744 30.5076 64.8594 29.7983H65.8193L65.6538 35.304H51.1658V34.3672C51.5313 34.3751 51.894 34.3016 52.228 34.1519C52.472 34.0335 52.6745 33.8432 52.8087 33.6062C52.943 33.3515 53.0249 33.072 53.0494 32.7846C53.0795 32.4814 53.0976 32.1146 53.0976 31.7265V18.69C53.0976 18.3019 53.0976 17.9381 53.1186 17.5925C53.1397 17.2468 53.1578 16.9315 53.1939 16.6466L51.1658 16.7709V15.5278H64.6548L64.7963 20.4787H63.8785C63.8968 19.8052 63.8002 19.1334 63.5927 18.4929C63.439 18.0316 63.1756 17.6153 62.8254 17.2802C62.5015 16.9836 62.108 16.7749 61.682 16.6738C61.2155 16.5649 60.7377 16.5119 60.2588 16.5162L57.6711 16.5586C57.258 16.5641 56.8495 16.6484 56.4676 16.8072C56.1931 16.9311 55.9683 17.1448 55.8297 17.4136C55.6799 17.7358 55.5979 18.0857 55.589 18.4414C55.5649 18.8456 55.5529 19.3428 55.5529 19.933V24.4806H60.8124L60.6018 22.0401H61.8475V28.0005H60.9448C60.9575 27.5563 60.9089 27.1124 60.8004 26.6817C60.7257 26.3904 60.569 26.1272 60.3491 25.9237C60.1256 25.7359 59.8548 25.6141 59.5668 25.5721C59.1886 25.5126 58.8061 25.4852 58.4234 25.4902H58.0262C57.8878 25.4902 57.0663 25.5225 55.5619 25.5872V32.0449H55.5468Z" fill="white"/>
<path d="M76.0671 15.4934C77.6379 15.4799 79.2031 15.6839 80.7189 16.0998C82.0328 16.452 83.2615 17.071 84.3296 17.9188C85.3466 18.7501 86.1513 19.8146 86.6765 21.0233C87.5665 23.2359 87.7536 25.6722 87.2121 27.9964C87.014 28.81 86.7105 29.5939 86.3094 30.3278C85.9001 31.0649 85.3941 31.743 84.805 32.3439C84.1899 32.9685 83.4886 33.5005 82.7228 33.9235C81.8838 34.386 80.9872 34.7337 80.0569 34.9573C79 35.2066 77.9167 35.3247 76.8313 35.309H69.4535V34.3722C69.8744 34.3823 70.2903 34.2776 70.657 34.069C70.9182 33.8987 71.1161 33.646 71.2197 33.3505C71.337 33.002 71.395 32.6361 71.3912 32.2681C71.3912 31.8497 71.3912 31.3919 71.3912 30.8947V18.704C71.3912 18.316 71.3912 17.9522 71.4123 17.6065C71.4333 17.2609 71.4514 16.9456 71.4875 16.6606L69.4595 16.7849V15.5207L76.0671 15.4934ZM73.8224 31.971C73.8224 32.4864 73.8224 32.923 73.8014 33.2807C73.7938 33.5851 73.7687 33.8888 73.7261 34.1903C74.1022 34.2084 74.4573 34.2236 74.7943 34.2327C75.1313 34.2418 75.4352 34.2327 75.697 34.2327H76.732C77.8698 34.2533 78.9983 34.0237 80.0388 33.5597C81.0041 33.1249 81.8659 32.4871 82.5663 31.6891C83.2822 30.8622 83.8329 29.9038 84.1882 28.8665C84.5803 27.7313 84.7748 26.5364 84.7628 25.3345C84.7804 24.1001 84.5974 22.8712 84.2212 21.6964C83.8861 20.6583 83.3224 19.71 82.5724 18.9223C81.7844 18.1244 80.8264 17.5179 79.771 17.1487C78.4803 16.713 77.124 16.5078 75.7632 16.5424C75.347 16.5131 74.9308 16.5991 74.5596 16.791C74.299 16.9524 74.1005 17.1983 73.9969 17.4883C73.8781 17.8322 73.8201 18.1944 73.8254 18.5585C73.8254 18.9739 73.8254 19.4317 73.8254 19.938V31.974L73.8224 31.971Z" fill="white"/>
<path d="M108.381 34.2904H107.613C107.198 34.3033 106.786 34.3592 106.383 34.4572C105.767 34.5979 105.163 34.7874 104.577 35.0241C104.263 35.1417 103.942 35.2428 103.617 35.3273C103.271 35.4183 102.916 35.4971 102.555 35.5608C102.194 35.6244 101.836 35.676 101.478 35.7123C101.146 35.7474 100.813 35.7656 100.479 35.7669C99.1651 35.7792 97.8603 35.5459 96.6307 35.0787C95.5014 34.648 94.4758 33.9804 93.6218 33.1202C92.7585 32.2306 92.091 31.1676 91.663 30.0005C91.1832 28.6701 90.9496 27.2623 90.9739 25.847C90.975 24.959 91.0647 24.0733 91.2417 23.2033C91.4142 22.3382 91.6848 21.4959 92.0481 20.693C92.4024 19.9011 92.8499 19.1549 93.3811 18.4707C93.9209 17.7834 94.5598 17.1815 95.2767 16.685C96.0291 16.1669 96.8548 15.7663 97.726 15.4966C98.6977 15.2021 99.7082 15.058 100.723 15.0691C101.236 15.0699 101.749 15.1063 102.257 15.1782C102.774 15.2498 103.287 15.351 103.792 15.4814C104.286 15.6137 104.771 15.7798 105.242 15.9786C105.687 16.1612 106.118 16.3781 106.53 16.6274L106.407 15.2753H107.953V21.739H106.939C106.888 20.9196 106.684 20.1173 106.337 19.3742C106.03 18.7094 105.59 18.1159 105.044 17.6309C104.497 17.154 103.865 16.7875 103.181 16.5516C102.448 16.3021 101.678 16.1791 100.903 16.1878C99.9281 16.1834 98.9658 16.4131 98.0961 16.8578C97.2118 17.3098 96.4324 17.9452 95.8093 18.7224C95.1385 19.5724 94.6221 20.5351 94.2838 21.5662C93.8926 22.738 93.7003 23.968 93.7151 25.2043C93.7033 26.4575 93.8881 27.7048 94.2627 28.9C94.5912 29.9595 95.1137 30.9477 95.8033 31.8135C96.4495 32.6163 97.2604 33.2689 98.1803 33.7265C99.1258 34.1929 100.167 34.4297 101.219 34.4178C101.614 34.4165 102.008 34.3891 102.399 34.3359C102.817 34.2803 103.231 34.1972 103.638 34.0873C104.06 33.9755 104.473 33.8306 104.872 33.6538C105.276 33.4757 105.663 33.2605 106.028 33.011V26.8172L104.057 26.9263V25.6803H110.397V26.5898C110.092 26.5795 109.791 26.6484 109.521 26.7899C109.294 26.9136 109.097 27.0878 108.946 27.2992C108.797 27.509 108.684 27.7427 108.612 27.9905C108.536 28.236 108.481 28.4875 108.447 28.7423C108.415 28.9735 108.397 29.2063 108.393 29.4396C108.393 29.6549 108.393 29.8277 108.393 29.9581V34.2904H108.381Z" fill="white"/>
<path d="M115.316 18.8905C115.316 18.3751 115.316 17.9325 115.337 17.5656C115.345 17.2612 115.37 16.9576 115.412 16.6561L113.384 16.7804V15.5253C114.415 15.5071 115.447 15.4929 116.48 15.4828C117.513 15.4727 118.596 15.4727 119.727 15.4828C120.707 15.4758 121.685 15.5775 122.643 15.786C123.414 15.9444 124.15 16.2434 124.815 16.6682C125.372 17.0244 125.831 17.5166 126.148 18.0992C126.472 18.7877 126.627 19.5448 126.599 20.3063C126.588 20.7813 126.485 21.2496 126.299 21.6858C126.095 22.165 125.802 22.6003 125.435 22.9682C125.012 23.3935 124.525 23.7476 123.991 24.0172C123.353 24.3408 122.67 24.5657 121.966 24.6842V24.7388C122.882 24.7232 123.796 24.851 124.674 25.1177C125.384 25.3347 126.045 25.6912 126.617 26.1667C127.128 26.5971 127.529 27.1438 127.788 27.7614C128.052 28.4 128.185 29.0858 128.179 29.7776C128.193 30.5811 128.022 31.377 127.68 32.1029C127.353 32.7792 126.88 33.3729 126.296 33.8401C125.667 34.3329 124.953 34.703 124.189 34.9316C123.335 35.1905 122.446 35.3183 121.553 35.3105H113.384V34.3737C113.804 34.396 114.221 34.2983 114.588 34.0918C114.852 33.9128 115.05 33.6505 115.15 33.3459C115.268 32.9808 115.326 32.5989 115.322 32.2151C115.322 31.7785 115.322 31.3056 115.322 30.7599V18.8905H115.316ZM117.672 34.1675C117.892 34.1857 118.15 34.2009 118.454 34.21C118.758 34.2191 119.056 34.21 119.357 34.21H120.651C121.319 34.2181 121.984 34.1251 122.625 33.9341C123.182 33.7687 123.701 33.4924 124.15 33.1216C124.578 32.7599 124.916 32.3019 125.137 31.7846C125.38 31.1941 125.499 30.5592 125.486 29.9201C125.511 29.182 125.375 28.4474 125.089 27.7675C124.85 27.232 124.485 26.7629 124.027 26.4002C123.569 26.0538 123.044 25.8089 122.486 25.6817C121.884 25.5426 121.268 25.4734 120.651 25.4755C120.094 25.4755 119.589 25.4755 119.131 25.4967C118.674 25.5179 118.229 25.5301 117.774 25.5574V31.9453C117.774 32.4607 117.774 32.8972 117.753 33.255C117.742 33.5604 117.715 33.865 117.672 34.1675ZM119.859 16.4894C119.49 16.4777 119.12 16.5238 118.764 16.6258C118.506 16.7041 118.281 16.8674 118.126 17.0897C117.959 17.3439 117.856 17.6352 117.825 17.9385C117.775 18.3692 117.752 18.8026 117.756 19.2361V24.4932L119.796 24.4386C120.489 24.4433 121.176 24.3072 121.815 24.0384C122.301 23.8313 122.734 23.517 123.083 23.1188C123.432 22.7205 123.687 22.2484 123.831 21.7373C123.974 21.2202 124.043 20.6853 124.036 20.1487C124.053 19.5073 123.911 18.8718 123.624 18.2993C123.393 17.8315 123.043 17.4338 122.61 17.1473C122.202 16.8917 121.751 16.7139 121.28 16.6228C120.812 16.5321 120.336 16.4875 119.859 16.4894Z" fill="white"/>
<path d="M133.715 32.243C133.643 32.4643 133.577 32.6614 133.522 32.8494C133.468 33.0373 133.411 33.1859 133.357 33.3345C133.303 33.483 133.249 33.6376 133.191 33.765C133.134 33.8923 133.077 34.0499 133.014 34.2076L135.204 34.0985V35.3112H129.96V34.4016C130.319 34.417 130.675 34.3286 130.986 34.147C131.263 33.9622 131.493 33.7139 131.657 33.4224C131.859 33.0669 132.027 32.6922 132.156 32.3037C132.307 31.8691 132.478 31.3901 132.671 30.8666L138.451 14.9984H139.116L145.375 31.1C145.456 31.2941 145.54 31.5245 145.627 31.7973C145.715 32.0702 145.796 32.3491 145.874 32.6341C145.951 32.911 146.01 33.1925 146.052 33.4769C146.089 33.7185 146.106 33.9631 146.1 34.2076L148.016 34.0985V35.3112H141.601V34.4016C142.006 34.4207 142.407 34.315 142.751 34.0985C142.982 33.9361 143.148 33.6949 143.217 33.4193C143.28 33.1369 143.28 32.8438 143.217 32.5614C143.157 32.2695 143.074 31.9827 142.97 31.7034L141.983 29.0475L134.684 29.2143C134.482 29.7964 134.305 30.3269 134.148 30.812C133.992 31.2971 133.853 31.7731 133.715 32.243ZM137.112 22.314C136.683 23.5267 136.306 24.5959 135.981 25.5216L135.111 27.9986H141.604L139.603 22.5899L138.343 19.1125H138.289L137.112 22.314Z" fill="white"/>
<path d="M151.772 35.5316H150.319L150.153 29.5166H151.236C151.271 30.2783 151.453 31.0259 151.772 31.7176C152.053 32.3223 152.456 32.8605 152.958 33.2972C153.457 33.728 154.037 34.0537 154.664 34.2552C155.336 34.4747 156.039 34.5842 156.746 34.5796C157.272 34.5828 157.795 34.5062 158.298 34.3522C158.766 34.2116 159.204 33.9821 159.586 33.6762C159.956 33.3763 160.255 32.9972 160.462 32.5665C160.682 32.0926 160.793 31.5741 160.784 31.0506C160.802 30.4266 160.645 29.81 160.332 29.271C160.017 28.7594 159.608 28.312 159.129 27.9522C158.6 27.5498 158.031 27.2034 157.432 26.9184C156.797 26.6152 156.15 26.312 155.494 26.0088C154.838 25.7057 154.191 25.3752 153.556 25.0296C152.944 24.6964 152.374 24.2892 151.859 23.8169C151.362 23.3663 150.954 22.8253 150.656 22.2222C150.339 21.545 150.185 20.8026 150.204 20.0545C150.207 19.7071 150.243 19.3609 150.313 19.0206C150.39 18.6395 150.512 18.2691 150.677 17.9171C150.856 17.534 151.081 17.1746 151.348 16.8469C151.644 16.4862 151.999 16.1787 152.398 15.9373C152.866 15.6548 153.373 15.4433 153.902 15.3098C154.556 15.1451 155.229 15.0666 155.903 15.0763C156.292 15.0766 156.681 15.0999 157.068 15.146C157.491 15.1946 157.91 15.2726 158.322 15.3795C158.752 15.4919 159.172 15.64 159.577 15.8221C160.003 16.014 160.406 16.2519 160.781 16.5316L160.669 15.3189H162.093V21.5127H161.082C161.038 20.8364 160.907 20.1688 160.69 19.5269C160.487 18.9058 160.17 18.3288 159.755 17.8261C159.341 17.3283 158.829 16.9235 158.25 16.6377C157.582 16.3237 156.851 16.1702 156.114 16.189C155.586 16.1793 155.061 16.2709 154.567 16.4588C154.146 16.6222 153.762 16.8709 153.439 17.1894C153.14 17.49 152.907 17.8505 152.756 18.2475C152.601 18.6508 152.523 19.0795 152.524 19.5118C152.509 20.1052 152.67 20.6897 152.985 21.1914C153.304 21.6847 153.712 22.1134 154.188 22.4556C154.726 22.8456 155.299 23.1836 155.9 23.4652C156.538 23.7684 157.191 24.0715 157.859 24.3747C158.527 24.6779 159.183 25.0114 159.827 25.3752C160.443 25.7098 161.018 26.1169 161.539 26.5879C162.035 27.05 162.443 27.5997 162.743 28.2099C163.064 28.8901 163.221 29.6368 163.203 30.3897C163.21 31.1325 163.061 31.8684 162.764 32.5483C162.473 33.2042 162.037 33.7847 161.491 34.2461C160.882 34.7478 160.182 35.1247 159.43 35.3557C158.527 35.6351 157.587 35.7701 156.643 35.7559C156.211 35.7551 155.778 35.7247 155.35 35.665C154.906 35.6052 154.466 35.515 154.035 35.3952C153.603 35.2777 153.182 35.1256 152.774 34.9404C152.381 34.7622 152.003 34.5502 151.646 34.3068L151.772 35.5316Z" fill="white"/>
<path d="M181.509 21.4969C181.5 20.7644 181.435 20.0337 181.317 19.311C181.235 18.7607 181.039 18.2339 180.742 17.7648C180.468 17.3594 180.082 17.0433 179.632 16.8553C179.064 16.6343 178.458 16.5312 177.85 16.5521L175.479 16.5673L175.437 31.9656C175.448 32.7123 175.421 33.4591 175.356 34.203L177.685 34.0939V35.3066H171.101V34.397C171.515 34.4085 171.923 34.3035 172.281 34.0939C172.542 33.9138 172.739 33.6547 172.844 33.3541C172.961 33.0047 173.017 32.6375 173.009 32.2687V30.9287L173.048 16.5824L170.145 16.5976C169.627 16.5831 169.113 16.6867 168.64 16.9007C168.23 17.103 167.886 17.4184 167.647 17.8103C167.368 18.2752 167.18 18.7898 167.094 19.3262C166.971 20.0439 166.913 20.7716 166.922 21.4999H165.896L166.062 15.5243H182.415L182.581 21.4999H181.518L181.509 21.4969Z" fill="white"/>
<path d="M185.351 25.4166C185.353 24.6012 185.44 23.7883 185.61 22.9912C185.785 22.1703 186.052 21.3719 186.404 20.6112C186.764 19.8397 187.214 19.1149 187.746 18.4526C188.291 17.777 188.927 17.182 189.636 16.6851C190.389 16.1639 191.215 15.7611 192.088 15.4906C193.07 15.1937 194.091 15.0505 195.115 15.0661C196.171 15.0524 197.222 15.2017 198.232 15.5088C199.123 15.7812 199.97 16.1836 200.745 16.7033C201.471 17.1913 202.119 17.7872 202.668 18.4708C203.205 19.1356 203.661 19.8635 204.025 20.6385C204.383 21.3983 204.653 22.1968 204.831 23.0185C205.188 24.597 205.188 26.2362 204.831 27.8147C204.653 28.6327 204.386 29.4287 204.037 30.1886C203.681 30.9619 203.234 31.6888 202.704 32.3532C202.16 33.0338 201.522 33.6312 200.808 34.1268C200.055 34.6513 199.228 35.06 198.356 35.3395C197.382 35.6434 196.367 35.7927 195.347 35.7822C194.262 35.7961 193.181 35.6521 192.136 35.3547C191.237 35.0957 190.381 34.7023 189.597 34.1874C188.874 33.7106 188.23 33.1235 187.686 32.4472C187.16 31.7907 186.718 31.0694 186.371 30.3007C186.028 29.5342 185.772 28.7306 185.61 27.9056C185.442 27.0867 185.355 26.2529 185.351 25.4166ZM188.104 24.8981C188.106 25.627 188.171 26.3543 188.297 27.0719C188.426 27.8224 188.62 28.56 188.878 29.276C189.138 29.9909 189.468 30.6775 189.865 31.3255C190.248 31.9592 190.724 32.5314 191.276 33.0233C191.821 33.5061 192.441 33.8953 193.111 34.1753C193.836 34.4687 194.611 34.614 195.392 34.6028C196.784 34.6234 198.14 34.1574 199.228 33.284C199.745 32.8707 200.197 32.3823 200.57 31.8348C200.956 31.2749 201.278 30.6728 201.53 30.04C201.792 29.3783 201.986 28.6917 202.111 27.9905C202.238 27.3168 202.305 26.6329 202.31 25.9471C202.303 25.1872 202.229 24.4293 202.09 23.6824C201.952 22.8868 201.736 22.1069 201.446 21.354C201.169 20.6426 200.821 19.9619 200.405 19.3227C200.013 18.7109 199.538 18.1578 198.994 17.6795C198.456 17.2155 197.846 16.8447 197.188 16.582C196.501 16.3105 195.769 16.1747 195.031 16.1818C193.971 16.1584 192.925 16.4256 192.004 16.9549C191.147 17.4616 190.409 18.1494 189.841 18.9711C189.255 19.8233 188.818 20.7695 188.547 21.7694C188.256 22.7866 188.107 23.8396 188.104 24.8981Z" fill="white"/>
<path d="M225.416 35.7639H224.058L211.884 19.2741H211.845L211.942 31.4012C211.942 31.8893 211.942 32.3653 211.942 32.8322C211.942 33.2991 211.92 33.7417 211.893 34.2056L213.918 34.0964V35.3091H208.776V34.3996C209.128 34.4177 209.479 34.3391 209.79 34.1722C210.02 34.0369 210.211 33.8436 210.344 33.6113C210.468 33.3898 210.547 33.1455 210.576 32.8928C210.605 32.6544 210.621 32.4145 210.624 32.1743L210.651 16.6547L208.773 16.779V15.5208H212.116L224.058 31.6255H224.086L224.113 18.6829C224.113 17.8906 224.14 17.2095 224.194 16.6395L222.181 16.7638V15.5208H227.344V16.4304C226.929 16.4201 226.519 16.525 226.159 16.7335C225.903 16.9085 225.71 17.1629 225.611 17.4581C225.499 17.8053 225.448 18.1695 225.461 18.5344C225.461 18.9497 225.461 19.4075 225.461 19.9138L225.416 35.7639Z" fill="white"/>
<path d="M63.8932 43.1549C62.7176 43.1473 61.5562 43.4129 60.4991 43.931C59.432 44.4587 58.4899 45.2114 57.7369 46.1382C56.9097 47.1686 56.2792 48.3445 55.8774 49.6065C55.4071 51.0751 55.1774 52.6111 55.1974 54.1541C55.1883 55.1815 55.2943 56.2067 55.5133 57.2101C55.7162 58.1238 56.0252 59.0101 56.4341 59.8508C56.8142 60.6345 57.2936 61.3651 57.8603 62.0246C58.3972 62.6505 59.0168 63.1993 59.7018 63.6557C60.3747 64.1008 61.1072 64.4469 61.8772 64.6834C62.6573 64.9235 63.4686 65.0451 64.2843 65.0442C65.0296 65.0448 65.7725 64.9604 66.4989 64.7926C67.9809 64.4547 69.3644 63.7738 70.5399 62.8037C71.1401 62.311 71.676 61.7436 72.1346 61.1151L73.0132 61.8336C72.3535 62.7743 71.562 63.6138 70.6632 64.3257C69.8866 64.9317 69.0399 65.4407 68.1418 65.8416C67.3465 66.1994 66.5109 66.458 65.6534 66.6116C64.9053 66.7453 64.1474 66.8153 63.3877 66.8208C61.7794 66.8401 60.1852 66.5178 58.7088 65.8749C57.3311 65.272 56.0893 64.3931 55.059 63.2919C54.0266 62.1751 53.2202 60.8662 52.6849 59.4385C52.1192 57.9161 51.8387 56.3011 51.8575 54.6756C51.8579 53.6021 51.9668 52.5314 52.1825 51.4801C52.3926 50.4401 52.7207 49.4279 53.1604 48.4635C53.5943 47.5129 54.1431 46.6198 54.7942 45.8047C55.4494 44.9873 56.221 44.2721 57.084 43.6824C57.992 43.0631 58.9884 42.5867 60.0387 42.2696C62.3978 41.5844 64.9011 41.5844 67.2602 42.2696C68.4138 42.6325 69.5093 43.1615 70.5128 43.8401L70.3473 41.9998H72.1888V49.9339H70.9611C70.86 48.944 70.6052 47.9761 70.2059 47.0659C69.8516 46.2704 69.3502 45.5502 68.7285 44.9436C68.1154 44.3582 67.3892 43.9061 66.5952 43.6157C65.729 43.301 64.8139 43.1449 63.8932 43.1549Z" fill="white"/>
<path d="M79.0163 54.2884C79.0189 53.3047 79.1248 52.3241 79.3322 51.3628C79.5435 50.367 79.8665 49.3987 80.2951 48.4766C80.7293 47.5405 81.276 46.6618 81.9229 45.8602C83.2811 44.1607 85.1145 42.9112 87.1855 42.2736C88.3742 41.9099 89.6112 41.732 90.8534 41.7461C92.1318 41.7308 93.4052 41.9118 94.6296 42.2827C95.7085 42.6142 96.7341 43.1013 97.6746 43.7288C98.5517 44.3211 99.3357 45.0426 100 45.8693C100.651 46.6747 101.202 47.5562 101.643 48.4948C102.078 49.416 102.406 50.3844 102.621 51.381C103.055 53.2937 103.055 55.2802 102.621 57.1929C102.405 58.1844 102.083 59.1492 101.658 60.07C101.227 61.0085 100.684 61.8902 100.04 62.6955C99.3806 63.5203 98.6063 64.2444 97.7408 64.845C96.8269 65.474 95.8263 65.9644 94.771 66.3003C93.5867 66.6706 92.3521 66.8516 91.1121 66.8369C89.7973 66.8537 88.4869 66.6791 87.2216 66.3185C86.1318 66.0036 85.0945 65.5275 84.1435 64.9057C83.2683 64.3286 82.4877 63.6177 81.8296 62.7986C81.1895 62.004 80.6535 61.1298 80.2349 60.1973C79.8185 59.269 79.5095 58.2955 79.3142 57.2959C79.1163 56.3059 79.0165 55.2984 79.0163 54.2884ZM82.3532 53.6639C82.3566 54.5471 82.4341 55.4284 82.5849 56.2985C82.7383 57.2076 82.974 58.1006 83.2889 58.9664C83.606 59.8339 84.0093 60.6668 84.4925 61.4525C84.9572 62.2207 85.5332 62.9146 86.2016 63.511C86.8611 64.0974 87.6125 64.5697 88.4252 64.9087C89.3026 65.2644 90.2416 65.4407 91.1874 65.4271C92.0582 65.437 92.9239 65.2923 93.7449 64.9996C94.4997 64.7248 95.2057 64.3297 95.8361 63.8294C96.4611 63.3266 97.0096 62.7341 97.464 62.071C97.9308 61.3915 98.3204 60.6613 98.6254 59.8942C98.943 59.0916 99.1789 58.2587 99.3295 57.4081C99.4833 56.5914 99.5638 55.7624 99.5702 54.9312C99.5602 54.0106 99.4716 53.0927 99.3054 52.1874C99.1395 51.2238 98.8784 50.2793 98.5261 49.3679C98.1903 48.5071 97.7678 47.6832 97.2654 46.9091C96.7853 46.1668 96.2039 45.4963 95.5383 44.9173C94.8885 44.3561 94.1515 43.9064 93.3568 43.5863C92.5243 43.2568 91.6365 43.0921 90.742 43.1013C89.4537 43.0705 88.1814 43.3944 87.0621 44.0381C86.0232 44.6517 85.129 45.4855 84.4414 46.4817C83.7314 47.5135 83.2012 48.6597 82.8737 49.8712C82.5286 51.1054 82.3535 52.3816 82.3532 53.6639Z" fill="white"/>
<path d="M115.027 62.3321C115.027 62.9566 115.027 63.4872 115.003 63.9207C114.991 64.2848 114.961 64.6481 114.913 65.0091L121.268 64.9091C121.911 64.91 122.549 64.7939 123.151 64.5665C123.688 64.3568 124.161 64.0074 124.52 63.5539C124.916 63.0303 125.199 62.4294 125.351 61.7894C125.553 60.9378 125.648 60.0638 125.633 59.1882H126.78L126.581 66.2794H109.731V65.1425C110.235 65.1567 110.734 65.0353 111.176 64.7908C111.492 64.5856 111.732 64.2792 111.856 63.9207C111.997 63.4979 112.067 63.0542 112.063 62.608C112.063 62.0986 112.063 61.5438 112.063 60.9436V46.1334C112.063 45.6635 112.063 45.2239 112.09 44.8025C112.117 44.3811 112.135 44.0021 112.181 43.6565L109.725 43.808V42.2922H117.374V43.4139C116.869 43.3993 116.369 43.524 115.93 43.7747C115.614 43.9849 115.375 44.2937 115.25 44.6539C115.109 45.0748 115.039 45.5164 115.042 45.9606C115.042 46.4639 115.042 47.0217 115.042 47.6341V62.3321H115.027Z" fill="white"/>
<path d="M138.078 62.3321C138.078 62.9566 138.078 63.4872 138.054 63.9207C138.042 64.2848 138.012 64.6481 137.964 65.0091L144.319 64.9091C144.962 64.91 145.6 64.7939 146.202 64.5665C146.739 64.3568 147.212 64.0074 147.571 63.5539C147.967 63.0303 148.25 62.4294 148.402 61.7894C148.605 60.9378 148.7 60.0638 148.685 59.1882H149.831L149.648 66.2794H132.767V65.1425C133.271 65.1567 133.77 65.0353 134.212 64.7908C134.529 64.5856 134.768 64.2792 134.892 63.9207C135.033 63.4979 135.103 63.0542 135.099 62.608C135.099 62.0986 135.099 61.5438 135.099 60.9436V46.1334C135.099 45.6635 135.099 45.2239 135.126 44.8025C135.154 44.3811 135.172 44.0021 135.217 43.6565L132.761 43.808V42.2922H140.41V43.4139C139.905 43.3993 139.406 43.524 138.966 43.7747C138.65 43.9849 138.411 44.2937 138.286 44.6539C138.145 45.0748 138.075 45.5164 138.078 45.9606C138.078 46.4639 138.078 47.0217 138.078 47.6341V62.3321Z" fill="white"/>
<path d="M161.126 62.3356C161.126 62.9723 161.126 63.5028 161.102 63.9333C161.09 64.2944 161.06 64.6546 161.012 65.0126L167.517 64.9126C168.195 64.9098 168.87 64.8171 169.524 64.6367C170.098 64.4773 170.625 64.1786 171.058 63.7666C171.512 63.3142 171.851 62.7576 172.045 62.1446C172.299 61.3247 172.417 60.4685 172.394 59.61H173.556L173.357 66.2799H155.815V65.143C156.257 65.1532 156.696 65.0652 157.1 64.8853C157.396 64.7427 157.642 64.512 157.804 64.2244C157.971 63.9159 158.073 63.5766 158.105 63.2269C158.145 62.8017 158.164 62.3747 158.162 61.9475V46.1369C158.162 45.667 158.162 45.2274 158.189 44.806C158.216 44.3846 158.234 44.0056 158.279 43.66L155.824 43.8116V42.2957H172.172L172.337 48.2986H171.227C171.251 47.4825 171.136 46.6682 170.887 45.8913C170.703 45.3311 170.383 44.8258 169.957 44.4209C169.565 44.0638 169.088 43.8134 168.573 43.6933C168.007 43.5621 167.427 43.498 166.846 43.5023L163.708 43.5539C163.203 43.5607 162.705 43.6636 162.239 43.857C161.905 44.0091 161.633 44.271 161.466 44.5998C161.28 44.9894 161.178 45.4139 161.165 45.8459C161.139 46.3451 161.125 46.9514 161.123 47.6649V53.1827H167.496L167.246 50.2237H168.751V57.4302H167.64C167.656 56.892 167.597 56.3543 167.466 55.8325C167.374 55.4824 167.184 55.1664 166.918 54.923C166.648 54.6955 166.321 54.5476 165.973 54.4955C165.516 54.423 165.052 54.3895 164.589 54.3954H164.108C163.941 54.3954 162.945 54.4348 161.12 54.5137V62.3477L161.126 62.3356Z" fill="white"/>
<path d="M201.187 65.0415H200.258C199.751 65.057 199.247 65.1241 198.753 65.2416C198.012 65.412 197.286 65.6411 196.581 65.9267C196.226 66.0601 195.841 66.1844 195.419 66.2966C194.998 66.4088 194.571 66.5028 194.135 66.5816C193.698 66.6604 193.262 66.7211 192.832 66.7665C192.432 66.8096 192.03 66.8318 191.628 66.8332C190.034 66.8487 188.45 66.566 186.958 65.9995C185.589 65.4774 184.345 64.6683 183.308 63.6256C182.262 62.5477 181.453 61.2595 180.934 59.845C180.35 58.2305 180.063 56.5217 180.089 54.8032C180.089 53.7277 180.198 52.655 180.414 51.6017C180.624 50.5569 180.952 49.5397 181.392 48.5699C181.826 47.6092 182.375 46.7051 183.026 45.8777C183.681 45.0452 184.456 44.3156 185.324 43.713C186.236 43.0846 187.238 42.6 188.294 42.276C189.465 41.9165 190.684 41.7376 191.908 41.7454C192.53 41.7469 193.151 41.7915 193.767 41.8788C194.394 41.9673 195.015 42.0928 195.627 42.2548C196.226 42.417 196.813 42.6196 197.384 42.8611C197.924 43.083 198.446 43.3455 198.946 43.6463L198.795 42.0061H200.67V49.8493H199.442C199.384 48.8568 199.142 47.8841 198.729 46.9813C198.358 46.1724 197.824 45.4498 197.162 44.859C196.5 44.2803 195.734 43.8365 194.905 43.5523C194.016 43.245 193.082 43.0923 192.143 43.1006C190.961 43.0944 189.795 43.373 188.743 43.9131C187.672 44.4621 186.728 45.2316 185.971 46.1718C185.151 47.1997 184.519 48.3671 184.106 49.6189C183.633 51.0339 183.4 52.519 183.417 54.0119C183.401 55.5307 183.625 57.0423 184.082 58.4898C184.48 59.7737 185.113 60.9715 185.947 62.0218C186.731 62.9942 187.713 63.7852 188.827 64.3411C189.974 64.9058 191.236 65.1923 192.513 65.1779C192.99 65.1763 193.466 65.1429 193.939 65.0778C194.446 65.0088 194.949 64.9076 195.443 64.7747C195.958 64.6388 196.461 64.4624 196.948 64.2471C197.438 64.0307 197.907 63.77 198.35 63.468V55.9947L195.961 56.1281V54.6122H203.646V55.734C203.277 55.7224 202.911 55.8058 202.584 55.9765C202.309 56.1222 202.071 56.3297 201.889 56.5828C201.709 56.8379 201.572 57.1205 201.482 57.4196C201.391 57.7166 201.324 58.0209 201.284 58.3291C201.247 58.6087 201.225 58.89 201.218 59.172C201.218 59.4357 201.218 59.6419 201.218 59.7995V65.0263L201.187 65.0415Z" fill="white"/>
<path d="M214.941 62.3356C214.941 62.9723 214.941 63.5028 214.917 63.9333C214.905 64.2944 214.875 64.6546 214.827 65.0126L221.332 64.9126C222.01 64.9098 222.685 64.8171 223.339 64.6367C223.913 64.4773 224.44 64.1786 224.874 63.7666C225.328 63.3142 225.666 62.7576 225.861 62.1446C226.114 61.3247 226.232 60.4685 226.21 59.61H227.371L227.172 66.2799H209.63V65.143C210.072 65.1532 210.511 65.0652 210.915 64.8853C211.211 64.7427 211.457 64.512 211.619 64.2244C211.786 63.9159 211.888 63.5766 211.92 63.2269C211.961 62.8017 211.98 62.3747 211.977 61.9475V46.1369C211.977 45.667 211.977 45.2274 212.005 44.806C212.032 44.3846 212.05 44.0056 212.095 43.66L209.64 43.8116V42.2957H225.987L226.152 48.2986H225.042C225.066 47.4825 224.951 46.6682 224.702 45.8913C224.518 45.3311 224.199 44.8258 223.772 44.4209C223.38 44.0638 222.904 43.8134 222.388 43.6933C221.822 43.5621 221.242 43.498 220.661 43.5023L217.523 43.5539C217.019 43.5607 216.521 43.6636 216.055 43.857C215.721 44.0091 215.448 44.271 215.281 44.5998C215.097 44.9899 214.995 45.4141 214.98 45.8459C214.952 46.3451 214.938 46.9514 214.938 47.6649V53.1827H221.311L221.061 50.2237H222.566V57.4302H221.456C221.471 56.892 221.413 56.3543 221.281 55.8325C221.19 55.4824 220.999 55.1664 220.733 54.923C220.464 54.6955 220.137 54.5476 219.789 54.4955C219.331 54.423 218.868 54.3895 218.405 54.3954H217.923C217.759 54.3954 216.763 54.4348 214.935 54.5137V62.3477L214.941 62.3356Z" fill="white"/>
<path d="M41.4786 10.0329H1.67956V13.5164H41.4786V10.0329Z" fill="white"/>
<path d="M41.6978 13.726H1.45954V9.81204H41.7008V13.726H41.6978ZM1.89884 13.2955H41.2585V10.2638H1.89884V13.2955Z" fill="white"/>
<path d="M40.0725 19.1608H3.08388V13.2974H40.0725V19.1608ZM3.52619 18.7151H39.6332V13.7279H3.52619V18.7151Z" fill="white"/>
<path d="M41.6104 10.2566H1.60977L0 8.43753H43.1539L41.6104 10.2566ZM1.80836 9.81092H41.4058L42.1941 8.87107H0.977899L1.80836 9.81092Z" fill="white"/>
<path d="M40.0729 8.00498H3.08125V7.78063C3.10532 5.98583 3.1324 4.22135 3.15647 2.45686V2.26586L3.34603 2.24161C12.9084 0.992523 19.2873 0.198203 20.2201 0.0829957C20.6715 0.029496 21.1256 0.00216513 21.5801 0.00113824C22.0527 0.00100267 22.5248 0.0283339 22.9943 0.0829957L40.0729 2.10215V8.00498ZM3.52958 7.56235H39.6366V2.5084L22.9431 0.531696C22.0556 0.426482 21.1588 0.426482 20.2712 0.531696C19.3475 0.637808 13.0498 1.44122 3.59878 2.65393C3.57471 4.28198 3.55064 5.91004 3.52958 7.56235Z" fill="white"/>
<path d="M12.3312 18.9813H2.6184V20.1727H12.3312V18.9813Z" fill="white"/>
<path d="M12.55 20.3975H2.39487V18.7604H12.55V20.3975ZM2.83417 19.9518H12.1107V19.203H2.83417V19.9518Z" fill="white"/>
<path d="M10.3838 23.9149H4.45924L3.05407 19.907H11.9003L10.3838 23.9149ZM4.77217 23.4723H10.0829L11.2594 20.3526H3.67692L4.77217 23.4723Z" fill="white"/>
<path d="M32.7257 23.9129L31.3025 19.914H40.1457L38.7315 23.9038H34.9854H32.7287L32.7257 23.9129ZM31.9283 20.3596L33.0356 23.4702H34.9824H38.4186L39.5168 20.3687L31.9283 20.3596Z" fill="white"/>
<path d="M40.5787 18.9813H30.8659V20.1727H40.5787V18.9813Z" fill="white"/>
<path d="M40.7984 20.3975H30.6433V18.7604H40.7984V20.3975ZM31.0856 19.9549H40.3591V19.203H31.0856V19.9518V19.9549Z" fill="white"/>
<path d="M10.5009 65.9964H4.44699V23.473H10.5009V65.9964ZM4.88629 65.5689H10.0556V23.9156H4.88629V65.5689Z" fill="white"/>
<path d="M38.7485 65.9964H32.6945V23.473H38.7485V65.9964ZM33.1368 65.5689H38.3092V23.9156H33.1368V65.5689Z" fill="white"/>
<path d="M4.39288 68.2663L3.9596 68.1875C4.04084 67.8024 4.12208 67.378 4.20332 66.9748C4.28456 66.5715 4.3658 66.141 4.44704 65.7621L4.48315 65.5953H10.4649L10.498 65.7651C10.5762 66.1532 10.6575 66.5685 10.7417 66.9778C10.826 67.3871 10.9072 67.8085 10.9854 68.1905L10.5521 68.2663C10.4739 67.8782 10.3927 67.4629 10.3084 67.0536C10.2362 66.6989 10.164 66.3411 10.0978 66.0046H4.84723C4.77803 66.3442 4.70581 66.7049 4.63962 67.0536C4.55537 67.4538 4.47413 67.8782 4.39288 68.2663Z" fill="white"/>
<path d="M32.6378 68.251L32.2045 68.1631L32.7311 65.5497H38.7098L38.7429 65.7286C38.8211 66.1318 38.9054 66.5442 38.9866 66.9413C39.0679 67.3385 39.1551 67.7538 39.2333 68.154L38.8001 68.2359C38.7218 67.8327 38.6376 67.4203 38.5563 67.0232C38.4871 66.6806 38.4119 66.3289 38.3457 65.9802H33.0921L32.6378 68.251Z" fill="white"/>
<path d="M10.9884 72.7015H3.9596V68.169H10.9884V72.7015ZM4.3989 72.2558H10.5461V68.5995H4.3989V72.2558Z" fill="white"/>
<path d="M39.2429 72.7015H32.208V68.169H39.2429V72.7015ZM32.6533 72.2558H38.8006V68.5995H32.6473V72.2376L32.6533 72.2558Z" fill="white"/>
<path d="M10.9883 68.9474C10.9626 69.1067 10.9128 69.2611 10.8409 69.4052H32.4269V68.9626L10.9883 68.9474Z" fill="white"/>
<path d="M10.3298 66.6472C10.5068 66.7626 10.6542 66.9184 10.7601 67.102H32.7042V66.6594L10.3298 66.6472Z" fill="white"/>
<path d="M19.4526 39.1093H13.4768V32.1969H19.4526V39.1093ZM13.9161 38.6667H19.0102V32.6425H13.9161V38.6667Z" fill="white"/>
<path d="M29.7228 39.1093H23.7471V32.1969H29.7228V39.1093ZM24.1984 38.6667H29.2925V32.6425H24.1984V38.6667Z" fill="white"/>
<path d="M19.4526 64.1704H13.4768V41.7869H19.4526V64.1704ZM13.9161 63.7277H19.0102V42.2265H13.9161V63.7277Z" fill="white"/>
<path d="M29.7228 64.1704H23.7471V41.7869H29.7228V64.1704ZM24.1984 63.7277H29.2925V42.2265H24.1984V63.7277Z" fill="white"/>
<path d="M21.5709 49.6961C21.346 49.6961 21.1261 49.6289 20.939 49.503C20.752 49.3771 20.6062 49.1981 20.5201 48.9887C20.434 48.7793 20.4115 48.5489 20.4554 48.3266C20.4993 48.1043 20.6076 47.9001 20.7667 47.7398C20.9257 47.5795 21.1284 47.4704 21.349 47.4261C21.5696 47.3819 21.7983 47.4046 22.0062 47.4914C22.214 47.5781 22.3916 47.725 22.5166 47.9134C22.6416 48.1019 22.7083 48.3235 22.7083 48.5501C22.7083 48.8541 22.5884 49.1456 22.3751 49.3605C22.1619 49.5754 21.8726 49.6961 21.5709 49.6961ZM21.5709 47.8468C21.4328 47.8468 21.2979 47.888 21.1831 47.9653C21.0683 48.0426 20.9788 48.1524 20.926 48.281C20.8731 48.4095 20.8593 48.5509 20.8862 48.6874C20.9132 48.8238 20.9797 48.9491 21.0773 49.0475C21.1749 49.1459 21.2993 49.2128 21.4347 49.24C21.5701 49.2671 21.7105 49.2532 21.838 49.2C21.9656 49.1467 22.0746 49.0566 22.1513 48.9409C22.228 48.8252 22.269 48.6892 22.269 48.5501C22.269 48.3636 22.1954 48.1847 22.0645 48.0528C21.9336 47.9209 21.756 47.8468 21.5709 47.8468Z" fill="white"/>
<path d="M43.1419 8.42688H42.6996V8.01759H0.442311V8.42688H0V7.57496H43.1419V8.42688Z" fill="white"/>
<path d="M42.9196 7.79586H0.220026V8.42647H42.9196V7.79586Z" fill="white"/>
<path d="M42.9639 8.47183H0.177073V7.75028H42.9639V8.47183ZM0.264332 8.38391H42.8767V7.84123H0.264332V8.38391Z" fill="white"/>
<path d="M32.9329 18.9392H11.5816V19.8518H32.9329V18.9392Z" fill="white"/>
<path d="M32.9755 19.8922H11.5369V18.8796H32.9755V19.8922ZM11.6272 19.8043H32.8882V18.9796H11.6272V19.8043Z" fill="white"/>
<path d="M32.4272 69.1683H10.769V72.479H32.4272V69.1683Z" fill="white"/>
<path d="M32.6469 72.7043H10.5464V68.9509H32.6469V72.7043ZM10.9827 72.2586H32.2016V69.3936H10.9887L10.9827 72.2586Z" fill="white"/>
<path d="M25.5792 27.039H17.5153V29.8737H25.5792V27.039Z" fill="white"/>
<path d="M16.9859 27.039H13.2638V29.8737H16.9859V27.039Z" fill="white"/>
<path d="M30.0473 23.1363H26.1086V26.5046H30.0473V23.1363Z" fill="white"/>
<path d="M25.5792 23.1363H17.5153V26.5046H25.5792V23.1363Z" fill="white"/>
<path d="M16.9859 23.1363H13.2638V26.5046H16.9859V23.1363Z" fill="white"/>
<path d="M30.0473 27.039H26.1086V29.8737H30.0473V27.039Z" fill="white"/>
<path d="M32.208 68.1842V68.1655L32.2484 68.1748L32.2111 68.1842" fill="white"/>
</g>
<defs>
<clipPath id="clip0_0_348">
<rect width="228" height="72.7087" fill="white"/>
</clipPath>
</defs>
</svg>
