<svg width="1320" height="414" viewBox="0 0 1320 414" fill="none" xmlns="http://www.w3.org/2000/svg">
<g clip-path="url(#clip0_0_133)">
<path d="M313.323 178.454C313.323 181.525 313.323 184.099 313.2 186.176C313.152 187.923 313.005 189.665 312.759 191.395L344.209 190.916C347.49 190.905 350.756 190.457 353.922 189.585C356.7 188.814 359.248 187.369 361.344 185.377C363.537 183.191 365.175 180.506 366.121 177.548C367.376 173.591 367.971 169.452 367.884 165.299H373.507L372.538 197.538H287.656V192.052C289.797 192.099 291.922 191.668 293.879 190.792C295.309 190.098 296.495 188.984 297.281 187.596C298.068 186.105 298.548 184.468 298.692 182.785C298.868 181.01 298.974 178.862 298.974 176.59V100.254C298.974 97.9818 298.974 95.8515 299.097 93.8277C299.221 91.8039 299.326 89.9577 299.538 88.2889L287.656 89.0168V81.7383H366.685L367.514 110.728H362.137C362.244 106.784 361.678 102.851 360.462 99.1002C359.562 96.3991 358.018 93.9612 355.967 91.9992C354.069 90.2624 351.764 89.0405 349.268 88.4487C346.534 87.8106 343.736 87.5007 340.93 87.5256L325.769 87.7741C323.348 87.806 320.956 88.3 318.718 89.2298C317.11 89.955 315.793 91.2062 314.981 92.7803C314.103 94.6668 313.623 96.7158 313.57 98.7984C313.429 101.165 313.359 104.077 313.359 107.533V134.161H344.173L342.939 119.871H350.238V154.772H344.949C345.023 152.171 344.738 149.572 344.103 147.05C343.665 145.344 342.747 143.803 341.459 142.611C340.149 141.511 338.563 140.799 336.875 140.552C334.659 140.204 332.419 140.044 330.176 140.073H327.849C327.038 140.073 322.226 140.262 313.412 140.641V178.454H313.323Z" fill="white"/>
<path d="M433.554 81.5388C442.757 81.4598 451.927 82.6545 460.807 85.0893C468.506 87.1521 475.704 90.7767 481.962 95.7408C487.92 100.609 492.635 106.842 495.712 113.919C500.926 126.875 502.022 141.141 498.85 154.75C497.689 159.514 495.911 164.104 493.561 168.402C491.163 172.718 488.198 176.689 484.747 180.207C481.143 183.864 477.034 186.979 472.548 189.456C467.632 192.165 462.38 194.2 456.929 195.51C450.737 196.97 444.39 197.661 438.031 197.569H394.806V192.083C397.273 192.143 399.709 191.529 401.858 190.308C403.388 189.311 404.547 187.832 405.154 186.101C405.841 184.06 406.181 181.918 406.159 179.763C406.159 177.313 406.159 174.633 406.159 171.721V100.339C406.159 98.0664 406.159 95.9361 406.282 93.9123C406.406 91.8885 406.512 90.0423 406.723 88.3735L394.841 89.1014V81.6986L433.554 81.5388ZM420.403 178.024C420.403 181.041 420.403 183.598 420.279 185.693C420.235 187.475 420.088 189.253 419.839 191.018C422.042 191.125 424.122 191.214 426.097 191.267C428.071 191.32 429.852 191.267 431.385 191.267H437.45C444.115 191.388 450.727 190.043 456.823 187.326C462.479 184.78 467.528 181.046 471.631 176.373C475.826 171.531 479.052 165.919 481.133 159.845C483.431 153.198 484.57 146.201 484.5 139.163C484.603 131.936 483.531 124.74 481.327 117.86C479.364 111.782 476.061 106.229 471.667 101.617C467.05 96.9447 461.437 93.3931 455.254 91.2317C447.692 88.6804 439.746 87.4789 431.773 87.6812C429.335 87.5096 426.896 88.013 424.722 89.1369C423.195 90.0818 422.032 91.5217 421.425 93.22C420.729 95.2337 420.389 97.3546 420.42 99.4866C420.42 101.919 420.42 104.599 420.42 107.564V178.041L420.403 178.024Z" fill="white"/>
<path d="M622.863 191.589H618.367C615.937 191.665 613.521 191.992 611.157 192.566C607.55 193.389 604.013 194.499 600.58 195.885C598.737 196.574 596.86 197.166 594.957 197.661C592.929 198.193 590.849 198.655 588.734 199.028C586.618 199.4 584.52 199.702 582.423 199.915C580.478 200.121 578.525 200.227 576.57 200.235C568.872 200.307 561.227 198.94 554.023 196.205C547.407 193.683 541.398 189.774 536.395 184.737C531.337 179.528 527.426 173.303 524.918 166.47C522.107 158.679 520.739 150.436 520.882 142.149C520.888 136.949 521.413 131.763 522.45 126.669C523.461 121.603 525.046 116.671 527.175 111.97C529.25 107.332 531.872 102.963 534.984 98.9569C538.147 94.9323 541.89 91.4077 546.09 88.5007C550.498 85.467 555.336 83.1209 560.44 81.5418C566.133 79.8174 572.053 78.9734 577.998 79.0387C581.006 79.0432 584.01 79.2567 586.988 79.6778C590.016 80.0968 593.018 80.6895 595.979 81.453C598.874 82.2277 601.713 83.2004 604.476 84.3644C607.084 85.4335 609.607 86.7036 612.021 88.1634L611.298 80.2458H620.359V118.094H614.418C614.119 113.296 612.923 108.598 610.893 104.247C609.092 100.355 606.511 96.8793 603.313 94.0395C600.112 91.2466 596.407 89.1008 592.4 87.7196C588.103 86.2583 583.591 85.5381 579.056 85.5893C573.342 85.5633 567.704 86.9082 562.608 89.5126C557.427 92.1591 552.861 95.8799 549.211 100.43C545.281 105.408 542.255 111.045 540.273 117.082C537.981 123.944 536.855 131.146 536.941 138.385C536.872 145.724 537.955 153.027 540.149 160.025C542.074 166.23 545.136 172.016 549.175 177.086C552.962 181.786 557.712 185.608 563.102 188.287C568.641 191.018 574.739 192.405 580.907 192.335C583.218 192.327 585.526 192.167 587.817 191.856C590.267 191.53 592.693 191.043 595.08 190.4C597.551 189.745 599.968 188.897 602.308 187.861C604.674 186.819 606.94 185.559 609.077 184.098V147.829L597.53 148.469V141.172H634.674V146.498C632.892 146.438 631.125 146.841 629.544 147.67C628.212 148.394 627.06 149.414 626.177 150.652C625.303 151.881 624.641 153.249 624.22 154.7C623.775 156.137 623.451 157.61 623.25 159.102C623.064 160.456 622.959 161.819 622.933 163.185C622.933 164.446 622.933 165.458 622.933 166.221V191.589H622.863Z" fill="white"/>
<path d="M663.499 101.423C663.499 98.4055 663.499 95.8137 663.622 93.6656C663.666 91.8833 663.813 90.105 664.063 88.3399L652.181 89.0677V81.7182C658.222 81.6117 664.268 81.5288 670.321 81.4697C676.373 81.4105 682.714 81.4105 689.342 81.4697C695.083 81.4288 700.812 82.0242 706.424 83.2449C710.943 84.1723 715.257 85.923 719.152 88.4109C722.415 90.4962 725.101 93.3786 726.961 96.7901C728.862 100.821 729.769 105.254 729.605 109.714C729.536 112.495 728.938 115.237 727.843 117.791C726.648 120.597 724.931 123.146 722.783 125.301C720.307 127.79 717.45 129.864 714.322 131.443C710.584 133.338 706.585 134.654 702.458 135.348V135.668C707.828 135.577 713.181 136.325 718.323 137.887C722.485 139.157 726.355 141.245 729.711 144.029C732.701 146.55 735.051 149.751 736.569 153.367C738.117 157.106 738.896 161.122 738.86 165.173C738.941 169.878 737.94 174.538 735.934 178.789C734.022 182.749 731.251 186.225 727.825 188.961C724.143 191.846 719.958 194.014 715.485 195.352C710.477 196.868 705.271 197.616 700.042 197.571H652.181V192.085C654.639 192.216 657.084 191.644 659.232 190.434C660.781 189.386 661.941 187.85 662.529 186.067C663.216 183.929 663.555 181.693 663.534 179.446C663.534 176.889 663.534 174.12 663.534 170.924V101.423H663.499ZM677.302 190.878C678.589 190.985 680.105 191.073 681.885 191.127C683.666 191.18 685.411 191.127 687.174 191.127H694.754C698.667 191.174 702.565 190.63 706.318 189.511C709.583 188.543 712.622 186.925 715.256 184.754C717.765 182.635 719.745 179.954 721.038 176.925C722.463 173.467 723.159 169.75 723.083 166.007C723.226 161.685 722.432 157.384 720.756 153.403C719.354 150.267 717.219 147.52 714.533 145.396C711.853 143.368 708.777 141.934 705.507 141.189C701.98 140.375 698.372 139.97 694.754 139.982C691.493 139.982 688.531 139.982 685.851 140.106C683.172 140.23 680.563 140.301 677.901 140.461V177.866C677.901 180.884 677.901 183.44 677.778 185.535C677.713 187.323 677.554 189.107 677.302 190.878ZM690.118 87.3635C687.951 87.2954 685.786 87.5649 683.701 88.1624C682.188 88.6206 680.872 89.5771 679.964 90.8785C678.986 92.3675 678.381 94.0731 678.201 95.8492C677.906 98.3707 677.771 100.908 677.795 103.447V134.23L689.747 133.91C693.807 133.938 697.83 133.141 701.576 131.567C704.42 130.354 706.958 128.514 709.002 126.182C711.047 123.85 712.545 121.086 713.387 118.093C714.223 115.065 714.626 111.933 714.586 108.791C714.686 105.035 713.856 101.314 712.171 97.9617C710.82 95.2221 708.77 92.8938 706.23 91.2158C703.842 89.7192 701.201 88.6781 698.438 88.1446C695.696 87.614 692.91 87.3524 690.118 87.3635Z" fill="white"/>
<path d="M771.301 179.606C770.878 180.902 770.49 182.056 770.172 183.157C769.855 184.258 769.52 185.127 769.203 185.997C768.886 186.867 768.568 187.773 768.233 188.518C767.898 189.264 767.563 190.187 767.193 191.11L780.027 190.471V197.572H749.3V192.246C751.404 192.336 753.49 191.819 755.312 190.755C756.936 189.673 758.283 188.219 759.243 186.512C760.429 184.43 761.409 182.236 762.169 179.961C763.051 177.417 764.055 174.612 765.184 171.547L799.048 78.6304H802.944L839.611 172.914C840.087 174.05 840.581 175.399 841.092 176.997C841.603 178.595 842.079 180.228 842.538 181.896C842.988 183.518 843.336 185.166 843.578 186.832C843.8 188.246 843.894 189.678 843.86 191.11L855.089 190.471V197.572H817.505V192.246C819.877 192.358 822.226 191.739 824.239 190.471C825.596 189.52 826.566 188.108 826.972 186.494C827.342 184.841 827.342 183.124 826.972 181.47C826.616 179.761 826.133 178.082 825.526 176.446L819.744 160.895L776.977 161.872C775.796 165.28 774.756 168.387 773.839 171.227C772.922 174.068 772.112 176.855 771.301 179.606ZM791.203 121.467C788.688 128.568 786.479 134.829 784.575 140.249L779.48 154.753H817.523L805.8 123.083L798.413 102.72H798.096L791.203 121.467Z" fill="white"/>
<path d="M877.088 198.868H868.573L867.604 163.648H873.95C874.156 168.108 875.221 172.486 877.088 176.536C878.731 180.077 881.098 183.228 884.034 185.785C886.96 188.308 890.359 190.215 894.029 191.395C897.968 192.68 902.087 193.321 906.228 193.294C909.309 193.313 912.376 192.864 915.324 191.963C918.067 191.139 920.628 189.796 922.869 188.004C925.037 186.248 926.789 184.029 927.999 181.507C929.292 178.731 929.937 175.695 929.885 172.63C929.99 168.976 929.074 165.365 927.241 162.21C925.392 159.214 923 156.594 920.19 154.487C917.091 152.131 913.759 150.103 910.247 148.434C906.528 146.658 902.737 144.883 898.894 143.108C895.051 141.333 891.261 139.398 887.542 137.374C883.953 135.423 880.614 133.039 877.599 130.273C874.687 127.635 872.294 124.467 870.548 120.935C868.694 116.97 867.789 112.623 867.904 108.242C867.919 106.208 868.131 104.181 868.538 102.189C868.993 99.9571 869.709 97.7879 870.671 95.7266C871.722 93.4836 873.042 91.3789 874.602 89.46C876.34 87.3481 878.42 85.5475 880.755 84.1343C883.498 82.48 886.468 81.2418 889.569 80.4595C893.402 79.4953 897.342 79.0358 901.292 79.0926C903.572 79.0943 905.85 79.2306 908.114 79.5009C910.593 79.7852 913.049 80.2419 915.465 80.8678C917.982 81.5261 920.441 82.393 922.816 83.4597C925.309 84.5831 927.674 85.976 929.868 87.6138L929.216 80.5128H937.554V116.781H931.631C931.375 112.821 930.605 108.911 929.339 105.153C928.149 101.516 926.289 98.1373 923.856 95.1941C921.434 92.2793 918.431 89.9086 915.042 88.2351C911.128 86.3969 906.844 85.4976 902.526 85.6077C899.433 85.5512 896.358 86.0874 893.465 87.1877C890.994 88.1445 888.745 89.6005 886.854 91.466C885.103 93.2257 883.74 95.3366 882.853 97.6617C881.947 100.023 881.487 102.533 881.495 105.064C881.409 108.539 882.347 111.962 884.192 114.899C886.064 117.788 888.456 120.299 891.244 122.302C894.396 124.585 897.754 126.565 901.274 128.214C905.012 129.989 908.837 131.764 912.75 133.539C916.664 135.315 920.507 137.267 924.28 139.398C927.89 141.357 931.257 143.741 934.31 146.499C937.217 149.205 939.607 152.423 941.362 155.996C943.242 159.979 944.166 164.352 944.059 168.76C944.102 173.11 943.225 177.419 941.485 181.4C939.78 185.24 937.23 188.64 934.028 191.341C930.462 194.279 926.36 196.486 921.953 197.839C916.666 199.475 911.158 200.265 905.629 200.182C903.093 200.177 900.56 199.999 898.048 199.65C895.448 199.299 892.874 198.771 890.345 198.07C887.816 197.382 885.346 196.491 882.958 195.407C880.653 194.363 878.441 193.122 876.348 191.696L877.088 198.868Z" fill="white"/>
<path d="M1051.31 116.689C1051.25 112.4 1050.87 108.121 1050.18 103.889C1049.7 100.667 1048.55 97.5822 1046.81 94.8354C1045.2 92.4613 1042.94 90.6106 1040.31 89.5096C1036.98 88.2157 1033.43 87.6119 1029.87 87.7344L1015.98 87.8232L1015.73 177.988C1015.8 182.36 1015.64 186.733 1015.26 191.089L1028.9 190.45V197.551H990.331V192.225C992.753 192.293 995.146 191.678 997.241 190.45C998.769 189.396 999.924 187.879 1000.54 186.119C1001.22 184.073 1001.55 181.922 1001.51 179.763V171.917L1001.74 87.9119L984.725 88.0007C981.691 87.9159 978.678 88.5228 975.91 89.7759C973.509 90.96 971.492 92.807 970.093 95.1017C968.458 97.8241 967.356 100.837 966.849 103.978C966.129 108.181 965.792 112.442 965.844 116.706H959.833L960.803 81.7163H1056.61L1057.58 116.706H1051.36L1051.31 116.689Z" fill="white"/>
<path d="M1073.82 139.644C1073.84 134.87 1074.35 130.11 1075.34 125.442C1076.37 120.635 1077.93 115.961 1079.99 111.506C1082.1 106.989 1084.74 102.745 1087.86 98.8666C1091.05 94.9107 1094.77 91.4266 1098.93 88.5169C1103.34 85.4651 1108.18 83.1066 1113.3 81.5224C1119.05 79.7837 1125.03 78.9454 1131.03 79.037C1137.21 78.9568 1143.37 79.8309 1149.29 81.6289C1154.51 83.2238 1159.47 85.5803 1164.01 88.6234C1168.26 91.4808 1172.06 94.9703 1175.28 98.9731C1178.43 102.866 1181.1 107.128 1183.23 111.666C1185.32 116.115 1186.91 120.79 1187.95 125.602C1190.04 134.845 1190.04 144.443 1187.95 153.686C1186.91 158.476 1185.35 163.137 1183.3 167.586C1181.22 172.115 1178.59 176.371 1175.49 180.262C1172.31 184.246 1168.56 187.745 1164.38 190.647C1159.97 193.718 1155.13 196.111 1150.02 197.748C1144.31 199.527 1138.36 200.401 1132.39 200.34C1126.03 200.421 1119.69 199.578 1113.58 197.837C1108.31 196.32 1103.29 194.016 1098.7 191.002C1094.47 188.209 1090.69 184.772 1087.5 180.812C1084.42 176.968 1081.83 172.744 1079.8 168.243C1077.79 163.755 1076.29 159.049 1075.34 154.219C1074.36 149.423 1073.85 144.541 1073.82 139.644ZM1089.96 136.608C1089.97 140.876 1090.34 145.135 1091.08 149.337C1091.84 153.731 1092.98 158.05 1094.49 162.243C1096.01 166.429 1097.94 170.449 1100.27 174.244C1102.52 177.954 1105.3 181.305 1108.54 184.185C1111.73 187.012 1115.36 189.291 1119.29 190.931C1123.53 192.649 1128.08 193.5 1132.65 193.434C1140.8 193.555 1148.75 190.826 1155.13 185.712C1158.15 183.292 1160.8 180.432 1162.99 177.226C1165.25 173.947 1167.14 170.422 1168.61 166.716C1170.15 162.842 1171.29 158.821 1172.02 154.716C1172.76 150.771 1173.15 146.766 1173.18 142.751C1173.14 138.301 1172.71 133.863 1171.89 129.49C1171.08 124.831 1169.82 120.264 1168.12 115.856C1166.5 111.69 1164.46 107.704 1162.02 103.962C1159.73 100.379 1156.94 97.14 1153.75 94.3397C1150.6 91.6229 1147.03 89.4512 1143.18 87.9133C1139.15 86.3234 1134.86 85.5279 1130.54 85.57C1124.33 85.4327 1118.2 86.9974 1112.8 90.0968C1107.78 93.0636 1103.46 97.0912 1100.13 101.902C1096.7 106.893 1094.13 112.433 1092.55 118.288C1090.84 124.244 1089.97 130.41 1089.96 136.608Z" fill="white"/>
<path d="M1308.55 200.234H1300.6L1229.27 103.678H1229.04L1229.61 174.688C1229.61 177.546 1229.61 180.333 1229.61 183.067C1229.61 185.801 1229.49 188.393 1229.33 191.109L1241.19 190.47V197.571H1211.06V192.245C1213.13 192.352 1215.18 191.891 1217 190.914C1218.35 190.122 1219.47 188.99 1220.25 187.63C1220.97 186.332 1221.44 184.902 1221.61 183.422C1221.78 182.027 1221.87 180.622 1221.89 179.215L1222.05 88.3401L1211.05 89.068V81.7007H1230.63L1300.6 176.002H1300.76L1300.92 100.217C1300.92 95.5772 1301.07 91.5888 1301.39 88.2513L1289.6 88.9792V81.7007H1319.85V87.0264C1317.42 86.9667 1315.01 87.5808 1312.9 88.8017C1311.4 89.8263 1310.28 91.3161 1309.7 93.0445C1309.04 95.0773 1308.74 97.2102 1308.81 99.3466C1308.81 101.779 1308.81 104.459 1308.81 107.424L1308.55 200.234Z" fill="white"/>
<path d="M362.231 243.498C355.343 243.454 348.539 245.009 342.346 248.043C336.093 251.133 330.574 255.54 326.163 260.967C321.316 267 317.622 273.886 315.268 281.276C312.513 289.875 311.167 298.869 311.284 307.904C311.231 313.92 311.852 319.923 313.135 325.799C314.324 331.148 316.134 336.338 318.529 341.261C320.757 345.85 323.566 350.128 326.885 353.99C330.031 357.655 333.661 360.869 337.674 363.541C341.616 366.147 345.908 368.174 350.419 369.559C354.99 370.965 359.743 371.677 364.522 371.671C368.888 371.674 373.241 371.18 377.497 370.198C386.179 368.22 394.285 364.232 401.172 358.552C404.689 355.667 407.828 352.344 410.515 348.664L415.663 352.871C411.798 358.38 407.16 363.295 401.895 367.464C397.344 371.013 392.384 373.993 387.122 376.34C382.463 378.435 377.567 379.949 372.543 380.849C368.16 381.632 363.72 382.042 359.269 382.074C349.847 382.187 340.506 380.3 331.857 376.535C323.785 373.005 316.51 367.859 310.473 361.41C304.425 354.871 299.7 347.207 296.564 338.847C293.25 329.932 291.606 320.476 291.716 310.958C291.719 304.672 292.357 298.402 293.62 292.247C294.851 286.157 296.774 280.23 299.35 274.583C301.892 269.016 305.107 263.787 308.922 259.014C312.76 254.228 317.281 250.04 322.337 246.587C327.657 242.961 333.494 240.171 339.648 238.315C353.47 234.302 368.135 234.302 381.957 238.315C388.716 240.439 395.134 243.537 401.013 247.51L400.044 236.735H410.832V283.193H403.64C403.047 277.396 401.554 271.729 399.215 266.399C397.139 261.741 394.202 257.524 390.56 253.972C386.968 250.544 382.713 247.897 378.061 246.197C372.986 244.354 367.625 243.44 362.231 243.498Z" fill="white"/>
<path d="M450.831 308.701C450.847 302.94 451.467 297.198 452.682 291.569C453.92 285.739 455.813 280.069 458.323 274.669C460.867 269.188 464.07 264.043 467.86 259.349C475.818 249.397 486.559 242.081 498.693 238.348C505.657 236.218 512.904 235.176 520.182 235.259C527.672 235.169 535.132 236.229 542.306 238.401C548.627 240.342 554.636 243.194 560.146 246.869C565.285 250.337 569.878 254.562 573.773 259.402C577.583 264.118 580.815 269.28 583.398 274.776C585.942 280.17 587.864 285.841 589.127 291.676C591.666 302.876 591.666 314.508 589.127 325.707C587.862 331.513 585.971 337.163 583.486 342.555C580.96 348.05 577.774 353.213 574.002 357.928C570.141 362.758 565.604 366.998 560.534 370.515C555.179 374.198 549.317 377.069 543.134 379.036C536.196 381.204 528.962 382.264 521.698 382.178C513.995 382.277 506.317 381.254 498.904 379.142C492.519 377.299 486.442 374.511 480.87 370.87C475.743 367.49 471.169 363.328 467.314 358.532C463.564 353.879 460.423 348.76 457.971 343.3C455.531 337.864 453.721 332.164 452.577 326.311C451.417 320.514 450.833 314.614 450.831 308.701ZM470.381 305.044C470.402 310.215 470.856 315.376 471.739 320.47C472.638 325.794 474.019 331.023 475.864 336.093C477.721 341.172 480.084 346.049 482.915 350.65C485.637 355.148 489.012 359.211 492.928 362.704C496.792 366.137 501.194 368.902 505.956 370.887C511.097 372.971 516.598 374.003 522.139 373.923C527.241 373.981 532.313 373.134 537.123 371.42C541.545 369.811 545.681 367.497 549.375 364.568C553.036 361.623 556.25 358.154 558.912 354.271C561.647 350.292 563.929 346.017 565.716 341.525C567.577 336.826 568.959 331.948 569.841 326.968C570.742 322.186 571.214 317.332 571.252 312.464C571.193 307.074 570.674 301.699 569.7 296.398C568.728 290.756 567.199 285.225 565.135 279.888C563.167 274.848 560.692 270.024 557.748 265.491C554.935 261.145 551.529 257.218 547.63 253.828C543.823 250.542 539.505 247.909 534.849 246.034C529.971 244.105 524.77 243.14 519.53 243.194C511.981 243.014 504.527 244.911 497.97 248.679C491.883 252.273 486.644 257.155 482.616 262.988C478.456 269.03 475.35 275.742 473.431 282.835C471.409 290.062 470.383 297.535 470.381 305.044Z" fill="white"/>
<path d="M661.808 355.797C661.808 359.454 661.808 362.561 661.666 365.1C661.596 367.232 661.42 369.359 661.138 371.473L698.369 370.887C702.137 370.892 705.876 370.213 709.405 368.881C712.552 367.653 715.319 365.607 717.425 362.952C719.743 359.886 721.401 356.367 722.291 352.62C723.479 347.633 724.035 342.515 723.948 337.388H730.665L729.501 378.911H630.781V372.254C633.733 372.337 636.654 371.626 639.243 370.195C641.099 368.993 642.502 367.199 643.227 365.1C644.056 362.624 644.467 360.026 644.443 357.413C644.443 354.431 644.443 351.182 644.443 347.667V260.946C644.443 258.194 644.443 255.62 644.602 253.153C644.761 250.685 644.867 248.466 645.131 246.442L630.746 247.33V238.454H675.558V245.022C672.599 244.936 669.673 245.667 667.096 247.135C665.244 248.365 663.845 250.174 663.112 252.283C662.286 254.747 661.875 257.333 661.896 259.934C661.896 262.881 661.896 266.147 661.896 269.733V355.797H661.808Z" fill="white"/>
<path d="M796.858 355.797C796.858 359.454 796.858 362.561 796.717 365.1C796.647 367.232 796.471 369.359 796.188 371.473L833.42 370.887C837.188 370.892 840.926 370.213 844.455 368.881C847.602 367.653 850.37 365.607 852.476 362.952C854.794 359.886 856.451 356.367 857.342 352.62C858.529 347.633 859.086 342.515 858.999 337.388H865.715L864.64 378.911H765.744V372.254C768.696 372.337 771.617 371.626 774.206 370.195C776.062 368.993 777.464 367.199 778.19 365.1C779.018 362.624 779.429 360.026 779.406 357.413C779.406 354.431 779.406 351.182 779.406 347.667V260.946C779.406 258.194 779.406 255.62 779.565 253.153C779.723 250.685 779.829 248.466 780.093 246.442L765.709 247.33V238.454H810.52V245.022C807.561 244.936 804.635 245.667 802.059 247.135C800.207 248.365 798.807 250.174 798.074 252.283C797.249 254.747 796.837 257.333 796.858 259.934C796.858 262.881 796.858 266.147 796.858 269.733V355.797Z" fill="white"/>
<path d="M931.899 355.818C931.899 359.546 931.899 362.653 931.758 365.174C931.687 367.288 931.511 369.397 931.23 371.494L969.342 370.908C973.315 370.892 977.269 370.349 981.101 369.293C984.466 368.359 987.552 366.61 990.091 364.198C992.752 361.549 994.736 358.29 995.873 354.7C997.358 349.899 998.049 344.885 997.918 339.859H1004.72L1003.56 378.914H900.785V372.257C903.374 372.317 905.944 371.802 908.312 370.748C910.048 369.913 911.487 368.562 912.437 366.878C913.413 365.072 914.012 363.085 914.2 361.038C914.437 358.548 914.549 356.047 914.535 353.546V260.967C914.535 258.215 914.535 255.641 914.694 253.174C914.853 250.706 914.958 248.487 915.223 246.463L900.838 247.351V238.475H996.614L997.583 273.625H991.078C991.22 268.846 990.546 264.078 989.086 259.529C988.007 256.249 986.136 253.29 983.639 250.919C981.34 248.828 978.549 247.362 975.53 246.658C972.212 245.89 968.816 245.515 965.411 245.54L947.025 245.842C944.072 245.882 941.153 246.484 938.422 247.617C936.466 248.508 934.868 250.041 933.891 251.966C932.804 254.248 932.203 256.733 932.129 259.263C931.976 262.186 931.894 265.736 931.882 269.914V302.224H969.219L967.756 284.897H976.57V327.095H970.065C970.158 323.944 969.814 320.795 969.043 317.739C968.507 315.689 967.392 313.839 965.834 312.414C964.253 311.082 962.338 310.216 960.299 309.911C957.617 309.486 954.904 309.29 952.19 309.325H949.369C948.394 309.325 942.559 309.556 931.864 310.017V355.889L931.899 355.818Z" fill="white"/>
<path d="M1166.6 371.67H1161.15C1158.18 371.761 1155.23 372.154 1152.34 372.842C1148 373.84 1143.74 375.181 1139.61 376.854C1137.53 377.635 1135.27 378.363 1132.81 379.02C1130.34 379.677 1127.83 380.227 1125.28 380.688C1122.72 381.15 1120.17 381.505 1117.65 381.771C1115.3 382.023 1112.95 382.154 1110.59 382.162C1101.25 382.253 1091.98 380.597 1083.23 377.28C1075.21 374.223 1067.92 369.485 1061.85 363.38C1055.72 357.068 1050.98 349.525 1047.94 341.242C1044.52 331.789 1042.84 321.783 1042.99 311.72C1042.99 305.422 1043.63 299.141 1044.89 292.974C1046.13 286.856 1048.05 280.9 1050.62 275.221C1053.17 269.595 1056.38 264.302 1060.19 259.457C1064.03 254.582 1068.57 250.31 1073.66 246.782C1079 243.102 1084.87 240.264 1091.06 238.367C1097.92 236.262 1105.06 235.214 1112.23 235.26C1115.88 235.269 1119.52 235.53 1123.13 236.041C1126.8 236.559 1130.44 237.294 1134.02 238.243C1137.53 239.193 1140.97 240.379 1144.32 241.793C1147.48 243.093 1150.54 244.63 1153.47 246.391L1152.58 236.787H1163.57V282.713H1156.37C1156.03 276.901 1154.62 271.205 1152.2 265.919C1150.02 261.182 1146.89 256.951 1143.01 253.492C1139.14 250.103 1134.65 247.505 1129.79 245.841C1124.58 244.041 1119.11 243.147 1113.61 243.196C1106.69 243.159 1099.86 244.79 1093.69 247.953C1087.42 251.168 1081.88 255.674 1077.45 261.179C1072.64 267.198 1068.94 274.033 1066.52 281.363C1063.75 289.649 1062.39 298.345 1062.49 307.087C1062.39 315.98 1063.71 324.831 1066.38 333.307C1068.72 340.825 1072.42 347.838 1077.31 353.989C1081.9 359.683 1087.66 364.314 1094.18 367.569C1100.9 370.876 1108.3 372.554 1115.78 372.469C1118.57 372.46 1121.36 372.264 1124.13 371.883C1127.1 371.479 1130.05 370.886 1132.95 370.108C1135.96 369.312 1138.91 368.279 1141.76 367.019C1144.63 365.752 1147.38 364.225 1149.98 362.457V318.697L1135.98 319.478V310.602H1181V317.17C1178.84 317.102 1176.7 317.591 1174.78 318.59C1173.17 319.444 1171.78 320.659 1170.71 322.141C1169.66 323.634 1168.85 325.289 1168.33 327.041C1167.79 328.78 1167.4 330.561 1167.16 332.366C1166.95 334.003 1166.82 335.651 1166.78 337.301C1166.78 338.846 1166.78 340.053 1166.78 340.976V371.581L1166.6 371.67Z" fill="white"/>
<path d="M1247.18 355.818C1247.18 359.546 1247.18 362.653 1247.04 365.174C1246.96 367.288 1246.79 369.397 1246.51 371.494L1284.62 370.908C1288.59 370.892 1292.55 370.349 1296.38 369.293C1299.74 368.359 1302.83 366.61 1305.37 364.198C1308.03 361.549 1310.01 358.29 1311.15 354.7C1312.64 349.899 1313.33 344.885 1313.2 339.859H1320L1318.84 378.914H1216.06V372.257C1218.65 372.317 1221.22 371.802 1223.59 370.748C1225.32 369.913 1226.76 368.562 1227.71 366.878C1228.69 365.072 1229.29 363.085 1229.48 361.038C1229.71 358.548 1229.83 356.047 1229.81 353.546V260.967C1229.81 258.215 1229.81 255.641 1229.97 253.174C1230.13 250.706 1230.24 248.487 1230.5 246.463L1216.12 247.351V238.475H1311.89L1312.86 273.625H1306.36C1306.5 268.846 1305.82 264.078 1304.36 259.529C1303.28 256.249 1301.41 253.29 1298.92 250.919C1296.62 248.828 1293.83 247.362 1290.81 246.658C1287.49 245.89 1284.09 245.515 1280.69 245.54L1262.3 245.842C1259.35 245.882 1256.43 246.484 1253.7 247.617C1251.74 248.508 1250.15 250.041 1249.17 251.966C1248.09 254.251 1247.49 256.735 1247.41 259.263C1247.24 262.186 1247.16 265.736 1247.16 269.914V302.224H1284.5L1283.03 284.897H1291.85V327.095H1285.34C1285.44 323.944 1285.09 320.795 1284.32 317.739C1283.78 315.689 1282.67 313.839 1281.11 312.414C1279.53 311.082 1277.61 310.216 1275.58 309.911C1272.89 309.486 1270.18 309.29 1267.47 309.325H1264.65C1263.68 309.325 1257.85 309.556 1247.14 310.017V355.889L1247.18 355.818Z" fill="white"/>
<path d="M244.417 57.0674H17.7548V76.8955H244.417V57.0674Z" fill="white"/>
<path d="M245.666 78.0881H16.502V55.8096H245.683V78.0881H245.666ZM19.0039 75.6377H243.164V58.3808H19.0039V75.6377Z" fill="white"/>
<path d="M236.418 109.009H25.7611V75.6348H236.418V109.009ZM28.2801 106.473H233.916V78.0852H28.2801V106.473Z" fill="white"/>
<path d="M245.176 58.3443H17.3656L8.19763 47.9902H253.967L245.176 58.3443ZM18.4966 55.8076H244.011L248.5 50.458H13.7669L18.4966 55.8076Z" fill="white"/>
<path d="M236.415 45.5229H25.741V44.2458C25.8781 34.0298 26.0323 23.9863 26.1694 13.9429V12.8557L27.249 12.7176C81.7082 5.60783 118.037 1.08654 123.35 0.430781C125.92 0.126259 128.507 -0.0293083 131.095 -0.0351534C133.786 -0.0359251 136.476 0.119645 139.149 0.430781L236.415 11.9238V45.5229ZM28.2943 43.0034H233.93V14.2362L138.858 2.98479C133.803 2.38591 128.696 2.38591 123.641 2.98479C118.38 3.58878 82.5136 8.16184 28.6884 15.0646C28.5513 24.3315 28.4142 33.5984 28.2943 43.0034Z" fill="white"/>
<path d="M78.4185 107.991H23.1024V114.773H78.4185V107.991Z" fill="white"/>
<path d="M79.6747 116.053H21.8395V106.734H79.6747V116.053ZM24.3414 113.516H77.1728V109.254H24.3414V113.516Z" fill="white"/>
<path d="M67.334 136.089H33.5926L25.5899 113.275H75.9707L67.334 136.089ZM35.3748 133.569H65.6204L72.3207 115.812H29.1371L35.3748 133.569Z" fill="white"/>
<path d="M194.574 136.073L186.469 113.312H236.833L228.779 136.021H207.444H194.592L194.574 136.073ZM190.033 115.848L196.339 133.554H207.427H226.996L233.251 115.9L190.033 115.848Z" fill="white"/>
<path d="M239.296 107.991H183.979V114.773H239.296V107.991Z" fill="white"/>
<path d="M240.542 116.053H182.706V106.734H240.542V116.053ZM185.226 113.534H238.04V109.254H185.226V113.516V113.534Z" fill="white"/>
<path d="M68.004 375.61H33.5257V133.566H68.004V375.61ZM36.0276 373.177H65.4678V136.085H36.0276V373.177Z" fill="white"/>
<path d="M228.871 375.61H194.393V133.566H228.871V375.61ZM196.912 373.177H226.369V136.085H196.912V373.177Z" fill="white"/>
<path d="M33.2138 388.518L30.7462 388.07C31.2088 385.878 31.6715 383.462 32.1342 381.167C32.5969 378.872 33.0596 376.421 33.5222 374.264L33.7279 373.315H67.7949L67.9834 374.281C68.429 376.49 68.8916 378.854 69.3714 381.184C69.8513 383.514 70.3139 385.912 70.7595 388.087L68.2919 388.518C67.8463 386.309 67.3836 383.945 66.9038 381.615C66.4925 379.596 66.0813 377.56 65.7043 375.645H35.8014C35.4072 377.577 34.996 379.631 34.619 381.615C34.1391 383.893 33.6765 386.309 33.2138 388.518Z" fill="white"/>
<path d="M194.071 388.452L191.603 387.952L194.602 373.077H228.652L228.84 374.095C229.286 376.39 229.766 378.737 230.228 380.998C230.691 383.258 231.188 385.622 231.633 387.9L229.166 388.366C228.72 386.071 228.241 383.724 227.778 381.463C227.384 379.513 226.955 377.512 226.578 375.527H196.658L194.071 388.452Z" fill="white"/>
<path d="M70.7766 413.782H30.7462V387.983H70.7766V413.782ZM33.2481 411.245H68.2576V390.433H33.2481V411.245Z" fill="white"/>
<path d="M231.69 413.782H191.625V387.983H231.69V413.782ZM194.161 411.245H229.171V390.433H194.127V411.142L194.161 411.245Z" fill="white"/>
<path d="M70.7814 392.404C70.6345 393.31 70.3514 394.189 69.9417 395.01H192.878V392.49L70.7814 392.404Z" fill="white"/>
<path d="M67.0212 379.321C68.0289 379.977 68.8685 380.864 69.4717 381.909H194.447V379.39L67.0212 379.321Z" fill="white"/>
<path d="M118.98 222.563H84.9472V183.217H118.98V222.563ZM87.4491 220.043H116.461V185.754H87.4491V220.043Z" fill="white"/>
<path d="M177.465 222.563H143.432V183.217H177.465V222.563ZM146.003 220.043H175.015V185.754H146.003V220.043Z" fill="white"/>
<path d="M118.98 365.206H84.9472V237.799H118.98V365.206ZM87.4491 362.686H116.461V240.301H87.4491V362.686Z" fill="white"/>
<path d="M177.465 365.206H143.432V237.799H177.465V365.206ZM146.003 362.686H175.015V240.301H146.003V362.686Z" fill="white"/>
<path d="M131.039 282.824C129.758 282.824 128.506 282.441 127.441 281.725C126.375 281.008 125.545 279.989 125.055 278.797C124.565 277.605 124.436 276.294 124.686 275.028C124.936 273.763 125.553 272.601 126.459 271.688C127.365 270.776 128.519 270.155 129.776 269.903C131.032 269.651 132.334 269.781 133.518 270.274C134.702 270.768 135.713 271.604 136.425 272.677C137.137 273.75 137.517 275.011 137.517 276.301C137.517 278.031 136.834 279.69 135.62 280.913C134.405 282.137 132.757 282.824 131.039 282.824ZM131.039 272.297C130.253 272.297 129.484 272.532 128.831 272.972C128.177 273.412 127.667 274.037 127.366 274.769C127.065 275.5 126.987 276.305 127.14 277.082C127.293 277.859 127.672 278.572 128.228 279.132C128.784 279.692 129.492 280.073 130.264 280.228C131.035 280.382 131.834 280.303 132.561 280C133.287 279.697 133.908 279.184 134.345 278.525C134.782 277.867 135.015 277.093 135.015 276.301C135.015 275.239 134.596 274.221 133.85 273.47C133.105 272.719 132.094 272.297 131.039 272.297Z" fill="white"/>
<path d="M253.898 47.92H251.379V45.5903H10.7167V47.92H8.19763V43.0708H253.898V47.92Z" fill="white"/>
<path d="M252.63 44.3335H9.44843V47.9229H252.63V44.3335Z" fill="white"/>
<path d="M252.887 48.1828H9.20874V44.0757H252.887V48.1828ZM9.70569 47.6824H252.39V44.5934H9.70569V47.6824Z" fill="white"/>
<path d="M195.755 107.75H74.1553V112.944H195.755V107.75Z" fill="white"/>
<path d="M195.988 113.185H73.8915V107.421H195.988V113.185ZM74.4056 112.685H195.491V107.991H74.4056V112.685Z" fill="white"/>
<path d="M192.878 393.661H69.5308V412.505H192.878V393.661Z" fill="white"/>
<path d="M194.122 413.781H68.2559V392.417H194.122V413.781ZM70.7406 411.245H191.586V394.937H70.7749L70.7406 411.245Z" fill="white"/>
<path d="M153.866 153.861H107.941V169.996H153.866V153.861Z" fill="white"/>
<path d="M104.932 153.861H83.7347V169.996H104.932V153.861Z" fill="white"/>
<path d="M179.316 131.651H156.885V150.824H179.316V131.651Z" fill="white"/>
<path d="M153.866 131.651H107.941V150.824H153.866V131.651Z" fill="white"/>
<path d="M104.932 131.651H83.7347V150.824H104.932V131.651Z" fill="white"/>
<path d="M179.316 153.861H156.885V169.996H179.316V153.861Z" fill="white"/>
<path d="M191.625 388.057V387.954L191.848 388.005L191.642 388.057" fill="white"/>
</g>
<defs>
<clipPath id="clip0_0_133">
<rect width="1320" height="413.784" fill="white"/>
</clipPath>
</defs>
</svg>
