<svg width="830" height="298" viewBox="0 0 830 298" fill="none" xmlns="http://www.w3.org/2000/svg">
<rect width="245.791" height="185.236" rx="12" fill="white" fill-opacity="0.06"/>
<path d="M45.8977 44.3079V32.9352H47.9479L51.6801 41.9212V32.9352H53.3299V44.3079H51.2797L47.5475 35.3219V44.3079H45.8977ZM58.2251 44.5001C57.6912 44.5001 57.2107 44.404 56.7835 44.2118C56.3564 44.0196 56.0147 43.7473 55.7584 43.3949C55.5128 43.0425 55.39 42.6314 55.39 42.1615C55.39 41.4354 55.6089 40.8694 56.0467 40.4636C56.4952 40.0578 57.168 39.7695 58.065 39.5986L60.82 39.022C60.82 38.3599 60.6759 37.8634 60.3875 37.5323C60.0992 37.2013 59.6667 37.0358 59.0901 37.0358C58.5562 37.0358 58.1397 37.1586 57.8407 37.4042C57.5417 37.6498 57.3388 37.9915 57.232 38.4293L55.5341 38.3172C55.6943 37.5056 56.0841 36.8489 56.7034 36.347C57.3228 35.8451 58.1184 35.5942 59.0901 35.5942C60.1793 35.5942 61.0069 35.9039 61.5729 36.5232C62.1495 37.1426 62.4378 37.9969 62.4378 39.0861V42.4498C62.4378 42.642 62.4805 42.7809 62.566 42.8663C62.6514 42.941 62.7742 42.9784 62.9344 42.9784H63.4149V44.3079C63.3508 44.3186 63.2441 44.3292 63.0946 44.3399C62.9557 44.3506 62.8169 44.3559 62.6781 44.3559C62.2937 44.3559 61.968 44.2919 61.701 44.1637C61.434 44.0356 61.2312 43.838 61.0923 43.5711C60.9642 43.2934 60.8894 42.9464 60.8681 42.5299H61.1244C61.0603 42.9037 60.8948 43.24 60.6278 43.539C60.3609 43.838 60.0191 44.073 59.6027 44.2438C59.1862 44.4147 58.727 44.5001 58.2251 44.5001ZM58.4654 43.1706C58.978 43.1706 59.4105 43.0799 59.7629 42.8983C60.1152 42.7168 60.3769 42.4605 60.5477 42.1295C60.7293 41.7984 60.82 41.4087 60.82 40.9602V40.3034L58.4494 40.784C57.9368 40.8801 57.5791 41.0296 57.3762 41.2325C57.1733 41.4354 57.0719 41.7023 57.0719 42.0334C57.0719 42.3858 57.1947 42.6634 57.4403 42.8663C57.6859 43.0692 58.0276 43.1706 58.4654 43.1706ZM70.3604 44.3079C69.4954 44.3079 68.8494 44.1103 68.4222 43.7152C68.0058 43.3094 67.7976 42.6901 67.7976 41.8572V33.7842H69.4154V41.7771C69.4154 42.1722 69.5061 42.4658 69.6877 42.6581C69.8799 42.8503 70.1629 42.9464 70.5366 42.9464H72.731V44.3079H70.3604ZM65.1066 37.1479V35.7864H72.731V37.1479H65.1066ZM78.6514 44.3079V35.7864H80.2852V44.3079H78.6514ZM75.3197 44.3079V42.9464H83.1364V44.3079H75.3197ZM75.4799 37.1479V35.7864H80.141V37.1479H75.4799ZM78.5553 34.553V32.8712H80.2211V34.553H78.5553ZM88.6723 44.5001C87.8821 44.5001 87.188 44.3186 86.59 43.9555C86.0027 43.5924 85.5435 43.0745 85.2124 42.4018C84.8921 41.729 84.7319 40.9441 84.7319 40.0471C84.7319 39.1395 84.8921 38.3546 85.2124 37.6925C85.5435 37.0198 86.0027 36.5019 86.59 36.1388C87.188 35.7757 87.8821 35.5942 88.6723 35.5942C89.4625 35.5942 90.1513 35.7757 90.7386 36.1388C91.3366 36.5019 91.7958 37.0198 92.1161 37.6925C92.4472 38.3546 92.6127 39.1395 92.6127 40.0471C92.6127 40.9441 92.4472 41.729 92.1161 42.4018C91.7958 43.0745 91.3366 43.5924 90.7386 43.9555C90.1513 44.3186 89.4625 44.5001 88.6723 44.5001ZM88.6723 43.0104C89.3878 43.0104 89.9377 42.7488 90.3221 42.2256C90.7172 41.7023 90.9148 40.9762 90.9148 40.0471C90.9148 39.1181 90.7172 38.392 90.3221 37.8687C89.9377 37.3455 89.3878 37.0838 88.6723 37.0838C87.9568 37.0838 87.4016 37.3455 87.0064 37.8687C86.622 38.392 86.4298 39.1181 86.4298 40.0471C86.4298 40.9762 86.622 41.7023 87.0064 42.2256C87.4016 42.7488 87.9568 43.0104 88.6723 43.0104ZM94.913 44.3079V35.7864H96.4027L96.4507 38.0129L96.2745 37.8847C96.3813 37.3615 96.5682 36.9343 96.8351 36.6033C97.1128 36.2616 97.4492 36.0107 97.8443 35.8505C98.2394 35.6796 98.6612 35.5942 99.1097 35.5942C99.7504 35.5942 100.279 35.7383 100.695 36.0267C101.112 36.3043 101.427 36.6887 101.64 37.18C101.854 37.6605 101.961 38.2051 101.961 38.8138V44.3079H100.343V39.2302C100.343 38.4934 100.199 37.9381 99.9106 37.5644C99.6329 37.1906 99.2111 37.0038 98.6452 37.0038C98.25 37.0038 97.8923 37.0892 97.572 37.26C97.2623 37.4309 97.0113 37.6872 96.8191 38.0289C96.6269 38.3599 96.5308 38.7711 96.5308 39.2623V44.3079H94.913ZM107.048 44.5001C106.514 44.5001 106.034 44.404 105.607 44.2118C105.18 44.0196 104.838 43.7473 104.582 43.3949C104.336 43.0425 104.213 42.6314 104.213 42.1615C104.213 41.4354 104.432 40.8694 104.87 40.4636C105.318 40.0578 105.991 39.7695 106.888 39.5986L109.643 39.022C109.643 38.3599 109.499 37.8634 109.211 37.5323C108.922 37.2013 108.49 37.0358 107.913 37.0358C107.379 37.0358 106.963 37.1586 106.664 37.4042C106.365 37.6498 106.162 37.9915 106.055 38.4293L104.357 38.3172C104.517 37.5056 104.907 36.8489 105.527 36.347C106.146 35.8451 106.941 35.5942 107.913 35.5942C109.002 35.5942 109.83 35.9039 110.396 36.5232C110.973 37.1426 111.261 37.9969 111.261 39.0861V42.4498C111.261 42.642 111.304 42.7809 111.389 42.8663C111.475 42.941 111.597 42.9784 111.758 42.9784H112.238V44.3079C112.174 44.3186 112.067 44.3292 111.918 44.3399C111.779 44.3506 111.64 44.3559 111.501 44.3559C111.117 44.3559 110.791 44.2919 110.524 44.1637C110.257 44.0356 110.054 43.838 109.915 43.5711C109.787 43.2934 109.713 42.9464 109.691 42.5299H109.947C109.883 42.9037 109.718 43.24 109.451 43.539C109.184 43.838 108.842 44.073 108.426 44.2438C108.009 44.4147 107.55 44.5001 107.048 44.5001ZM107.289 43.1706C107.801 43.1706 108.234 43.0799 108.586 42.8983C108.938 42.7168 109.2 42.4605 109.371 42.1295C109.552 41.7984 109.643 41.4087 109.643 40.9602V40.3034L107.273 40.784C106.76 40.8801 106.402 41.0296 106.199 41.2325C105.996 41.4354 105.895 41.7023 105.895 42.0334C105.895 42.3858 106.018 42.6634 106.263 42.8663C106.509 43.0692 106.851 43.1706 107.289 43.1706ZM117.39 44.3079V35.3539C117.39 35.0229 117.293 34.7666 117.101 34.5851C116.92 34.3928 116.663 34.2967 116.332 34.2967H114.378V32.9352H116.509C117.331 32.9352 117.95 33.1488 118.367 33.5759C118.794 33.9924 119.007 34.6118 119.007 35.434V44.3079H117.39ZM114.058 44.3079V42.9464H121.875V44.3079H114.058ZM133.763 44.3079V32.9352H137.303C138.51 32.9352 139.455 33.2396 140.138 33.8482C140.832 34.4569 141.18 35.2845 141.18 36.331C141.18 36.8756 141.057 37.3561 140.811 37.7726C140.576 38.1891 140.261 38.5148 139.866 38.7497C139.482 38.9846 139.071 39.1181 138.633 39.1501L138.569 38.9579C139.359 38.99 139.946 39.1715 140.331 39.5025C140.726 39.8229 140.955 40.3461 141.019 41.0723L141.308 44.3079H139.626L139.37 41.3926C139.337 41.0189 139.257 40.7199 139.129 40.4956C139.001 40.2714 138.804 40.1112 138.537 40.0151C138.27 39.919 137.901 39.8709 137.431 39.8709H135.445V44.3079H133.763ZM135.445 38.3012H137.271C137.976 38.3012 138.515 38.1357 138.889 37.8046C139.263 37.4736 139.45 37.0091 139.45 36.4111C139.45 35.8024 139.263 35.3379 138.889 35.0175C138.515 34.6865 137.976 34.521 137.271 34.521H135.445V38.3012ZM146.107 44.5001C145.573 44.5001 145.092 44.404 144.665 44.2118C144.238 44.0196 143.896 43.7473 143.64 43.3949C143.394 43.0425 143.272 42.6314 143.272 42.1615C143.272 41.4354 143.491 40.8694 143.928 40.4636C144.377 40.0578 145.05 39.7695 145.947 39.5986L148.702 39.022C148.702 38.3599 148.557 37.8634 148.269 37.5323C147.981 37.2013 147.548 37.0358 146.972 37.0358C146.438 37.0358 146.021 37.1586 145.722 37.4042C145.423 37.6498 145.22 37.9915 145.114 38.4293L143.416 38.3172C143.576 37.5056 143.966 36.8489 144.585 36.347C145.204 35.8451 146 35.5942 146.972 35.5942C148.061 35.5942 148.889 35.9039 149.454 36.5232C150.031 37.1426 150.319 37.9969 150.319 39.0861V42.4498C150.319 42.642 150.362 42.7809 150.448 42.8663C150.533 42.941 150.656 42.9784 150.816 42.9784H151.297V44.3079C151.232 44.3186 151.126 44.3292 150.976 44.3399C150.837 44.3506 150.699 44.3559 150.56 44.3559C150.175 44.3559 149.85 44.2919 149.583 44.1637C149.316 44.0356 149.113 43.838 148.974 43.5711C148.846 43.2934 148.771 42.9464 148.75 42.5299H149.006C148.942 42.9037 148.776 43.24 148.509 43.539C148.242 43.838 147.901 44.073 147.484 44.2438C147.068 44.4147 146.609 44.5001 146.107 44.5001ZM146.347 43.1706C146.86 43.1706 147.292 43.0799 147.644 42.8983C147.997 42.7168 148.258 42.4605 148.429 42.1295C148.611 41.7984 148.702 41.4087 148.702 40.9602V40.3034L146.331 40.784C145.818 40.8801 145.461 41.0296 145.258 41.2325C145.055 41.4354 144.953 41.7023 144.953 42.0334C144.953 42.3858 145.076 42.6634 145.322 42.8663C145.567 43.0692 145.909 43.1706 146.347 43.1706ZM153.501 44.3079V35.7864H154.99L155.038 38.0129L154.862 37.8847C154.969 37.3615 155.156 36.9343 155.423 36.6033C155.701 36.2616 156.037 36.0107 156.432 35.8505C156.827 35.6796 157.249 35.5942 157.697 35.5942C158.338 35.5942 158.867 35.7383 159.283 36.0267C159.7 36.3043 160.015 36.6887 160.228 37.18C160.442 37.6605 160.549 38.2051 160.549 38.8138V44.3079H158.931V39.2302C158.931 38.4934 158.787 37.9381 158.498 37.5644C158.221 37.1906 157.799 37.0038 157.233 37.0038C156.838 37.0038 156.48 37.0892 156.16 37.26C155.85 37.4309 155.599 37.6872 155.407 38.0289C155.215 38.3599 155.119 38.7711 155.119 39.2623V44.3079H153.501ZM163.265 44.3079V32.9352H164.883V40.0792L168.727 35.7864H170.794L167.462 39.4064L170.938 44.3079H169.032L166.389 40.4956L164.883 42.0814V44.3079H163.265ZM176.298 44.3079V35.7864H177.931V44.3079H176.298ZM172.966 44.3079V42.9464H180.783V44.3079H172.966ZM173.126 37.1479V35.7864H177.787V37.1479H173.126ZM176.202 34.553V32.8712H177.867V34.553H176.202ZM182.795 44.3079V35.7864H184.284L184.332 38.0129L184.156 37.8847C184.263 37.3615 184.45 36.9343 184.717 36.6033C184.994 36.2616 185.331 36.0107 185.726 35.8505C186.121 35.6796 186.543 35.5942 186.991 35.5942C187.632 35.5942 188.161 35.7383 188.577 36.0267C188.994 36.3043 189.309 36.6887 189.522 37.18C189.736 37.6605 189.842 38.2051 189.842 38.8138V44.3079H188.225V39.2302C188.225 38.4934 188.081 37.9381 187.792 37.5644C187.515 37.1906 187.093 37.0038 186.527 37.0038C186.132 37.0038 185.774 37.0892 185.454 37.26C185.144 37.4309 184.893 37.6872 184.701 38.0289C184.509 38.3599 184.412 38.7711 184.412 39.2623V44.3079H182.795ZM196.035 46.9028C195.394 46.9028 194.823 46.8013 194.321 46.5984C193.819 46.3955 193.403 46.1072 193.072 45.7335C192.751 45.3597 192.527 44.9272 192.399 44.436L194.097 44.3239C194.214 44.6763 194.423 44.9539 194.722 45.1568C195.021 45.3597 195.458 45.4612 196.035 45.4612C196.751 45.4612 197.295 45.3117 197.669 45.0127C198.053 44.7137 198.246 44.2705 198.246 43.6832V42.4338C198.043 42.8716 197.722 43.2187 197.285 43.475C196.857 43.7312 196.361 43.8594 195.795 43.8594C195.09 43.8594 194.46 43.6832 193.905 43.3308C193.349 42.9784 192.917 42.4979 192.607 41.8892C192.298 41.2698 192.143 40.5597 192.143 39.7588C192.143 38.9259 192.292 38.1998 192.591 37.5804C192.901 36.961 193.328 36.4752 193.873 36.1228C194.417 35.7704 195.037 35.5942 195.731 35.5942C196.329 35.5942 196.852 35.733 197.301 36.0107C197.76 36.2776 198.091 36.646 198.294 37.1159L198.31 35.7864H199.863V43.5711C199.863 44.2865 199.709 44.8899 199.399 45.3811C199.089 45.883 198.646 46.2621 198.069 46.5184C197.503 46.7746 196.825 46.9028 196.035 46.9028ZM196.019 42.4178C196.681 42.4178 197.215 42.1829 197.621 41.713C198.027 41.2431 198.235 40.5864 198.246 39.7428C198.256 39.1662 198.165 38.6803 197.973 38.2852C197.792 37.8794 197.53 37.5697 197.188 37.3561C196.857 37.1426 196.468 37.0358 196.019 37.0358C195.325 37.0358 194.786 37.2761 194.401 37.7566C194.028 38.2265 193.841 38.8885 193.841 39.7428C193.841 40.5864 194.033 41.2431 194.417 41.713C194.812 42.1829 195.346 42.4178 196.019 42.4178Z" fill="white"/>
<path d="M82.2297 121.15L85.2571 107.022H76.0308L73.0035 121.15H65.0026L68.0299 107.022H59.3082V99.3092H69.6878L71.4898 91.02H62.4798V83.3074H73.1476L76.175 69.1797H84.1759L81.1485 83.3074H90.3748L93.4022 69.1797H101.403L98.3757 83.3074H106.809V91.02H96.7179L94.9159 99.3092H103.638V107.022H93.258L90.2307 121.15H82.2297ZM77.6887 99.3092H86.915L88.717 91.02H79.4907L77.6887 99.3092ZM108.385 121.15V111.995L126.477 97.0027C129.168 94.7442 131.139 92.7019 132.388 90.8759C133.685 89.0018 134.334 87.1517 134.334 85.3257C134.334 83.2113 133.637 81.5294 132.244 80.2801C130.898 78.9826 129.12 78.3339 126.91 78.3339C124.315 78.3339 122.321 79.319 120.927 81.2892C119.534 83.2594 118.957 85.8302 119.197 89.0018H108.385C108.049 85.0614 108.674 81.5775 110.259 78.5501C111.845 75.4747 114.104 73.048 117.035 71.27C119.966 69.492 123.258 68.603 126.91 68.603C130.706 68.603 133.998 69.3239 136.785 70.7655C139.62 72.159 141.807 74.1052 143.344 76.604C144.93 79.1027 145.723 82.01 145.723 85.3257C145.723 88.6414 144.69 91.8369 142.623 94.9124C140.557 97.9397 137.362 101.135 133.037 104.499L124.315 111.347H145.651V121.15H108.385ZM167.113 121.726C163.701 121.726 160.529 121.077 157.598 119.78C154.667 118.435 152.288 116.536 150.462 114.086C148.684 111.635 147.771 108.728 147.723 105.364H158.391C158.775 107.382 159.688 108.992 161.13 110.193C162.62 111.347 164.47 111.923 166.68 111.923C169.131 111.923 171.101 111.178 172.591 109.689C174.129 108.151 174.897 106.133 174.897 103.634C174.897 101.135 174.105 99.1651 172.519 97.7235C170.933 96.2338 168.843 95.489 166.248 95.489C164.326 95.489 162.74 95.8494 161.49 96.5702C160.241 97.2429 159.256 98.18 158.535 99.3813H148.876L153.201 69.1797H183.763V78.9105H161.635L159.761 90.083C160.914 89.0738 162.331 88.2569 164.013 87.6322C165.695 86.9595 167.425 86.6231 169.203 86.6231C172.567 86.6231 175.522 87.3439 178.069 88.7855C180.664 90.2271 182.682 92.2214 184.124 94.7682C185.565 97.315 186.286 100.27 186.286 103.634C186.286 107.238 185.493 110.41 183.907 113.149C182.322 115.84 180.087 117.954 177.204 119.492C174.369 120.981 171.005 121.726 167.113 121.726Z" fill="white"/>
<path d="M31.1844 155.063C30.4733 155.063 29.8174 154.923 29.2165 154.643C28.6157 154.352 28.125 153.947 27.7444 153.426C27.3639 152.895 27.1385 152.264 27.0684 151.533H28.3152C28.3553 151.994 28.5055 152.41 28.7659 152.78C29.0263 153.141 29.3668 153.426 29.7874 153.636C30.208 153.847 30.6736 153.952 31.1844 153.952C31.9655 153.952 32.5914 153.782 33.0621 153.441C33.5428 153.091 33.7831 152.63 33.7831 152.059C33.7831 151.548 33.6229 151.148 33.3024 150.857C32.992 150.557 32.5964 150.337 32.1157 150.196L30.0277 149.581C29.5771 149.45 29.1564 149.28 28.7659 149.07C28.3853 148.85 28.0799 148.559 27.8496 148.199C27.6192 147.828 27.5041 147.357 27.5041 146.787C27.5041 146.226 27.6543 145.74 27.9547 145.329C28.2652 144.909 28.6908 144.583 29.2316 144.353C29.7823 144.113 30.4133 143.993 31.1243 143.993C31.8053 143.993 32.4161 144.113 32.9569 144.353C33.4977 144.583 33.9333 144.919 34.2638 145.36C34.5943 145.8 34.7896 146.331 34.8496 146.952H33.6028C33.5027 146.391 33.2373 145.945 32.8067 145.615C32.3861 145.274 31.8253 145.104 31.1243 145.104C30.3932 145.104 29.8174 145.254 29.3968 145.555C28.9862 145.845 28.7809 146.256 28.7809 146.787C28.7809 147.247 28.9311 147.603 29.2316 147.853C29.532 148.093 29.9125 148.284 30.3732 148.424L32.4762 149.04C32.9569 149.17 33.3875 149.355 33.7681 149.596C34.1586 149.826 34.4691 150.141 34.6994 150.542C34.9298 150.933 35.0449 151.438 35.0449 152.059C35.0449 152.66 34.8847 153.186 34.5642 153.636C34.2438 154.087 33.7931 154.438 33.2123 154.688C32.6415 154.938 31.9655 155.063 31.1844 155.063ZM36.5598 154.943V147.147H37.7164V154.943H36.5598ZM36.4546 145.69V144.113H37.8216V145.69H36.4546ZM44.1891 154.943L42.1311 151.879L40.0732 154.943H38.7513L41.4702 150.902L38.9465 147.147H40.2534L42.1311 149.926L44.0088 147.147H45.3157L42.7921 150.902L45.511 154.943H44.1891ZM49.3588 155.063C48.6678 155.063 48.117 154.878 47.7064 154.508C47.3058 154.137 47.1055 153.571 47.1055 152.81V148.154H45.6184V147.147H47.1055V144.759H48.2472V147.147H50.2751V148.154H48.2472V152.765C48.2472 153.196 48.3473 153.511 48.5476 153.712C48.7579 153.912 49.0483 154.012 49.4188 154.012C49.6091 154.012 49.7744 154.002 49.9146 153.982C50.0648 153.952 50.1849 153.922 50.2751 153.892V154.943C50.1749 154.963 50.0397 154.988 49.8695 155.018C49.7093 155.048 49.539 155.063 49.3588 155.063ZM51.6254 154.943V143.993H52.782V148.694C53.0825 148.174 53.468 147.768 53.9387 147.478C54.4094 147.177 54.9351 147.027 55.516 147.027C56.0568 147.027 56.5324 147.142 56.943 147.372C57.3636 147.593 57.6891 147.908 57.9194 148.319C58.1598 148.729 58.28 149.21 58.28 149.761V154.943H57.1233V149.941C57.1233 149.4 56.9581 148.955 56.6276 148.604C56.3071 148.254 55.8615 148.078 55.2907 148.078C54.5396 148.078 53.9337 148.389 53.473 149.01C53.0124 149.621 52.782 150.457 52.782 151.518V154.943H51.6254ZM63.9179 154.943V148.154H62.4307V147.147H63.9179V146.126C63.9179 145.355 64.1232 144.789 64.5338 144.428C64.9544 144.058 65.4801 143.872 66.111 143.872C66.2813 143.872 66.4465 143.882 66.6067 143.902C66.767 143.912 66.9272 143.937 67.0874 143.978V145.029C66.9673 144.979 66.8271 144.949 66.6668 144.939C66.5166 144.919 66.3914 144.909 66.2913 144.909C65.9308 144.909 65.6353 145.009 65.405 145.209C65.1747 145.41 65.0595 145.725 65.0595 146.156V147.147H67.0874V148.154H65.0595V154.943H63.9179ZM71.1836 155.063C70.4426 155.063 69.7866 154.893 69.2158 154.553C68.645 154.202 68.1943 153.727 67.8639 153.126C67.5434 152.515 67.3832 151.819 67.3832 151.038C67.3832 150.257 67.5434 149.566 67.8639 148.965C68.1943 148.364 68.645 147.893 69.2158 147.553C69.7866 147.202 70.4426 147.027 71.1836 147.027C71.9247 147.027 72.5806 147.197 73.1515 147.538C73.7223 147.878 74.1729 148.354 74.5034 148.965C74.8339 149.566 74.9991 150.257 74.9991 151.038C74.9991 151.819 74.8339 152.515 74.5034 153.126C74.1729 153.727 73.7223 154.202 73.1515 154.553C72.5806 154.893 71.9247 155.063 71.1836 155.063ZM71.1836 154.027C71.7044 154.027 72.16 153.902 72.5506 153.651C72.9412 153.391 73.2466 153.036 73.4669 152.585C73.6973 152.134 73.8124 151.619 73.8124 151.038C73.8124 150.457 73.6973 149.946 73.4669 149.505C73.2466 149.055 72.9362 148.704 72.5356 148.454C72.145 148.194 71.6944 148.063 71.1836 148.063C70.6629 148.063 70.2072 148.194 69.8167 148.454C69.4261 148.704 69.1207 149.055 68.9003 149.505C68.69 149.946 68.5849 150.457 68.5849 151.038C68.5849 151.619 68.69 152.134 68.9003 152.585C69.1207 153.036 69.4261 153.391 69.8167 153.651C70.2072 153.902 70.6629 154.027 71.1836 154.027ZM80.8451 148.184C80.765 148.164 80.6548 148.144 80.5146 148.124C80.3844 148.093 80.2242 148.078 80.0339 148.078C79.6133 148.078 79.2228 148.224 78.8623 148.514C78.5118 148.794 78.2313 149.22 78.021 149.791C77.8107 150.362 77.7056 151.083 77.7056 151.954V154.943H76.5489V147.147H77.7056V148.754C77.8358 148.424 78.0261 148.129 78.2764 147.868C78.5368 147.608 78.8322 147.402 79.1627 147.252C79.4932 147.102 79.8286 147.027 80.1691 147.027C80.3494 147.027 80.4896 147.032 80.5897 147.042C80.6899 147.052 80.775 147.067 80.8451 147.087V148.184ZM82.0207 154.943V147.147H83.1773V148.694C83.3676 148.194 83.658 147.793 84.0486 147.493C84.4492 147.182 84.9499 147.027 85.5508 147.027C86.2017 147.027 86.7625 147.172 87.2332 147.463C87.7038 147.753 88.0043 148.164 88.1345 148.694C88.3548 148.204 88.6853 147.803 89.1259 147.493C89.5665 147.182 90.0672 147.027 90.6281 147.027C91.4593 147.027 92.1202 147.267 92.6109 147.748C93.1016 148.229 93.347 148.89 93.347 149.731V154.943H92.1903V149.941C92.1903 149.38 92.0351 148.93 91.7246 148.589C91.4142 148.239 90.9736 148.063 90.4027 148.063C89.7117 148.063 89.181 148.349 88.8104 148.92C88.4399 149.48 88.2546 150.191 88.2546 151.053V154.943H87.098V149.941C87.098 149.38 86.9428 148.93 86.6323 148.589C86.3319 148.239 85.9013 148.063 85.3404 148.063C84.6394 148.063 84.1037 148.349 83.7331 148.92C83.3626 149.48 83.1773 150.191 83.1773 151.053V154.943H82.0207ZM101.872 155.063C101.121 155.063 100.46 154.898 99.8891 154.568C99.3283 154.227 98.8877 153.757 98.5672 153.156C98.2568 152.545 98.1015 151.839 98.1015 151.038C98.1015 150.237 98.2568 149.536 98.5672 148.935C98.8877 148.334 99.3283 147.868 99.8891 147.538C100.46 147.197 101.121 147.027 101.872 147.027C102.733 147.027 103.464 147.267 104.065 147.748C104.666 148.219 105.037 148.915 105.177 149.836H104.05C103.96 149.305 103.715 148.88 103.314 148.559C102.923 148.229 102.448 148.063 101.887 148.063C101.096 148.063 100.465 148.339 99.9943 148.89C99.5336 149.43 99.3033 150.146 99.3033 151.038C99.3033 151.939 99.5386 152.665 100.009 153.216C100.48 153.757 101.106 154.027 101.887 154.027C102.448 154.027 102.923 153.872 103.314 153.561C103.715 153.251 103.965 152.79 104.065 152.179H105.207C105.037 153.161 104.651 153.887 104.05 154.357C103.449 154.828 102.723 155.063 101.872 155.063ZM109.941 155.063C109.2 155.063 108.544 154.893 107.973 154.553C107.402 154.202 106.951 153.727 106.621 153.126C106.3 152.515 106.14 151.819 106.14 151.038C106.14 150.257 106.3 149.566 106.621 148.965C106.951 148.364 107.402 147.893 107.973 147.553C108.544 147.202 109.2 147.027 109.941 147.027C110.682 147.027 111.338 147.197 111.908 147.538C112.479 147.878 112.93 148.354 113.26 148.965C113.591 149.566 113.756 150.257 113.756 151.038C113.756 151.819 113.591 152.515 113.26 153.126C112.93 153.727 112.479 154.202 111.908 154.553C111.338 154.893 110.682 155.063 109.941 155.063ZM109.941 154.027C110.461 154.027 110.917 153.902 111.308 153.651C111.698 153.391 112.004 153.036 112.224 152.585C112.454 152.134 112.569 151.619 112.569 151.038C112.569 150.457 112.454 149.946 112.224 149.505C112.004 149.055 111.693 148.704 111.293 148.454C110.902 148.194 110.451 148.063 109.941 148.063C109.42 148.063 108.964 148.194 108.574 148.454C108.183 148.704 107.878 149.055 107.657 149.505C107.447 149.946 107.342 150.457 107.342 151.038C107.342 151.619 107.447 152.134 107.657 152.585C107.878 153.036 108.183 153.391 108.574 153.651C108.964 153.902 109.42 154.027 109.941 154.027ZM115.306 154.943V143.993H116.463V154.943H115.306ZM118.504 154.943V143.993H119.66V154.943H118.504ZM122.378 151.188C122.408 152.089 122.658 152.79 123.129 153.291C123.6 153.792 124.21 154.042 124.961 154.042C125.532 154.042 126.033 153.907 126.464 153.636C126.894 153.366 127.155 152.98 127.245 152.48H128.356C128.216 153.331 127.831 153.977 127.2 154.418C126.569 154.848 125.823 155.063 124.961 155.063C124.2 155.063 123.534 154.888 122.964 154.538C122.403 154.177 121.967 153.692 121.657 153.081C121.356 152.47 121.206 151.789 121.206 151.038C121.206 150.287 121.356 149.611 121.657 149.01C121.957 148.399 122.388 147.918 122.949 147.568C123.509 147.207 124.17 147.027 124.931 147.027C125.652 147.027 126.273 147.187 126.794 147.508C127.315 147.828 127.715 148.264 127.996 148.814C128.286 149.355 128.426 149.971 128.416 150.662C128.416 150.782 128.411 150.892 128.401 150.993C128.391 151.083 128.386 151.148 128.386 151.188H122.378ZM124.931 148.018C124.26 148.018 123.71 148.219 123.279 148.619C122.848 149.01 122.573 149.541 122.453 150.212H127.185C127.145 149.581 126.929 149.06 126.539 148.649C126.148 148.229 125.612 148.018 124.931 148.018ZM133.296 157.873C132.234 157.873 131.393 157.647 130.772 157.197C130.161 156.756 129.811 156.11 129.72 155.259H130.892C130.952 155.759 131.182 156.15 131.583 156.43C131.994 156.721 132.564 156.866 133.296 156.866C134.067 156.866 134.657 156.671 135.068 156.28C135.479 155.89 135.684 155.329 135.684 154.598V153.471C135.504 153.812 135.178 154.087 134.708 154.297C134.247 154.498 133.726 154.598 133.145 154.598C132.364 154.598 131.698 154.433 131.147 154.102C130.597 153.772 130.176 153.321 129.886 152.75C129.605 152.179 129.465 151.538 129.465 150.827C129.465 150.106 129.605 149.46 129.886 148.89C130.176 148.319 130.592 147.868 131.132 147.538C131.683 147.197 132.344 147.027 133.115 147.027C133.646 147.027 134.147 147.142 134.617 147.372C135.088 147.603 135.444 147.898 135.684 148.259V147.147H136.841V154.508C136.841 155.589 136.53 156.42 135.909 157.001C135.298 157.582 134.427 157.873 133.296 157.873ZM133.22 153.561C133.992 153.561 134.607 153.316 135.068 152.825C135.539 152.325 135.774 151.659 135.774 150.827C135.774 149.996 135.539 149.33 135.068 148.83C134.607 148.319 133.992 148.063 133.22 148.063C132.449 148.063 131.828 148.319 131.358 148.83C130.897 149.33 130.667 149.996 130.667 150.827C130.667 151.659 130.897 152.325 131.358 152.825C131.828 153.316 132.449 153.561 133.22 153.561ZM139.541 151.188C139.571 152.089 139.822 152.79 140.292 153.291C140.763 153.792 141.374 154.042 142.125 154.042C142.696 154.042 143.196 153.907 143.627 153.636C144.058 153.366 144.318 152.98 144.408 152.48H145.52C145.38 153.331 144.994 153.977 144.363 154.418C143.732 154.848 142.986 155.063 142.125 155.063C141.364 155.063 140.698 154.888 140.127 154.538C139.566 154.177 139.131 153.692 138.82 153.081C138.52 152.47 138.369 151.789 138.369 151.038C138.369 150.287 138.52 149.611 138.82 149.01C139.121 148.399 139.551 147.918 140.112 147.568C140.673 147.207 141.334 147.027 142.095 147.027C142.816 147.027 143.437 147.187 143.957 147.508C144.478 147.828 144.879 148.264 145.159 148.814C145.45 149.355 145.59 149.971 145.58 150.662C145.58 150.782 145.575 150.892 145.565 150.993C145.555 151.083 145.55 151.148 145.55 151.188H139.541ZM142.095 148.018C141.424 148.018 140.873 148.219 140.442 148.619C140.012 149.01 139.736 149.541 139.616 150.212H144.348C144.308 149.581 144.093 149.06 143.702 148.649C143.312 148.229 142.776 148.018 142.095 148.018ZM150.425 154.943V147.147H151.581V154.943H150.425ZM150.32 145.69V144.113H151.687V145.69H150.32ZM153.623 154.943V147.147H154.779V148.694C155.07 148.174 155.45 147.768 155.921 147.478C156.402 147.177 156.932 147.027 157.513 147.027C158.054 147.027 158.53 147.142 158.94 147.372C159.361 147.593 159.686 147.908 159.917 148.319C160.157 148.729 160.277 149.21 160.277 149.761V154.943H159.121V149.941C159.121 149.4 158.955 148.955 158.625 148.604C158.304 148.254 157.859 148.078 157.288 148.078C156.537 148.078 155.931 148.389 155.47 149.01C155.01 149.621 154.779 150.457 154.779 151.518V154.943H153.623ZM165.67 154.943V144.113H172.384V145.224H166.901V148.634H171.378V149.746H166.901V153.832H172.549V154.943H165.67ZM173.896 154.943V147.147H175.053V148.694C175.343 148.174 175.724 147.768 176.194 147.478C176.675 147.177 177.206 147.027 177.787 147.027C178.327 147.027 178.803 147.142 179.214 147.372C179.634 147.593 179.96 147.908 180.19 148.319C180.43 148.729 180.551 149.21 180.551 149.761V154.943H179.394V149.941C179.394 149.4 179.229 148.955 178.898 148.604C178.578 148.254 178.132 148.078 177.561 148.078C176.81 148.078 176.204 148.389 175.744 149.01C175.283 149.621 175.053 150.457 175.053 151.518V154.943H173.896ZM185.842 157.873C184.78 157.873 183.939 157.647 183.318 157.197C182.707 156.756 182.357 156.11 182.267 155.259H183.438C183.498 155.759 183.729 156.15 184.129 156.43C184.54 156.721 185.111 156.866 185.842 156.866C186.613 156.866 187.204 156.671 187.614 156.28C188.025 155.89 188.23 155.329 188.23 154.598V153.471C188.05 153.812 187.725 154.087 187.254 154.297C186.793 154.498 186.272 154.598 185.692 154.598C184.91 154.598 184.245 154.433 183.694 154.102C183.143 153.772 182.722 153.321 182.432 152.75C182.152 152.179 182.011 151.538 182.011 150.827C182.011 150.106 182.152 149.46 182.432 148.89C182.722 148.319 183.138 147.868 183.679 147.538C184.23 147.197 184.89 147.027 185.662 147.027C186.192 147.027 186.693 147.142 187.164 147.372C187.634 147.603 187.99 147.898 188.23 148.259V147.147H189.387V154.508C189.387 155.589 189.076 156.42 188.456 157.001C187.845 157.582 186.973 157.873 185.842 157.873ZM185.767 153.561C186.538 153.561 187.154 153.316 187.614 152.825C188.085 152.325 188.32 151.659 188.32 150.827C188.32 149.996 188.085 149.33 187.614 148.83C187.154 148.319 186.538 148.063 185.767 148.063C184.996 148.063 184.375 148.319 183.904 148.83C183.443 149.33 183.213 149.996 183.213 150.827C183.213 151.659 183.443 152.325 183.904 152.825C184.375 153.316 184.996 153.561 185.767 153.561ZM191.411 154.943V143.993H192.568V154.943H191.411ZM196.712 155.063C195.941 155.063 195.31 154.863 194.82 154.463C194.329 154.062 194.084 153.526 194.084 152.855C194.084 152.184 194.314 151.649 194.775 151.248C195.235 150.837 195.876 150.582 196.697 150.482L198.56 150.242C199.071 150.161 199.326 149.921 199.326 149.521C199.326 149.09 199.156 148.734 198.815 148.454C198.475 148.174 197.994 148.033 197.373 148.033C196.813 148.033 196.352 148.169 195.991 148.439C195.631 148.699 195.426 149.085 195.376 149.596H194.189C194.269 148.814 194.594 148.194 195.165 147.733C195.736 147.262 196.472 147.027 197.373 147.027C197.994 147.027 198.535 147.142 198.996 147.372C199.466 147.593 199.832 147.898 200.092 148.289C200.353 148.679 200.483 149.125 200.483 149.626V153.396C200.483 153.646 200.533 153.812 200.633 153.892C200.743 153.962 200.878 153.997 201.039 153.997C201.119 153.997 201.199 153.987 201.279 153.967V154.943C201.209 154.953 201.129 154.968 201.039 154.988C200.959 155.008 200.868 155.018 200.768 155.018C200.368 155.018 200.037 154.908 199.777 154.688C199.526 154.468 199.396 154.107 199.386 153.606C199.176 154.047 198.825 154.403 198.335 154.673C197.844 154.933 197.303 155.063 196.712 155.063ZM196.848 154.072C197.639 154.072 198.25 153.837 198.68 153.366C199.121 152.885 199.341 152.234 199.341 151.413V151.023L196.848 151.413C195.796 151.583 195.27 152.059 195.27 152.84C195.27 153.221 195.416 153.521 195.706 153.742C196.006 153.962 196.387 154.072 196.848 154.072ZM202.546 154.943V147.147H203.702V148.694C203.993 148.174 204.373 147.768 204.844 147.478C205.325 147.177 205.855 147.027 206.436 147.027C206.977 147.027 207.453 147.142 207.863 147.372C208.284 147.593 208.609 147.908 208.84 148.319C209.08 148.729 209.2 149.21 209.2 149.761V154.943H208.044V149.941C208.044 149.4 207.878 148.955 207.548 148.604C207.227 148.254 206.782 148.078 206.211 148.078C205.46 148.078 204.854 148.389 204.393 149.01C203.933 149.621 203.702 150.457 203.702 151.518V154.943H202.546ZM214.371 155.063C213.58 155.063 212.904 154.883 212.343 154.523C211.793 154.162 211.372 153.681 211.082 153.081C210.801 152.47 210.661 151.789 210.661 151.038C210.661 150.287 210.806 149.611 211.097 149.01C211.387 148.399 211.808 147.918 212.358 147.568C212.909 147.207 213.58 147.027 214.371 147.027C214.882 147.027 215.378 147.152 215.858 147.402C216.339 147.643 216.7 147.953 216.94 148.334V143.993H218.097V154.943H216.94V153.757C216.78 154.117 216.459 154.428 215.979 154.688C215.498 154.938 214.962 155.063 214.371 155.063ZM214.461 154.027C215.233 154.027 215.858 153.757 216.339 153.216C216.82 152.665 217.06 151.939 217.06 151.038C217.06 150.146 216.82 149.43 216.339 148.89C215.858 148.339 215.233 148.063 214.461 148.063C213.68 148.063 213.049 148.339 212.569 148.89C212.098 149.43 211.863 150.146 211.863 151.038C211.863 151.929 212.098 152.65 212.569 153.201C213.049 153.752 213.68 154.027 214.461 154.027Z" fill="white"/>
<rect x="565.188" y="112.665" width="264.812" height="185.236" rx="12" fill="white" fill-opacity="0.06"/>
<path d="M647.346 156.972L643.966 145.6H645.744L648.595 155.611H648.083L650.934 145.6H652.712L649.332 156.972H647.346ZM656.951 157.165C656.417 157.165 655.936 157.069 655.509 156.876C655.082 156.684 654.74 156.412 654.484 156.059C654.238 155.707 654.115 155.296 654.115 154.826C654.115 154.1 654.334 153.534 654.772 153.128C655.221 152.722 655.893 152.434 656.79 152.263L659.545 151.687C659.545 151.024 659.401 150.528 659.113 150.197C658.825 149.866 658.392 149.7 657.816 149.7C657.282 149.7 656.865 149.823 656.566 150.069C656.267 150.314 656.064 150.656 655.957 151.094L654.26 150.982C654.42 150.17 654.809 149.513 655.429 149.012C656.048 148.51 656.844 148.259 657.816 148.259C658.905 148.259 659.732 148.568 660.298 149.188C660.875 149.807 661.163 150.661 661.163 151.751V155.114C661.163 155.307 661.206 155.445 661.291 155.531C661.377 155.606 661.5 155.643 661.66 155.643H662.14V156.972C662.076 156.983 661.969 156.994 661.82 157.004C661.681 157.015 661.542 157.02 661.403 157.02C661.019 157.02 660.693 156.956 660.426 156.828C660.159 156.7 659.957 156.503 659.818 156.236C659.69 155.958 659.615 155.611 659.593 155.194H659.85C659.786 155.568 659.62 155.905 659.353 156.204C659.086 156.503 658.745 156.738 658.328 156.908C657.912 157.079 657.452 157.165 656.951 157.165ZM657.191 155.835C657.703 155.835 658.136 155.744 658.488 155.563C658.841 155.381 659.102 155.125 659.273 154.794C659.455 154.463 659.545 154.073 659.545 153.625V152.968L657.175 153.449C656.662 153.545 656.304 153.694 656.102 153.897C655.899 154.1 655.797 154.367 655.797 154.698C655.797 155.05 655.92 155.328 656.166 155.531C656.411 155.734 656.753 155.835 657.191 155.835ZM667.292 156.972V148.018C667.292 147.687 667.196 147.431 667.003 147.25C666.822 147.057 666.566 146.961 666.235 146.961H664.28V145.6H666.411C667.233 145.6 667.852 145.813 668.269 146.24C668.696 146.657 668.91 147.276 668.91 148.099V156.972H667.292ZM663.96 156.972V155.611H671.777V156.972H663.96ZM676.896 157.165C676.074 157.165 675.417 156.887 674.926 156.332C674.435 155.766 674.189 154.976 674.189 153.961V148.451H675.807V153.545C675.807 154.313 675.941 154.874 676.207 155.226C676.474 155.579 676.88 155.755 677.425 155.755C678.012 155.755 678.482 155.558 678.834 155.162C679.197 154.767 679.379 154.207 679.379 153.481V148.451H680.997V156.972H679.475L679.459 154.746L679.683 154.842C679.534 155.579 679.219 156.15 678.738 156.556C678.258 156.962 677.644 157.165 676.896 157.165ZM687.51 157.165C686.709 157.165 686.009 156.983 685.411 156.62C684.824 156.257 684.365 155.739 684.034 155.066C683.714 154.394 683.553 153.609 683.553 152.712C683.553 151.815 683.714 151.035 684.034 150.373C684.365 149.711 684.819 149.193 685.395 148.819C685.983 148.446 686.672 148.259 687.462 148.259C688.22 148.259 688.887 148.44 689.464 148.803C690.041 149.156 690.489 149.668 690.809 150.341C691.141 151.003 691.306 151.804 691.306 152.744V153.192H685.251C685.305 154.004 685.529 154.623 685.924 155.05C686.33 155.467 686.864 155.675 687.526 155.675C688.028 155.675 688.444 155.558 688.775 155.323C689.106 155.077 689.336 154.762 689.464 154.378L691.162 154.49C690.916 155.301 690.473 155.953 689.832 156.444C689.202 156.924 688.428 157.165 687.51 157.165ZM685.251 151.895H689.56C689.496 151.169 689.272 150.629 688.887 150.277C688.514 149.925 688.038 149.748 687.462 149.748C686.864 149.748 686.373 149.93 685.988 150.293C685.604 150.656 685.358 151.19 685.251 151.895ZM702.506 156.972L705.838 145.6H708.016L711.348 156.972H709.602L706.927 147.346L704.252 156.972H702.506ZM704.364 154.009L704.877 152.455H708.977L709.49 154.009H704.364ZM716.019 157.165C715.293 157.165 714.663 156.988 714.129 156.636C713.595 156.273 713.184 155.76 712.895 155.098C712.607 154.426 712.463 153.63 712.463 152.712C712.463 151.793 712.607 151.003 712.895 150.341C713.184 149.668 713.595 149.156 714.129 148.803C714.663 148.44 715.293 148.259 716.019 148.259C716.617 148.259 717.14 148.398 717.589 148.675C718.037 148.953 718.363 149.279 718.566 149.652V145.6H720.183V156.972H718.678L718.63 155.659C718.395 156.118 718.053 156.487 717.605 156.764C717.156 157.031 716.628 157.165 716.019 157.165ZM716.291 155.675C716.761 155.675 717.161 155.558 717.492 155.323C717.834 155.077 718.096 154.735 718.277 154.297C718.47 153.849 718.566 153.32 718.566 152.712C718.566 152.082 718.47 151.548 718.277 151.11C718.096 150.672 717.834 150.336 717.492 150.101C717.151 149.866 716.74 149.748 716.259 149.748C715.608 149.748 715.095 150.01 714.721 150.533C714.348 151.057 714.161 151.783 714.161 152.712C714.161 153.63 714.348 154.356 714.721 154.89C715.095 155.413 715.618 155.675 716.291 155.675ZM725.783 157.165C725.057 157.165 724.427 156.988 723.893 156.636C723.359 156.273 722.948 155.76 722.66 155.098C722.372 154.426 722.227 153.63 722.227 152.712C722.227 151.793 722.372 151.003 722.66 150.341C722.948 149.668 723.359 149.156 723.893 148.803C724.427 148.44 725.057 148.259 725.783 148.259C726.381 148.259 726.905 148.398 727.353 148.675C727.802 148.953 728.127 149.279 728.33 149.652V145.6H729.948V156.972H728.442L728.394 155.659C728.159 156.118 727.818 156.487 727.369 156.764C726.921 157.031 726.392 157.165 725.783 157.165ZM726.056 155.675C726.526 155.675 726.926 155.558 727.257 155.323C727.599 155.077 727.86 154.735 728.042 154.297C728.234 153.849 728.33 153.32 728.33 152.712C728.33 152.082 728.234 151.548 728.042 151.11C727.86 150.672 727.599 150.336 727.257 150.101C726.915 149.866 726.504 149.748 726.024 149.748C725.372 149.748 724.86 150.01 724.486 150.533C724.112 151.057 723.925 151.783 723.925 152.712C723.925 153.63 724.112 154.356 724.486 154.89C724.86 155.413 725.383 155.675 726.056 155.675ZM736.333 157.165C735.532 157.165 734.833 156.983 734.235 156.62C733.647 156.257 733.188 155.739 732.857 155.066C732.537 154.394 732.377 153.609 732.377 152.712C732.377 151.815 732.537 151.035 732.857 150.373C733.188 149.711 733.642 149.193 734.219 148.819C734.806 148.446 735.495 148.259 736.285 148.259C737.043 148.259 737.71 148.44 738.287 148.803C738.864 149.156 739.312 149.668 739.633 150.341C739.964 151.003 740.129 151.804 740.129 152.744V153.192H734.074C734.128 154.004 734.352 154.623 734.747 155.05C735.153 155.467 735.687 155.675 736.349 155.675C736.851 155.675 737.267 155.558 737.598 155.323C737.929 155.077 738.159 154.762 738.287 154.378L739.985 154.49C739.739 155.301 739.296 155.953 738.656 156.444C738.026 156.924 737.251 157.165 736.333 157.165ZM734.074 151.895H738.383C738.319 151.169 738.095 150.629 737.71 150.277C737.337 149.925 736.862 149.748 736.285 149.748C735.687 149.748 735.196 149.93 734.811 150.293C734.427 150.656 734.181 151.19 734.074 151.895ZM745.313 157.165C744.587 157.165 743.957 156.988 743.423 156.636C742.889 156.273 742.478 155.76 742.189 155.098C741.901 154.426 741.757 153.63 741.757 152.712C741.757 151.793 741.901 151.003 742.189 150.341C742.478 149.668 742.889 149.156 743.423 148.803C743.957 148.44 744.587 148.259 745.313 148.259C745.911 148.259 746.434 148.398 746.882 148.675C747.331 148.953 747.657 149.279 747.86 149.652V145.6H749.477V156.972H747.972L747.924 155.659C747.689 156.118 747.347 156.487 746.898 156.764C746.45 157.031 745.921 157.165 745.313 157.165ZM745.585 155.675C746.055 155.675 746.455 155.558 746.786 155.323C747.128 155.077 747.39 154.735 747.571 154.297C747.763 153.849 747.86 153.32 747.86 152.712C747.86 152.082 747.763 151.548 747.571 151.11C747.39 150.672 747.128 150.336 746.786 150.101C746.445 149.866 746.034 149.748 745.553 149.748C744.902 149.748 744.389 150.01 744.015 150.533C743.642 151.057 743.455 151.783 743.455 152.712C743.455 153.63 743.642 154.356 744.015 154.89C744.389 155.413 744.912 155.675 745.585 155.675Z" fill="white"/>
<path d="M684.312 233.814L687.339 219.686H678.113L675.086 233.814H667.085L670.112 219.686H661.39V211.974H671.77L673.572 203.685H664.562V195.972H675.23L678.257 181.844H686.258L683.231 195.972H692.457L695.484 181.844H703.485L700.458 195.972H708.891V203.685H698.8L696.998 211.974H705.72V219.686H695.34L692.313 233.814H684.312ZM679.771 211.974H688.997L690.799 203.685H681.573L679.771 211.974ZM720.27 233.814V198.855H708.882V190.566C712.87 190.47 715.994 189.749 718.252 188.404C720.559 187.01 722.096 184.824 722.865 181.844H731.443V233.814H720.27Z" fill="white"/>
<path d="M592.991 267.608V256.777H599.825V257.889H594.222V261.419H598.804V262.531H594.222V267.608H592.991ZM603.744 267.728C603.003 267.728 602.347 267.558 601.776 267.217C601.205 266.867 600.755 266.391 600.424 265.79C600.104 265.179 599.944 264.483 599.944 263.702C599.944 262.921 600.104 262.23 600.424 261.629C600.755 261.028 601.205 260.558 601.776 260.217C602.347 259.867 603.003 259.691 603.744 259.691C604.485 259.691 605.141 259.862 605.712 260.202C606.283 260.543 606.733 261.018 607.064 261.629C607.394 262.23 607.559 262.921 607.559 263.702C607.559 264.483 607.394 265.179 607.064 265.79C606.733 266.391 606.283 266.867 605.712 267.217C605.141 267.558 604.485 267.728 603.744 267.728ZM603.744 266.692C604.265 266.692 604.72 266.566 605.111 266.316C605.502 266.056 605.807 265.7 606.027 265.249C606.258 264.799 606.373 264.283 606.373 263.702C606.373 263.121 606.258 262.611 606.027 262.17C605.807 261.719 605.497 261.369 605.096 261.119C604.705 260.858 604.255 260.728 603.744 260.728C603.223 260.728 602.768 260.858 602.377 261.119C601.986 261.369 601.681 261.719 601.461 262.17C601.25 262.611 601.145 263.121 601.145 263.702C601.145 264.283 601.25 264.799 601.461 265.249C601.681 265.7 601.986 266.056 602.377 266.316C602.768 266.566 603.223 266.692 603.744 266.692ZM613.405 260.848C613.325 260.828 613.215 260.808 613.075 260.788C612.945 260.758 612.785 260.743 612.594 260.743C612.174 260.743 611.783 260.888 611.423 261.179C611.072 261.459 610.792 261.885 610.581 262.455C610.371 263.026 610.266 263.747 610.266 264.619V267.608H609.109V259.812H610.266V261.419C610.396 261.088 610.586 260.793 610.837 260.533C611.097 260.272 611.393 260.067 611.723 259.917C612.054 259.767 612.389 259.691 612.73 259.691C612.91 259.691 613.05 259.696 613.15 259.706C613.25 259.716 613.335 259.732 613.405 259.752V260.848ZM620.276 267.608L616.115 256.777H617.436L620.951 266.091L624.452 256.777H625.713L621.552 267.608H620.276ZM628.009 267.728C627.238 267.728 626.607 267.528 626.116 267.127C625.626 266.727 625.38 266.191 625.38 265.52C625.38 264.849 625.611 264.313 626.071 263.913C626.532 263.502 627.173 263.247 627.994 263.146L629.857 262.906C630.367 262.826 630.623 262.586 630.623 262.185C630.623 261.754 630.452 261.399 630.112 261.119C629.771 260.838 629.291 260.698 628.67 260.698C628.109 260.698 627.648 260.833 627.288 261.103C626.927 261.364 626.722 261.749 626.672 262.26H625.485C625.565 261.479 625.891 260.858 626.462 260.397C627.033 259.927 627.769 259.691 628.67 259.691C629.291 259.691 629.832 259.807 630.292 260.037C630.763 260.257 631.128 260.563 631.389 260.953C631.649 261.344 631.779 261.789 631.779 262.29V266.061C631.779 266.311 631.829 266.476 631.93 266.556C632.04 266.626 632.175 266.661 632.335 266.661C632.415 266.661 632.495 266.651 632.576 266.631V267.608C632.505 267.618 632.425 267.633 632.335 267.653C632.255 267.673 632.165 267.683 632.065 267.683C631.664 267.683 631.334 267.573 631.073 267.352C630.823 267.132 630.693 266.772 630.683 266.271C630.473 266.712 630.122 267.067 629.631 267.337C629.141 267.598 628.6 267.728 628.009 267.728ZM628.144 266.737C628.935 266.737 629.546 266.501 629.977 266.031C630.417 265.55 630.638 264.899 630.638 264.078V263.687L628.144 264.078C627.093 264.248 626.567 264.724 626.567 265.505C626.567 265.885 626.712 266.186 627.003 266.406C627.303 266.626 627.683 266.737 628.144 266.737ZM633.842 267.608V256.657H634.999V267.608H633.842ZM643.605 259.812V267.608H642.448V266.061C642.157 266.581 641.777 266.992 641.306 267.292C640.836 267.583 640.31 267.728 639.729 267.728C639.188 267.728 638.708 267.618 638.287 267.398C637.876 267.167 637.551 266.847 637.311 266.436C637.08 266.026 636.965 265.545 636.965 264.994V259.812H638.107V264.814C638.107 265.355 638.267 265.8 638.587 266.151C638.918 266.501 639.368 266.677 639.939 266.677C640.7 266.677 641.306 266.371 641.757 265.76C642.218 265.139 642.448 264.298 642.448 263.237V259.812H643.605ZM646.327 263.852C646.357 264.754 646.608 265.455 647.078 265.955C647.549 266.456 648.16 266.707 648.911 266.707C649.482 266.707 649.982 266.571 650.413 266.301C650.844 266.031 651.104 265.645 651.194 265.144H652.306C652.166 265.996 651.78 266.641 651.149 267.082C650.518 267.513 649.772 267.728 648.911 267.728C648.15 267.728 647.484 267.553 646.913 267.202C646.352 266.842 645.917 266.356 645.606 265.745C645.306 265.134 645.155 264.453 645.155 263.702C645.155 262.951 645.306 262.275 645.606 261.674C645.907 261.063 646.337 260.583 646.898 260.232C647.459 259.872 648.12 259.691 648.881 259.691C649.602 259.691 650.223 259.852 650.743 260.172C651.264 260.493 651.665 260.928 651.945 261.479C652.236 262.02 652.376 262.636 652.366 263.327C652.366 263.447 652.361 263.557 652.351 263.657C652.341 263.747 652.336 263.812 652.336 263.852H646.327ZM648.881 260.683C648.21 260.683 647.659 260.883 647.228 261.284C646.798 261.674 646.522 262.205 646.402 262.876H651.134C651.094 262.245 650.879 261.724 650.488 261.314C650.098 260.893 649.562 260.683 648.881 260.683ZM653.535 263.657V262.636H657.981V263.657H653.535ZM658.201 267.608L662.482 256.777H663.849L668.16 267.608H666.839L665.727 264.754H660.575L659.463 267.608H658.201ZM660.995 263.642H665.291L663.143 258.114L660.995 263.642ZM672.234 267.728C671.443 267.728 670.767 267.548 670.206 267.187C669.656 266.827 669.235 266.346 668.945 265.745C668.664 265.134 668.524 264.453 668.524 263.702C668.524 262.951 668.669 262.275 668.96 261.674C669.25 261.063 669.671 260.583 670.221 260.232C670.772 259.872 671.443 259.691 672.234 259.691C672.745 259.691 673.241 259.817 673.721 260.067C674.202 260.307 674.563 260.618 674.803 260.998V256.657H675.96V267.608H674.803V266.421C674.643 266.782 674.322 267.092 673.842 267.352C673.361 267.603 672.825 267.728 672.234 267.728ZM672.324 266.692C673.096 266.692 673.721 266.421 674.202 265.88C674.683 265.33 674.923 264.604 674.923 263.702C674.923 262.811 674.683 262.095 674.202 261.554C673.721 261.003 673.096 260.728 672.324 260.728C671.543 260.728 670.912 261.003 670.432 261.554C669.961 262.095 669.726 262.811 669.726 263.702C669.726 264.594 669.961 265.315 670.432 265.865C670.912 266.416 671.543 266.692 672.324 266.692ZM681.212 267.728C680.421 267.728 679.745 267.548 679.184 267.187C678.633 266.827 678.213 266.346 677.922 265.745C677.642 265.134 677.502 264.453 677.502 263.702C677.502 262.951 677.647 262.275 677.937 261.674C678.228 261.063 678.648 260.583 679.199 260.232C679.75 259.872 680.421 259.691 681.212 259.691C681.723 259.691 682.219 259.817 682.699 260.067C683.18 260.307 683.54 260.618 683.781 260.998V256.657H684.937V267.608H683.781V266.421C683.621 266.782 683.3 267.092 682.819 267.352C682.339 267.603 681.803 267.728 681.212 267.728ZM681.302 266.692C682.073 266.692 682.699 266.421 683.18 265.88C683.661 265.33 683.901 264.604 683.901 263.702C683.901 262.811 683.661 262.095 683.18 261.554C682.699 261.003 682.073 260.728 681.302 260.728C680.521 260.728 679.89 261.003 679.41 261.554C678.939 262.095 678.704 262.811 678.704 263.702C678.704 264.594 678.939 265.315 679.41 265.865C679.89 266.416 680.521 266.692 681.302 266.692ZM687.651 263.852C687.681 264.754 687.932 265.455 688.402 265.955C688.873 266.456 689.484 266.707 690.235 266.707C690.806 266.707 691.306 266.571 691.737 266.301C692.168 266.031 692.428 265.645 692.518 265.144H693.63C693.49 265.996 693.104 266.641 692.473 267.082C691.842 267.513 691.096 267.728 690.235 267.728C689.474 267.728 688.808 267.553 688.237 267.202C687.676 266.842 687.241 266.356 686.93 265.745C686.63 265.134 686.48 264.453 686.48 263.702C686.48 262.951 686.63 262.275 686.93 261.674C687.231 261.063 687.661 260.583 688.222 260.232C688.783 259.872 689.444 259.691 690.205 259.691C690.926 259.691 691.547 259.852 692.068 260.172C692.588 260.493 692.989 260.928 693.269 261.479C693.56 262.02 693.7 262.636 693.69 263.327C693.69 263.447 693.685 263.557 693.675 263.657C693.665 263.747 693.66 263.812 693.66 263.852H687.651ZM690.205 260.683C689.534 260.683 688.983 260.883 688.553 261.284C688.122 261.674 687.846 262.205 687.726 262.876H692.458C692.418 262.245 692.203 261.724 691.812 261.314C691.422 260.893 690.886 260.683 690.205 260.683ZM698.449 267.728C697.658 267.728 696.982 267.548 696.421 267.187C695.87 266.827 695.45 266.346 695.159 265.745C694.879 265.134 694.738 264.453 694.738 263.702C694.738 262.951 694.884 262.275 695.174 261.674C695.465 261.063 695.885 260.583 696.436 260.232C696.987 259.872 697.658 259.691 698.449 259.691C698.96 259.691 699.455 259.817 699.936 260.067C700.417 260.307 700.777 260.618 701.018 260.998V256.657H702.174V267.608H701.018V266.421C700.857 266.782 700.537 267.092 700.056 267.352C699.575 267.603 699.04 267.728 698.449 267.728ZM698.539 266.692C699.31 266.692 699.936 266.421 700.417 265.88C700.897 265.33 701.138 264.604 701.138 263.702C701.138 262.811 700.897 262.095 700.417 261.554C699.936 261.003 699.31 260.728 698.539 260.728C697.758 260.728 697.127 261.003 696.646 261.554C696.176 262.095 695.94 262.811 695.94 263.702C695.94 264.594 696.176 265.315 696.646 265.865C697.127 266.416 697.758 266.692 698.539 266.692ZM707.513 267.608V259.812H708.669V267.608H707.513ZM707.407 258.355V256.777H708.774V258.355H707.407ZM710.711 267.608V259.812H711.867V261.359C712.158 260.838 712.538 260.433 713.009 260.142C713.49 259.842 714.02 259.691 714.601 259.691C715.142 259.691 715.618 259.807 716.028 260.037C716.449 260.257 716.774 260.573 717.005 260.983C717.245 261.394 717.365 261.875 717.365 262.425V267.608H716.208V262.606C716.208 262.065 716.043 261.619 715.713 261.269C715.392 260.918 714.947 260.743 714.376 260.743C713.625 260.743 713.019 261.053 712.558 261.674C712.098 262.285 711.867 263.121 711.867 264.183V267.608H710.711ZM722.757 267.608V256.777H726.603C727.644 256.777 728.451 257.018 729.021 257.498C729.602 257.969 729.893 258.655 729.893 259.556C729.893 260.037 729.768 260.463 729.517 260.833C729.267 261.204 728.906 261.484 728.436 261.674C729.046 261.885 729.517 262.23 729.848 262.711C730.178 263.181 730.343 263.767 730.343 264.468C730.343 265.49 730.038 266.271 729.427 266.812C728.826 267.342 727.965 267.608 726.843 267.608H722.757ZM726.588 266.496C727.399 266.496 728.015 266.321 728.436 265.97C728.866 265.62 729.082 265.109 729.082 264.438C729.082 263.777 728.866 263.272 728.436 262.921C728.015 262.571 727.399 262.395 726.588 262.395H723.989V266.496H726.588ZM726.543 261.284C727.224 261.284 727.74 261.139 728.09 260.848C728.441 260.558 728.616 260.137 728.616 259.586C728.616 259.026 728.436 258.6 728.075 258.309C727.725 258.009 727.214 257.859 726.543 257.859H723.989V261.284H726.543ZM731.893 267.608V259.812H733.05V267.608H731.893ZM731.788 258.355V256.777H733.155V258.355H731.788ZM739.388 260.848C739.307 260.828 739.197 260.808 739.057 260.788C738.927 260.758 738.767 260.743 738.576 260.743C738.156 260.743 737.765 260.888 737.405 261.179C737.054 261.459 736.774 261.885 736.563 262.455C736.353 263.026 736.248 263.747 736.248 264.619V267.608H735.091V259.812H736.248V261.419C736.378 261.088 736.568 260.793 736.819 260.533C737.079 260.272 737.375 260.067 737.705 259.917C738.036 259.767 738.371 259.691 738.712 259.691C738.892 259.691 739.032 259.696 739.132 259.706C739.232 259.716 739.317 259.732 739.388 259.752V260.848ZM740.563 267.608V259.812H741.72V261.359C741.91 260.858 742.2 260.458 742.591 260.157C742.992 259.847 743.492 259.691 744.093 259.691C744.744 259.691 745.305 259.837 745.776 260.127C746.246 260.418 746.547 260.828 746.677 261.359C746.897 260.868 747.228 260.468 747.668 260.157C748.109 259.847 748.61 259.691 749.17 259.691C750.002 259.691 750.663 259.932 751.153 260.412C751.644 260.893 751.889 261.554 751.889 262.395V267.608H750.733V262.606C750.733 262.045 750.577 261.594 750.267 261.254C749.957 260.903 749.516 260.728 748.945 260.728C748.254 260.728 747.723 261.013 747.353 261.584C746.982 262.145 746.797 262.856 746.797 263.717V267.608H745.64V262.606C745.64 262.045 745.485 261.594 745.175 261.254C744.874 260.903 744.444 260.728 743.883 260.728C743.182 260.728 742.646 261.013 742.276 261.584C741.905 262.145 741.72 262.856 741.72 263.717V267.608H740.563ZM753.839 267.608V259.812H754.996V267.608H753.839ZM753.734 258.355V256.777H755.101V258.355H753.734ZM757.037 267.608V259.812H758.194V261.359C758.484 260.838 758.865 260.433 759.335 260.142C759.816 259.842 760.347 259.691 760.928 259.691C761.468 259.691 761.944 259.807 762.355 260.037C762.775 260.257 763.101 260.573 763.331 260.983C763.571 261.394 763.692 261.875 763.692 262.425V267.608H762.535V262.606C762.535 262.065 762.37 261.619 762.039 261.269C761.719 260.918 761.273 260.743 760.702 260.743C759.951 260.743 759.345 261.053 758.885 261.674C758.424 262.285 758.194 263.121 758.194 264.183V267.608H757.037ZM768.983 270.537C767.921 270.537 767.08 270.312 766.459 269.861C765.848 269.42 765.498 268.775 765.408 267.923H766.579C766.639 268.424 766.87 268.815 767.27 269.095C767.681 269.385 768.252 269.531 768.983 269.531C769.754 269.531 770.345 269.335 770.755 268.945C771.166 268.554 771.371 267.993 771.371 267.262V266.136C771.191 266.476 770.866 266.752 770.395 266.962C769.934 267.162 769.413 267.262 768.833 267.262C768.051 267.262 767.386 267.097 766.835 266.767C766.284 266.436 765.863 265.986 765.573 265.415C765.292 264.844 765.152 264.203 765.152 263.492C765.152 262.771 765.292 262.125 765.573 261.554C765.863 260.983 766.279 260.533 766.82 260.202C767.37 259.862 768.031 259.691 768.803 259.691C769.333 259.691 769.834 259.807 770.305 260.037C770.775 260.267 771.131 260.563 771.371 260.923V259.812H772.528V267.172C772.528 268.254 772.217 269.085 771.597 269.666C770.986 270.247 770.114 270.537 768.983 270.537ZM768.908 266.226C769.679 266.226 770.295 265.981 770.755 265.49C771.226 264.989 771.461 264.323 771.461 263.492C771.461 262.661 771.226 261.995 770.755 261.494C770.295 260.983 769.679 260.728 768.908 260.728C768.137 260.728 767.516 260.983 767.045 261.494C766.584 261.995 766.354 262.661 766.354 263.492C766.354 264.323 766.584 264.989 767.045 265.49C767.516 265.981 768.137 266.226 768.908 266.226ZM774.552 267.608V256.657H775.709V261.359C776.01 260.838 776.395 260.433 776.866 260.142C777.336 259.842 777.862 259.691 778.443 259.691C778.984 259.691 779.459 259.807 779.87 260.037C780.291 260.257 780.616 260.573 780.846 260.983C781.087 261.394 781.207 261.875 781.207 262.425V267.608H780.05V262.606C780.05 262.065 779.885 261.619 779.555 261.269C779.234 260.918 778.789 260.743 778.218 260.743C777.467 260.743 776.861 261.053 776.4 261.674C775.939 262.285 775.709 263.121 775.709 264.183V267.608H774.552ZM785.266 267.728C784.495 267.728 783.864 267.528 783.374 267.127C782.883 266.727 782.638 266.191 782.638 265.52C782.638 264.849 782.868 264.313 783.329 263.913C783.789 263.502 784.43 263.247 785.251 263.146L787.114 262.906C787.625 262.826 787.88 262.586 787.88 262.185C787.88 261.754 787.71 261.399 787.369 261.119C787.029 260.838 786.548 260.698 785.927 260.698C785.367 260.698 784.906 260.833 784.545 261.103C784.185 261.364 783.98 261.749 783.93 262.26H782.743C782.823 261.479 783.148 260.858 783.719 260.397C784.29 259.927 785.026 259.691 785.927 259.691C786.548 259.691 787.089 259.807 787.55 260.037C788.02 260.257 788.386 260.563 788.646 260.953C788.907 261.344 789.037 261.789 789.037 262.29V266.061C789.037 266.311 789.087 266.476 789.187 266.556C789.297 266.626 789.432 266.661 789.593 266.661C789.673 266.661 789.753 266.651 789.833 266.631V267.608C789.763 267.618 789.683 267.633 789.593 267.653C789.513 267.673 789.422 267.683 789.322 267.683C788.922 267.683 788.591 267.573 788.331 267.352C788.081 267.132 787.95 266.772 787.94 266.271C787.73 266.712 787.38 267.067 786.889 267.337C786.398 267.598 785.857 267.728 785.266 267.728ZM785.402 266.737C786.193 266.737 786.804 266.501 787.234 266.031C787.675 265.55 787.895 264.899 787.895 264.078V263.687L785.402 264.078C784.35 264.248 783.824 264.724 783.824 265.505C783.824 265.885 783.97 266.186 784.26 266.406C784.56 266.626 784.941 266.737 785.402 266.737ZM791.1 267.608V259.812H792.256V261.359C792.447 260.858 792.737 260.458 793.128 260.157C793.528 259.847 794.029 259.691 794.63 259.691C795.281 259.691 795.841 259.837 796.312 260.127C796.783 260.418 797.083 260.828 797.213 261.359C797.434 260.868 797.764 260.468 798.205 260.157C798.646 259.847 799.146 259.691 799.707 259.691C800.538 259.691 801.199 259.932 801.69 260.412C802.181 260.893 802.426 261.554 802.426 262.395V267.608H801.269V262.606C801.269 262.045 801.114 261.594 800.804 261.254C800.493 260.903 800.053 260.728 799.482 260.728C798.791 260.728 798.26 261.013 797.889 261.584C797.519 262.145 797.334 262.856 797.334 263.717V267.608H796.177V262.606C796.177 262.045 796.022 261.594 795.711 261.254C795.411 260.903 794.98 260.728 794.419 260.728C793.718 260.728 793.183 261.013 792.812 261.584C792.442 262.145 792.256 262.856 792.256 263.717V267.608H791.1Z" fill="white"/>
<path fill-rule="evenodd" clip-rule="evenodd" d="M609.863 131.244C609.978 131.167 610.114 131.125 610.252 131.125C610.391 131.125 610.527 131.167 610.642 131.244L614.059 133.548C614.113 133.584 614.171 133.613 614.233 133.633C614.295 133.654 614.359 133.665 614.424 133.666L618.543 133.811C618.681 133.816 618.816 133.862 618.928 133.944C619.04 134.025 619.126 134.139 619.173 134.269L620.583 138.141C620.605 138.202 620.636 138.26 620.674 138.313C620.712 138.365 620.757 138.412 620.809 138.452L624.056 140.99C624.165 141.076 624.246 141.192 624.29 141.324C624.332 141.456 624.335 141.598 624.297 141.731L623.161 145.693C623.143 145.755 623.135 145.82 623.135 145.884C623.135 145.949 623.143 146.014 623.161 146.076L624.297 150.038C624.335 150.171 624.332 150.313 624.29 150.445C624.246 150.577 624.165 150.693 624.056 150.779L620.809 153.317C620.757 153.356 620.712 153.403 620.674 153.456C620.636 153.509 620.605 153.567 620.583 153.628L619.173 157.5C619.126 157.63 619.04 157.744 618.928 157.825C618.816 157.907 618.681 157.953 618.543 157.958L614.424 158.102C614.359 158.104 614.295 158.115 614.233 158.136C614.171 158.156 614.113 158.185 614.059 158.221L610.642 160.525C610.527 160.602 610.391 160.644 610.252 160.644C610.114 160.644 609.978 160.602 609.863 160.525L606.446 158.221C606.392 158.185 606.334 158.156 606.272 158.136C606.21 158.115 606.146 158.104 606.081 158.102L601.962 157.958C601.824 157.953 601.689 157.907 601.577 157.825C601.465 157.744 601.379 157.63 601.332 157.5L599.922 153.628C599.9 153.567 599.869 153.509 599.83 153.456C599.793 153.403 599.747 153.356 599.696 153.317L596.449 150.779C596.34 150.693 596.259 150.577 596.215 150.445C596.173 150.313 596.17 150.171 596.208 150.038L597.344 146.076C597.362 146.014 597.37 145.949 597.37 145.884C597.37 145.82 597.362 145.755 597.344 145.693L596.208 141.731C596.17 141.598 596.173 141.456 596.215 141.324C596.259 141.192 596.34 141.076 596.449 140.99L599.696 138.452C599.747 138.412 599.793 138.365 599.83 138.313C599.869 138.26 599.9 138.202 599.922 138.141L601.332 134.269C601.379 134.139 601.465 134.025 601.577 133.944C601.689 133.862 601.824 133.816 601.962 133.811L606.081 133.666C606.146 133.665 606.21 133.654 606.272 133.633C606.334 133.613 606.392 133.584 606.446 133.548L609.863 131.244Z" fill="#2781C8"/>
<path fill-rule="evenodd" clip-rule="evenodd" d="M609.682 137.831C609.78 137.603 610.006 137.455 610.254 137.455C610.502 137.455 610.727 137.603 610.826 137.831L612.654 142.041C612.698 142.142 612.769 142.231 612.859 142.296C612.949 142.362 613.055 142.402 613.167 142.413L617.735 142.85C617.982 142.874 618.192 143.042 618.269 143.279C618.346 143.515 618.275 143.774 618.089 143.939L614.65 146.978C614.566 147.051 614.503 147.146 614.469 147.253C614.435 147.359 614.43 147.472 614.454 147.581L615.45 152.06C615.503 152.303 615.408 152.555 615.207 152.701C615.006 152.847 614.738 152.86 614.524 152.734L610.571 150.402C610.475 150.346 610.365 150.315 610.254 150.315C610.142 150.315 610.032 150.346 609.936 150.402L605.984 152.734C605.77 152.86 605.501 152.847 605.3 152.701C605.099 152.555 605.004 152.303 605.057 152.06L606.054 147.581C606.078 147.472 606.072 147.359 606.038 147.253C606.004 147.146 605.941 147.051 605.857 146.978L602.418 143.939C602.232 143.774 602.162 143.515 602.238 143.279C602.315 143.042 602.525 142.874 602.772 142.85L607.341 142.413C607.452 142.402 607.558 142.362 607.649 142.296C607.738 142.231 607.809 142.142 607.853 142.041L609.682 137.831Z" fill="#F4F4F1"/>
<path fill-rule="evenodd" clip-rule="evenodd" d="M606.564 112.675H613.943V126.737L610.254 131.124L606.564 126.737V112.675Z" fill="#2781C8"/>
<path fill-rule="evenodd" clip-rule="evenodd" d="M613.943 112.675H621.322V121.421L617.632 125.809L613.943 126.737V112.675Z" fill="#F4F4F1"/>
<path fill-rule="evenodd" clip-rule="evenodd" d="M606.563 112.675H599.183V121.421L602.873 125.809L606.563 126.737V112.675Z" fill="#F4F4F1"/>
</svg>
