<svg width="56" height="56" viewBox="0 0 56 56" fill="none" xmlns="http://www.w3.org/2000/svg">
<g clip-path="url(#clip0_2_1697)">
<path d="M55.6667 23.6628C55.5779 24.4782 55.1449 25.9907 54.7552 27.128C54.7526 27.1357 54.7497 27.1436 54.7468 27.1514L49.238 41.852C48.3071 44.304 47.0492 45.5113 46.0384 46.4813C45.8352 46.6763 45.6433 46.8605 45.4661 47.0433C45.0801 47.4415 44.7165 47.7896 44.3649 48.1263C42.6344 49.7837 41.4911 50.8785 41.0763 54.8869C41.0297 55.337 40.6498 55.672 40.207 55.672C40.1769 55.672 40.1465 55.6704 40.1159 55.6672C39.6352 55.6175 39.2859 55.1875 39.3356 54.7069C39.8165 50.0593 41.2896 48.6486 43.1546 46.8625C43.4946 46.5368 43.8462 46.2 44.2097 45.8253C44.4088 45.6199 44.6118 45.4251 44.8268 45.2188C45.7568 44.3262 46.8111 43.3145 47.6008 41.2344L53.1039 26.5489C53.4639 25.4967 53.7811 24.3468 53.8933 23.7046C53.7517 23.4487 53.5114 23.1634 53.1436 23.1601H53.1368C52.471 23.1601 51.3061 24.0573 50.2025 26.5906C48.9959 29.3601 47.2162 32.8546 46.0625 34.7188C46.044 34.7487 46.0237 34.7766 46.0022 34.8035C46.0491 35.0096 46.0748 35.2227 46.0782 35.4418C46.1165 37.959 43.3626 40.6983 40.7782 43.0684C40.5228 43.3027 40.3022 43.5049 40.1311 43.6687C39.7823 44.0033 39.2284 43.9914 38.894 43.6425C38.5596 43.2937 38.5714 42.7397 38.9203 42.4054C39.1052 42.2281 39.3323 42.0198 39.5954 41.7786C41.1412 40.361 44.3579 37.411 44.3283 35.4685C44.3221 35.0661 44.1609 34.742 43.8207 34.4487C43.2174 33.9284 42.3793 34.1866 41.3297 35.2166C38.9865 37.5164 36.7407 39.4165 33.8784 41.7349C30.2828 44.8753 30.571 50.5835 30.7814 54.7528C30.8058 55.2355 30.4342 55.6465 29.9517 55.6709C29.9367 55.6717 29.9217 55.672 29.9068 55.672C29.4439 55.672 29.0572 55.3088 29.0337 54.8411C28.9031 52.2534 28.8195 49.7277 29.226 47.2786C29.7241 44.2776 30.8738 42.0292 32.7411 40.4048C32.7488 40.398 32.7567 40.3913 32.7647 40.3849C35.5927 38.0946 37.807 36.2221 40.104 33.9676C42.5689 31.5487 44.3237 32.5714 44.9636 33.1234C44.9667 33.126 44.9695 33.1288 44.9727 33.1316C46.0727 31.2382 47.5525 28.2916 48.5979 25.8917C50.2927 22.0013 52.1605 21.4101 53.1373 21.4101H53.1592C54.2219 21.4197 55.1363 22.1012 55.6052 23.2332C55.6614 23.369 55.6825 23.5167 55.6666 23.6627L55.6667 23.6628ZM24.3449 23.975V21.9618C24.3449 21.4786 23.9531 21.0868 23.4699 21.0868C22.9867 21.0868 22.5949 21.4786 22.5949 21.9618V23.975C22.5949 25.8293 24.1036 27.3381 25.9581 27.3381H33.0223L37.4131 32.6224C37.5827 32.8264 37.8312 32.9383 38.0863 32.9383C38.1858 32.9383 38.2863 32.9213 38.3834 32.8862C38.7301 32.7609 38.9611 32.4319 38.9611 32.0633V27.3381H41.3204C43.1749 27.3381 44.6836 25.8293 44.6836 23.975V11.7587C44.6836 9.90424 43.1749 8.39552 41.3204 8.39552H36.2452C35.762 8.39552 35.3702 8.7873 35.3702 9.27052C35.3702 9.75374 35.762 10.1455 36.2452 10.1455H41.3204C42.2099 10.1455 42.9336 10.8691 42.9336 11.7587V23.975C42.9336 24.8644 42.21 25.5881 41.3204 25.5881H38.0861C37.6029 25.5881 37.2111 25.9798 37.2111 26.4631V29.6412L34.1059 25.9039C33.9396 25.7039 33.6931 25.5881 33.4329 25.5881H25.9581C25.0686 25.5881 24.3449 24.8644 24.3449 23.975ZM11.3165 15.9076V3.6913C11.3165 1.83684 12.8252 0.328125 14.6797 0.328125H30.042C31.8965 0.328125 33.4052 1.83684 33.4052 3.6913V15.9076C33.4052 17.7621 31.8965 19.2708 30.042 19.2708H22.9779L18.5871 24.5551C18.4175 24.7591 18.169 24.871 17.9139 24.871C17.8143 24.871 17.7139 24.8541 17.6168 24.8189C17.2701 24.6936 17.0391 24.3646 17.0391 23.996V19.2708H14.6798C12.8253 19.2708 11.3166 17.7621 11.3166 15.9076H11.3165ZM13.0665 15.9076C13.0665 16.7971 13.7901 17.5208 14.6797 17.5208H17.914C18.3972 17.5208 18.789 17.9126 18.789 18.3958V21.5739L21.8944 17.8367C22.0606 17.6366 22.3071 17.5208 22.5673 17.5208H30.042C30.9316 17.5208 31.6552 16.7972 31.6552 15.9076V3.6913C31.6552 2.80175 30.9316 2.07813 30.042 2.07813H14.6797C13.7901 2.07813 13.0665 2.80175 13.0665 3.6913V15.9076ZM27.549 11.1832C28.3132 11.1832 28.9327 10.5637 28.9327 9.79946C28.9327 9.03525 28.3132 8.41564 27.549 8.41564C26.7848 8.41564 26.1652 9.03514 26.1652 9.79946C26.1652 10.5638 26.7847 11.1832 27.549 11.1832ZM17.1727 11.1832C17.9369 11.1832 18.5564 10.5637 18.5564 9.79946C18.5564 9.03525 17.9369 8.41564 17.1727 8.41564C16.4085 8.41564 15.789 9.03514 15.789 9.79946C15.789 10.5638 16.4085 11.1832 17.1727 11.1832ZM22.3609 11.1832C23.1252 11.1832 23.7446 10.5637 23.7446 9.79946C23.7446 9.03525 23.1252 8.41564 22.3609 8.41564C21.5967 8.41564 20.9771 9.03514 20.9771 9.79946C20.9771 10.5638 21.5966 11.1832 22.3609 11.1832ZM23.259 33.711C23.2513 33.7042 23.2434 33.6977 23.2354 33.6911C20.4074 31.4008 18.1932 29.5283 15.8961 27.274C13.4314 24.8547 11.6764 25.8777 11.0365 26.4297C11.0334 26.4323 11.0306 26.4352 11.0275 26.4378C9.92774 24.5447 8.44779 21.5982 7.40217 19.1979C5.70729 15.3073 3.83949 14.7163 2.86277 14.7163C2.85545 14.7163 2.84812 14.7163 2.8409 14.7163C1.77821 14.7259 0.863728 15.4075 0.394837 16.5396C0.338618 16.6753 0.317509 16.8231 0.333368 16.9691C0.422181 17.7844 0.855196 19.2968 1.2449 20.4342C1.24752 20.442 1.25037 20.4498 1.25332 20.4576L6.76342 35.1618C7.6931 37.6102 8.95092 38.8175 9.96176 39.7876C10.165 39.9826 10.3569 40.1669 10.534 40.3495C10.92 40.7477 11.2836 41.0958 11.6351 41.4325C13.3657 43.0899 14.509 44.1849 14.9238 48.1931C14.9704 48.6432 15.3502 48.9782 15.7931 48.9782C15.8232 48.9782 15.8536 48.9766 15.8842 48.9734C16.3649 48.9238 16.7142 48.4937 16.6645 48.0131C16.1836 43.3656 14.7105 41.9548 12.8454 40.1687C12.5054 39.843 12.1537 39.5063 11.7904 39.1315C11.5913 38.9261 11.3883 38.7313 11.1734 38.5251C10.2434 37.6324 9.18913 36.6207 8.40076 34.5442L2.89635 19.8555C2.53629 18.8032 2.21899 17.6531 2.10677 17.011C2.24841 16.7551 2.48871 16.4698 2.85654 16.4664H2.86321C3.52909 16.4664 4.69404 17.3638 5.79763 19.8971C7.00426 22.6669 8.78412 26.1612 9.93759 28.0252C9.95607 28.055 9.97642 28.0829 9.99785 28.1097C9.95104 28.3159 9.92534 28.5289 9.92195 28.748C9.88356 31.2653 12.6375 34.0046 15.2219 36.3746C15.4773 36.6089 15.6979 36.8111 15.869 36.975C16.2178 37.3095 16.7717 37.2976 17.1061 36.9487C17.4405 36.5999 17.4287 36.046 17.0798 35.7116C16.8949 35.5343 16.6678 35.3261 16.4047 35.0849C14.8588 33.6672 11.6422 30.7172 11.6718 28.7748C11.678 28.3724 11.8392 28.0483 12.1794 27.755C12.7829 27.2348 13.621 27.4929 14.6704 28.5229C17.0137 30.8228 19.2596 32.7228 22.1219 35.0412C25.7176 38.1818 25.4291 43.8898 25.2186 48.0591C25.1942 48.5417 25.5657 48.9526 26.0483 48.9771C26.0633 48.9779 26.0783 48.9782 26.0932 48.9782C26.5561 48.9782 26.9427 48.615 26.9663 48.1473C27.0969 45.5597 27.1804 43.0341 26.774 40.5849C26.2759 37.5839 25.1262 35.3356 23.2589 33.711H23.259Z" fill="#0E2F49"/>
</g>
<defs>
<clipPath id="clip0_2_1697">
<rect width="56" height="56" fill="white"/>
</clipPath>
</defs>
</svg>
