<svg width="56" height="56" viewBox="0 0 56 56" fill="none" xmlns="http://www.w3.org/2000/svg">
<path d="M45.4442 31.8719L49.0905 22.0937C50.0187 19.9334 51.8955 20.3349 51.8955 20.3349C53.3481 20.6007 54.1298 21.7911 53.9642 23.1244L50.6194 36.5703C49.7555 40.0247 47.3472 43.3933 44.5435 45.5703L38.7644 49.7051V52.1434C38.7644 52.7268 38.2914 53.1997 37.708 53.1997H28.0163V47.0705C28.0163 47.0705 27.3847 40.0902 34.0172 36.0591L41.946 30.9698C42.3475 30.7113 42.8028 30.5849 43.2543 30.5849C43.8811 30.5849 44.5019 30.828 44.9703 31.2963C45.8985 32.2257 45.9176 33.7271 45.012 34.6792L39.6725 38.8903" stroke="#0E2F49" stroke-width="1.50906" stroke-miterlimit="10" stroke-linecap="round" stroke-linejoin="round"/>
<path d="M16.3276 38.8903L10.9881 34.6792C10.0825 33.7271 10.1015 32.2257 11.0298 31.2963C11.4981 30.828 12.1189 30.5849 12.7457 30.5849C13.1973 30.5849 13.6525 30.7113 14.0541 30.9698L21.9829 36.0591C28.6153 40.0902 27.9838 47.0705 27.9838 47.0705V53.1997H18.2921C17.7087 53.1997 17.2357 52.7268 17.2357 52.1434V49.7051L11.4566 45.5703C8.65274 43.3933 6.24459 40.0247 5.38072 36.5703L2.0357 23.1244C1.87007 21.791 2.65176 20.6006 4.10434 20.3349C4.10434 20.3349 5.98104 19.9334 6.90935 22.0937L10.5556 31.8719" stroke="#0E2F49" stroke-width="1.50906" stroke-miterlimit="10" stroke-linecap="round" stroke-linejoin="round"/>
<path d="M23.1959 30.1418H21.8587C21.2753 30.1418 20.8024 29.6689 20.8024 29.0855V23.4218C20.8024 21.1299 22.6604 19.272 24.9522 19.272H31.0477C33.3397 19.272 35.1976 21.13 35.1976 23.4218V29.0855C35.1976 29.6689 34.7246 30.1418 34.1412 30.1418H32.8212" stroke="#0E2F49" stroke-width="1.50906" stroke-miterlimit="10" stroke-linecap="round" stroke-linejoin="round"/>
<path d="M27.9998 19.2709C30.705 19.2709 32.898 17.0779 32.898 14.3728C32.898 11.6676 30.705 9.47461 27.9998 9.47461C25.2947 9.47461 23.1017 11.6676 23.1017 14.3728C23.1017 17.0779 25.2947 19.2709 27.9998 19.2709Z" stroke="#0E2F49" stroke-width="1.50906" stroke-miterlimit="10" stroke-linecap="round" stroke-linejoin="round"/>
<path d="M33.0425 12.5974H39.3768C41.6688 12.5974 43.5267 14.4554 43.5267 16.7473V22.3411C43.5267 22.9629 43.0226 23.4669 42.4009 23.4669H35.1914" stroke="#0E2F49" stroke-width="1.50906" stroke-miterlimit="10" stroke-linecap="round" stroke-linejoin="round"/>
<path d="M36.3294 12.5964C39.0346 12.5964 41.2276 10.4034 41.2276 7.6982C41.2276 4.99303 39.0346 2.80005 36.3294 2.80005C33.6243 2.80005 31.4313 4.99303 31.4313 7.6982C31.4313 10.4034 33.6243 12.5964 36.3294 12.5964Z" stroke="#0E2F49" stroke-width="1.50906" stroke-miterlimit="10" stroke-linecap="round" stroke-linejoin="round"/>
<path d="M20.8084 23.4669H13.5989C12.9771 23.4669 12.4731 22.9629 12.4731 22.3411V16.7473C12.4731 14.4553 14.3311 12.5974 16.623 12.5974H23.1019" stroke="#0E2F49" stroke-width="1.50906" stroke-miterlimit="10" stroke-linecap="round" stroke-linejoin="round"/>
<path d="M19.6703 12.5964C22.3754 12.5964 24.5684 10.4034 24.5684 7.6982C24.5684 4.99303 22.3754 2.80005 19.6703 2.80005C16.9651 2.80005 14.7721 4.99303 14.7721 7.6982C14.7721 10.4034 16.9651 12.5964 19.6703 12.5964Z" stroke="#0E2F49" stroke-width="1.50906" stroke-miterlimit="10" stroke-linecap="round" stroke-linejoin="round"/>
<circle cx="27.9998" cy="30.142" r="1.05634" fill="#0E2F49"/>
</svg>
