<svg width="56" height="56" viewBox="0 0 56 56" fill="none" xmlns="http://www.w3.org/2000/svg">
<g clip-path="url(#clip0_2_1688)">
<path d="M52.8341 40.5282C52.514 40.5312 52.1959 40.5799 51.8896 40.6729L48.4839 41.8004L49.3901 40.5385C49.819 39.9527 50.0146 39.2283 49.939 38.5062C49.8634 37.7841 49.5219 37.116 48.9811 36.6317C48.4402 36.1474 47.7385 35.8815 47.0125 35.8858C46.2865 35.8901 45.588 36.1642 45.0529 36.6549L35.7467 45.6989L29.1125 43.2489C29.0538 43.2281 29.0047 43.1865 28.9745 43.132C28.9442 43.0775 28.9349 43.0139 28.9483 42.953L29.3477 40.8997C29.3556 40.8508 29.3774 40.8051 29.4105 40.7682C29.4436 40.7313 29.4866 40.7047 29.5344 40.6916L35.4872 39.6388C36.2125 39.4657 36.8496 39.0339 37.2791 38.4245C37.7086 37.815 37.901 37.0697 37.82 36.3285C37.739 35.5873 37.3902 34.9011 36.8392 34.3987C36.2882 33.8964 35.5728 33.6124 34.8273 33.6001L23.9363 34.2889C22.8349 34.3504 21.7658 34.6835 20.8245 35.2586L15.8415 38.2332C14.7172 38.8888 13.4346 39.2233 12.1333 39.2001H2.8C2.05739 39.2001 1.3452 39.4951 0.820101 40.0202C0.294999 40.5453 0 41.2575 0 42.0001L0 48.5334C0 49.276 0.294999 49.9882 0.820101 50.5133C1.3452 51.0384 2.05739 51.3334 2.8 51.3334H16.6796L33.7363 55.7994C34.2718 55.9324 34.8215 55.9997 35.3733 56.0001C36.4807 55.9994 37.5707 55.7252 38.5467 55.2021L54.2957 46.5772C54.9924 46.2026 55.5273 45.5852 55.7988 44.8423C56.0703 44.0993 56.0596 43.2826 55.7685 42.547C55.5354 41.957 55.1317 41.4499 54.6091 41.0903C54.0864 40.7307 53.4685 40.535 52.8341 40.5282ZM46.3428 38.0082C46.5349 37.8375 46.7837 37.7443 47.0407 37.7467C47.2977 37.7492 47.5446 37.847 47.7335 38.0213C47.9258 38.2003 48.0467 38.4431 48.0736 38.7045C48.1006 38.9659 48.0318 39.2282 47.88 39.4428L45.4692 42.7972L39.3185 44.8328L46.3428 38.0082ZM53.4137 44.9401L37.6637 53.5613C36.6019 54.1294 35.3667 54.2824 34.1983 53.9906L17.0361 49.4966C16.959 49.4768 16.8797 49.4668 16.8 49.4668H2.8C2.55246 49.4668 2.31507 49.3684 2.14003 49.1934C1.965 49.0184 1.86667 48.781 1.86667 48.5334V42.0001C1.86667 41.7526 1.965 41.5152 2.14003 41.3401C2.31507 41.1651 2.55246 41.0668 2.8 41.0668H12.1333C13.7724 41.0919 15.3869 40.6657 16.8 39.8348L21.7924 36.8546C22.475 36.4367 23.2509 36.1952 24.0501 36.1518L34.7032 35.4668H34.8273C35.0965 35.4709 35.356 35.568 35.5617 35.7417C35.7674 35.9154 35.9066 36.155 35.9557 36.4197C36.0187 36.7142 35.9677 37.0216 35.8128 37.2799C35.6579 37.5382 35.4108 37.7281 35.1213 37.8113L29.2021 38.8566C28.7865 38.9372 28.4044 39.1402 28.105 39.4395C27.8057 39.7389 27.6027 40.121 27.5221 40.5366L27.1217 42.5946C27.0223 43.0898 27.1028 43.6042 27.3486 44.0454C27.5944 44.4866 27.9895 44.8257 28.4629 45.0017L35.4629 47.5852C35.9021 47.7507 36.3839 47.7651 36.8321 47.6262L52.4477 42.4593C52.7622 42.355 53.1051 42.3777 53.403 42.5226C53.701 42.6675 53.9306 42.9231 54.0428 43.2349C54.1653 43.5463 54.1689 43.8918 54.0528 44.2056C53.9368 44.5194 53.7093 44.7796 53.4137 44.9364V44.9401Z" fill="#0E2F49"/>
<path d="M47.011 25.9466C47.3887 26.1203 47.8092 26.1792 48.2201 26.1158C48.631 26.0524 49.0142 25.8695 49.322 25.59L55.2729 20.2812C55.501 20.0792 55.6836 19.831 55.8087 19.5532C55.9338 19.2753 55.9985 18.9741 55.9985 18.6693C55.9985 18.3646 55.9338 18.0634 55.8087 17.7855C55.6836 17.5077 55.501 17.2595 55.2729 17.0575L49.3192 11.7477C49.0077 11.4728 48.6236 11.2937 48.2128 11.2318C47.802 11.1698 47.3821 11.2278 47.0035 11.3987C46.6249 11.5696 46.3036 11.8461 46.0783 12.1951C45.853 12.5441 45.7332 12.9507 45.7333 13.3661V14.9332H39.2C38.8865 14.9324 38.5737 14.9637 38.2666 15.0265V10.2665H39.8346C40.251 10.2679 40.6589 10.1487 41.009 9.92334C41.3591 9.69799 41.6365 9.37612 41.8077 8.99658C41.9789 8.61704 42.0366 8.19606 41.9739 7.78445C41.9111 7.37284 41.7305 6.9882 41.454 6.67695L36.147 0.728811C35.9394 0.510205 35.6895 0.336048 35.4125 0.216897C35.1355 0.0977459 34.8372 0.0360832 34.5357 0.0356469C34.2342 0.0352105 33.9357 0.0960096 33.6584 0.214358C33.3811 0.332707 33.1307 0.506141 32.9224 0.724145L27.6126 6.67881C27.3367 6.99012 27.1566 7.37459 27.0942 7.78589C27.0317 8.1972 27.0896 8.61778 27.2607 8.99696C27.4319 9.37614 27.709 9.69774 28.0588 9.923C28.4085 10.1483 28.816 10.2676 29.232 10.2665H30.8V15.0265C30.4929 14.9637 30.1801 14.9324 29.8666 14.9332H23.3333V13.3652C23.3344 12.9488 23.215 12.541 22.9895 12.191C22.7641 11.841 22.4421 11.5636 22.0626 11.3925C21.683 11.2213 21.2621 11.1636 20.8504 11.2263C20.4388 11.289 20.0541 11.4694 19.7428 11.7459L13.7937 17.0519C13.565 17.2537 13.3817 17.5018 13.256 17.7797C13.1304 18.0576 13.0651 18.3591 13.0647 18.6641C13.0643 18.9691 13.1286 19.2708 13.2535 19.5491C13.3783 19.8274 13.5609 20.076 13.789 20.2784L19.7428 25.5882C20.0543 25.8642 20.4389 26.0443 20.8504 26.1068C21.2619 26.1692 21.6826 26.1115 22.062 25.9403C22.4414 25.7692 22.7633 25.4921 22.9888 25.1423C23.2144 24.7925 23.334 24.385 23.3333 23.9688V22.3999H28C28.7426 22.3999 29.4548 22.6949 29.9799 23.22C30.505 23.7451 30.8 24.4573 30.8 25.1999V29.8666C30.8 30.3616 30.9966 30.8364 31.3467 31.1865C31.6968 31.5366 32.1716 31.7332 32.6666 31.7332H36.4C36.895 31.7332 37.3698 31.5366 37.7199 31.1865C38.07 30.8364 38.2666 30.3616 38.2666 29.8666V25.1999C38.2666 24.4573 38.5616 23.7451 39.0867 23.22C39.6118 22.6949 40.324 22.3999 41.0666 22.3999H45.7333V23.9679C45.7294 24.3865 45.8484 24.7971 46.0755 25.1488C46.3026 25.5005 46.6279 25.7779 47.011 25.9466ZM41.0666 20.5332C39.829 20.5332 38.642 21.0249 37.7668 21.9001C36.8916 22.7752 36.4 23.9622 36.4 25.1999V29.8666H32.6666V25.1999C32.6666 23.9622 32.175 22.7752 31.2998 21.9001C30.4246 21.0249 29.2376 20.5332 28 20.5332H22.4C22.1524 20.5332 21.915 20.6315 21.74 20.8066C21.565 20.9816 21.4666 21.219 21.4666 21.4665V23.9679C21.4684 24.026 21.4525 24.0832 21.421 24.1321C21.3895 24.1809 21.3439 24.219 21.2902 24.2414C21.2409 24.2658 21.1853 24.2745 21.1309 24.2663C21.0765 24.2581 21.0259 24.2335 20.986 24.1956L15.0266 18.8822C14.9956 18.8553 14.9707 18.8222 14.9537 18.7849C14.9366 18.7476 14.9278 18.7071 14.9278 18.6661C14.9278 18.6251 14.9366 18.5846 14.9537 18.5473C14.9707 18.51 14.9956 18.4768 15.0266 18.45L20.9804 13.1393C21.0205 13.1015 21.0713 13.0769 21.1258 13.0687C21.1804 13.0605 21.2361 13.0692 21.2856 13.0936C21.3395 13.1152 21.3853 13.1531 21.4167 13.2019C21.4482 13.2507 21.4637 13.3081 21.461 13.3661V15.8665C21.461 16.1141 21.5594 16.3515 21.7344 16.5265C21.9094 16.7015 22.1468 16.7999 22.3944 16.7999H29.861C30.353 16.8002 30.8361 16.9309 31.261 17.1788C31.4029 17.2607 31.5639 17.3039 31.7277 17.3039C31.8915 17.3039 32.0525 17.2607 32.1944 17.1788C32.3362 17.0969 32.4541 16.9791 32.536 16.8372C32.6179 16.6953 32.661 16.5344 32.661 16.3706V9.33321C32.661 9.08568 32.5627 8.84828 32.3877 8.67325C32.2126 8.49821 31.9752 8.39988 31.7277 8.39988H29.232C29.174 8.40251 29.1166 8.38703 29.0677 8.35559C29.0189 8.32415 28.9811 8.27831 28.9594 8.22441C28.9349 8.17514 28.9261 8.1195 28.9343 8.06506C28.9424 8.01061 28.9672 7.96002 29.0052 7.92015L34.3196 1.95988C34.4689 1.79188 34.594 1.78721 34.7508 1.95988L40.0614 7.91455C40.0994 7.95441 40.1242 8.00501 40.1323 8.05946C40.1405 8.1139 40.1317 8.16954 40.1072 8.21881C40.0865 8.27376 40.049 8.3208 40.0001 8.3533C39.9512 8.38579 39.8933 8.40209 39.8346 8.39988H37.3333C37.0858 8.39988 36.8484 8.49821 36.6733 8.67325C36.4983 8.84828 36.4 9.08568 36.4 9.33321V16.3696C36.4 16.5334 36.4431 16.6944 36.525 16.8363C36.6069 16.9782 36.7248 17.096 36.8666 17.1779C37.0085 17.2598 37.1695 17.3029 37.3333 17.3029C37.4971 17.3029 37.6581 17.2598 37.8 17.1779C38.225 16.9303 38.7081 16.7999 39.2 16.7999H46.6666C46.9142 16.7999 47.1516 16.7015 47.3266 16.5265C47.5016 16.3515 47.6 16.1141 47.6 15.8665V13.3652C47.5973 13.3072 47.6128 13.2498 47.6443 13.201C47.6757 13.1521 47.7215 13.1143 47.7754 13.0927C47.825 13.0686 47.8806 13.06 47.9351 13.0682C47.9896 13.0764 48.0403 13.1008 48.0806 13.1384L54.04 18.4528C54.0705 18.4796 54.095 18.5126 54.1118 18.5497C54.1285 18.5867 54.1372 18.6268 54.1372 18.6675C54.1372 18.7081 54.1285 18.7483 54.1118 18.7853C54.095 18.8223 54.0705 18.8553 54.04 18.8822L48.0862 24.1928C48.0463 24.2307 47.9957 24.2553 47.9413 24.2635C47.8869 24.2717 47.8313 24.263 47.782 24.2386C47.7279 24.2174 47.6815 24.1802 47.649 24.132C47.6165 24.0838 47.5994 24.0269 47.6 23.9688V21.4665C47.6 21.219 47.5016 20.9816 47.3266 20.8066C47.1516 20.6315 46.9142 20.5332 46.6666 20.5332H41.0666Z" fill="#0E2F49"/>
</g>
<defs>
<clipPath id="clip0_2_1688">
<rect width="56" height="56" fill="white"/>
</clipPath>
</defs>
</svg>
