<svg width="56" height="56" viewBox="0 0 56 56" fill="none" xmlns="http://www.w3.org/2000/svg">
<g clip-path="url(#clip0_2_1705)">
<path d="M51.7337 36.0357C51.2629 35.2495 49.3337 32.9131 44.2796 35.8565L35.5023 40.9689C35.1405 41.1796 34.7735 41.3384 34.3942 41.4466C34.5172 41.2135 34.617 40.9584 34.6907 40.6831C35.1526 38.9589 34.1294 37.1595 32.3614 36.5863C32.3239 36.5741 32.2857 36.5645 32.2468 36.5575C29.7322 36.1039 27.2465 35.2053 25.2494 34.4833C24.5535 34.2318 23.8963 33.9942 23.3366 33.8127C21.0536 33.072 18.9985 33.9837 17.2894 34.9733L10.8431 38.7055L10.2753 37.7021C9.99078 37.1995 9.52637 36.8374 8.96746 36.6825C8.40888 36.5276 7.82406 36.5991 7.32148 36.8834L4.8589 38.2772C3.81885 38.8659 3.45168 40.1908 4.04023 41.2309L11.2805 54.024C11.565 54.5266 12.0294 54.8888 12.5883 55.0436C12.7816 55.0972 12.9779 55.1237 13.1728 55.1237C13.5416 55.1237 13.9055 55.0289 14.2343 54.8428L16.6971 53.4489C17.7372 52.8603 18.1044 51.5353 17.5158 50.4953L16.8162 49.2592L18.1878 48.4675L29.3913 51.4694C30.0201 51.6379 30.6455 51.7217 31.2608 51.7216C32.5053 51.7216 33.7076 51.3789 34.8067 50.7023L50.7355 40.894C52.2297 39.9739 52.7055 37.6583 51.7337 36.0357ZM15.835 51.9259L13.3722 53.3198C13.243 53.3929 13.1185 53.3746 13.0556 53.3573C12.9928 53.3399 12.8765 53.2913 12.8035 53.1622L5.56317 40.369C5.45171 40.1721 5.52401 39.9116 5.72077 39.8003L8.18346 38.4065C8.25532 38.3658 8.32587 38.3534 8.38504 38.3534C8.43218 38.3534 8.47221 38.3613 8.5001 38.3691C8.56288 38.3865 8.67904 38.4349 8.75221 38.5641L15.9926 51.3571C16.1041 51.5541 16.0318 51.8145 15.835 51.9259ZM30.7998 43.0931L31.8915 43.2706C33.5468 43.5353 35.0159 43.2771 36.3829 42.4811L45.1603 37.3687C47.6355 35.9271 49.5316 35.7648 50.2324 36.9347C50.7122 37.7359 50.5029 38.9819 49.8176 39.4038L33.8889 49.2121C32.6491 49.9753 31.2884 50.1662 29.8441 49.779L18.2904 46.6832C18.0663 46.6234 17.8275 46.6547 17.6265 46.7706L15.9541 47.7361L11.7051 40.2285L18.1661 36.4876C19.6107 35.6512 21.1715 34.9497 22.7966 35.4771C23.3287 35.6497 23.943 35.8717 24.6542 36.1289C26.6968 36.8674 29.2348 37.7849 31.8721 38.2679C32.7368 38.5736 33.2204 39.4081 33.0001 40.23C32.71 41.3125 31.8019 41.4466 31.0779 41.364C29.791 41.099 28.5662 40.7495 27.2702 40.3794C26.6534 40.2033 26.0156 40.0211 25.3597 39.8453C24.8931 39.7205 24.4132 39.9973 24.2881 40.464C24.1629 40.9309 24.44 41.4106 24.9068 41.5357C25.5488 41.7078 26.1796 41.8879 26.7896 42.062C28.1313 42.4452 29.3985 42.8071 30.7648 43.0864M8.85076 40.7936C8.92098 41.2741 8.58848 41.7205 8.10788 41.7908C7.6274 41.861 7.18093 41.5285 7.11071 41.0479C7.04049 40.5674 7.37299 40.1209 7.85359 40.0507C8.33407 39.9805 8.78054 40.3131 8.85076 40.7936ZM21.7568 14.5413C22.1616 15.3308 22.3648 15.7269 22.4229 16.0564C22.481 16.3857 22.4255 16.8275 22.3153 17.7077C22.2875 17.9292 22.2565 18.1758 22.2234 18.453C22.0412 19.9773 22.8669 21.4076 24.2782 22.0122C24.5348 22.1221 24.7638 22.2185 24.9695 22.3053C25.0069 22.321 25.0425 22.3361 25.0783 22.3512L21.8261 29.3363C21.6885 29.6319 21.7266 29.9792 21.9249 30.238C22.1232 30.4967 22.4487 30.6239 22.7699 30.5676L26.3446 29.943L28.1678 33.0806C28.3249 33.3508 28.6136 33.5159 28.9242 33.5159C28.9375 33.5159 28.9508 33.5156 28.9641 33.515C29.2897 33.5003 29.5801 33.3057 29.7177 33.0103L32.9461 26.076L32.8823 26.0463C33.4351 25.8791 33.7612 25.795 34.0287 25.795C34.3631 25.795 34.7886 25.9262 35.6363 26.1879C35.7252 26.2153 35.8194 26.2443 35.9171 26.2744L38.247 31.6836C38.376 31.983 38.6606 32.1859 38.9856 32.2101C39.0074 32.2117 39.0292 32.2125 39.0508 32.2125C39.3518 32.2125 39.6338 32.0573 39.7942 31.7988L41.7076 28.7155L45.2625 29.4436C45.5818 29.509 45.9111 29.3915 46.1167 29.1387C46.3224 28.8858 46.3705 28.5397 46.2417 28.2403L43.5935 22.0917C43.6538 22.0661 43.7157 22.0396 43.7792 22.0124C45.1905 21.408 46.0163 19.9776 45.8341 18.4532C45.8009 18.176 45.7701 17.9294 45.7423 17.708C45.6318 16.8278 45.5765 16.386 45.6346 16.0566C45.6926 15.7272 45.8959 15.331 46.3005 14.5416C46.4024 14.343 46.5158 14.1218 46.6418 13.8728C47.3345 12.5027 47.0476 10.8761 45.9282 9.82559C45.7247 9.63452 45.5426 9.46553 45.3789 9.31372C44.7286 8.7103 44.4021 8.40755 44.2349 8.11781C44.0677 7.82819 43.9686 7.39408 43.7714 6.52925C43.7217 6.31159 43.6665 6.06922 43.6027 5.79742C43.2526 4.30259 41.9873 3.241 40.4544 3.1558C40.1758 3.14027 39.9276 3.12802 39.7047 3.11686C38.8186 3.07278 38.3739 3.05058 38.0596 2.93617C37.7452 2.82177 37.3903 2.55292 36.6833 2.0172C36.5054 1.88245 36.3073 1.73239 36.0838 1.56505C34.8548 0.644984 33.2032 0.644984 31.9742 1.56505C31.7507 1.73239 31.5526 1.88245 31.3747 2.0172C30.6676 2.55292 30.3128 2.82177 29.9984 2.93617C29.6841 3.05058 29.2395 3.07278 28.3533 3.11686C28.1304 3.12802 27.8821 3.14027 27.6035 3.1558C26.0707 3.24111 24.8054 4.3027 24.4553 5.79742C24.3916 6.06922 24.3364 6.31148 24.2866 6.52914C24.0893 7.39408 23.9903 7.82808 23.823 8.11781C23.6558 8.40744 23.3293 8.7103 22.679 9.31361C22.5154 9.46542 22.3332 9.63451 22.1297 9.82548C21.0102 10.8761 20.7234 12.5025 21.416 13.8727C21.5415 14.1216 21.655 14.3428 21.7568 14.5413ZM28.8387 30.7518L27.5514 28.5364C27.3673 28.2196 27.0056 28.0512 26.6442 28.1141L24.1202 28.5551L26.6151 23.1963C26.8216 23.4263 27.0521 23.7828 27.4324 24.3718C27.5534 24.5594 27.6883 24.7682 27.8411 25.0019C28.4902 25.9945 29.564 26.5573 30.6966 26.5573C30.7286 26.5573 30.761 26.5547 30.7931 26.5538L28.8387 30.7518ZM41.4611 26.8786C41.1022 26.8051 40.7353 26.963 40.5422 27.2744L39.1912 29.4515L37.9235 26.5083C38.8411 26.3543 39.6759 25.828 40.2161 25.0019C40.3689 24.7683 40.5037 24.5596 40.6247 24.372C41.106 23.6268 41.3475 23.2527 41.6038 23.0377C41.7037 22.9538 41.8278 22.8761 41.9899 22.7923L43.9712 27.3926L41.4611 26.8786ZM23.3269 11.1013C23.5277 10.9129 23.7074 10.7461 23.8689 10.5964C25.4221 9.15556 25.5213 8.98363 25.9926 6.91819C26.0416 6.70348 26.096 6.4645 26.1589 6.19631C26.333 5.453 26.9382 4.94528 27.7004 4.90284C27.9754 4.88753 28.2202 4.87539 28.4401 4.86434C30.5561 4.75902 30.7426 4.69109 32.4312 3.41173C32.6067 3.27873 32.8022 3.13064 33.0227 2.96559C33.3283 2.73678 33.6786 2.62248 34.0289 2.62248C34.3791 2.62248 34.7293 2.73678 35.035 2.96559C35.2555 3.13053 35.451 3.27863 35.6264 3.41162C37.3151 4.69098 37.5015 4.7588 39.6175 4.86423C39.8375 4.87517 40.0822 4.88731 40.3572 4.90273C41.1196 4.94517 41.7246 5.45289 41.8987 6.1962C41.9615 6.46439 42.0161 6.70348 42.0651 6.91819C42.5363 8.98352 42.6355 9.15545 44.1887 10.5962C44.3502 10.746 44.5299 10.9128 44.7307 11.1012C45.2874 11.6237 45.4246 12.4016 45.08 13.083C44.9558 13.3288 44.8439 13.547 44.7435 13.7429C43.7768 15.628 43.7424 15.8235 44.006 17.9256C44.0333 18.144 44.0638 18.3872 44.0965 18.6607C44.1872 19.4188 43.7922 20.1028 43.0904 20.4034C42.8373 20.5117 42.6113 20.607 42.4083 20.6925C40.4561 21.5153 40.3041 21.6428 39.1547 23.4225C39.0353 23.6075 38.9023 23.8135 38.7516 24.0439C38.3338 24.6828 37.5917 24.9529 36.8606 24.7322C36.597 24.6525 36.3627 24.5803 36.1524 24.5153C34.1282 23.8908 33.9297 23.8907 31.905 24.5153C31.6947 24.5803 31.4604 24.6525 31.1968 24.7322C30.4662 24.953 29.7237 24.6829 29.3059 24.0439C29.1551 23.8135 29.022 23.6074 28.9026 23.4224C27.7534 21.6428 27.6014 21.5152 25.649 20.6925C25.4461 20.607 25.2203 20.5119 24.9671 20.4034C24.2652 20.1028 23.8702 19.4188 23.9609 18.6606C23.9936 18.3871 24.0241 18.1438 24.0516 17.9254C24.3152 15.8233 24.2807 15.6279 23.314 13.7426C23.2136 13.5467 23.1017 13.3287 22.9774 13.0829C22.633 12.4017 22.7702 11.6238 23.3269 11.1013ZM34.0286 21.7387C38.4526 21.7387 42.0518 18.1395 42.0518 13.7155C42.0518 9.29151 38.4526 5.69242 34.0286 5.69242C29.6046 5.69242 26.0055 9.29162 26.0055 13.7155C26.0055 18.1395 29.6047 21.7387 34.0286 21.7387ZM34.0286 7.44231C37.4875 7.44231 40.3018 10.2564 40.3018 13.7154C40.3018 17.1744 37.4877 19.9886 34.0286 19.9886C30.5695 19.9886 27.7555 17.1745 27.7555 13.7154C27.7555 10.2563 30.5696 7.44231 34.0286 7.44231ZM31.8011 16.8161L29.5493 14.5642C29.2075 14.2225 29.2076 13.6685 29.5493 13.3268C29.8911 12.985 30.4452 12.9851 30.7867 13.3268L32.4491 14.9893L37.3012 10.5859C37.659 10.261 38.2124 10.2879 38.5372 10.6458C38.8619 11.0037 38.8351 11.5571 38.4773 11.8818L33.0079 16.8454C32.8406 16.9971 32.6301 17.0725 32.42 17.0725C32.1955 17.0723 31.9715 16.9865 31.8011 16.8161Z" fill="#0E2F49"/>
</g>
<defs>
<clipPath id="clip0_2_1705">
<rect width="56" height="56" fill="white"/>
</clipPath>
</defs>
</svg>
