<svg width="80" height="80" viewBox="0 0 80 80" fill="none" xmlns="http://www.w3.org/2000/svg">
<g clip-path="url(#clip0_2_1237)">
<path d="M79.5239 33.8041C79.397 34.9689 78.7784 37.1295 78.2217 38.7542C78.218 38.7653 78.2139 38.7766 78.2097 38.7877L70.34 59.7886C69.0102 63.2914 67.2131 65.0161 65.7692 66.4019C65.4789 66.6805 65.2047 66.9436 64.9516 67.2047C64.4002 67.7736 63.8808 68.2708 63.3784 68.7519C60.9062 71.1195 59.273 72.6836 58.6805 78.4098C58.6139 79.0528 58.0711 79.5314 57.4386 79.5314C57.3956 79.5314 57.3522 79.5291 57.3084 79.5245C56.6217 79.4536 56.1227 78.8392 56.1937 78.1527C56.8808 71.5133 58.9852 69.498 61.6494 66.9464C62.1352 66.4811 62.6375 66 63.1567 65.4647C63.4411 65.1712 63.7311 64.893 64.0383 64.5983C65.3669 63.3231 66.873 61.8778 68.0011 58.9062L75.8627 37.927C76.377 36.4239 76.8302 34.7811 76.9905 33.8638C76.7881 33.4981 76.4448 33.0906 75.9194 33.0858H75.9097C74.9586 33.0858 73.2944 34.3675 71.7178 37.9866C69.9942 41.943 67.4517 46.9352 65.8036 49.5983C65.7772 49.6409 65.7481 49.6808 65.7175 49.7192C65.7844 50.0138 65.8211 50.3181 65.8259 50.6311C65.8808 54.2272 61.9466 58.1405 58.2545 61.5263C57.8897 61.8609 57.5745 62.1498 57.3302 62.3839C56.8319 62.8619 56.0406 62.8448 55.5628 62.3464C55.0852 61.8481 55.102 61.0567 55.6005 60.5791C55.8645 60.3258 56.1891 60.0283 56.5648 59.6838C58.7731 57.6586 63.3684 53.4442 63.3261 50.6692C63.3173 50.0944 63.087 49.6314 62.6009 49.2123C61.7392 48.4691 60.5419 48.838 59.0425 50.3094C55.695 53.5948 52.4867 56.3092 48.3977 59.6212C43.2611 64.1075 43.6728 72.2622 43.9734 78.2183C44.0083 78.9078 43.4775 79.495 42.7881 79.5298C42.7667 79.5309 42.7453 79.5314 42.7241 79.5314C42.0627 79.5314 41.5103 79.0125 41.4767 78.3444C41.2902 74.6477 41.1708 71.0395 41.7514 67.5408C42.463 63.2537 44.1055 60.0417 46.773 57.7211C46.7841 57.7114 46.7953 57.7019 46.8067 57.6927C50.8467 54.4208 54.01 51.7458 57.2914 48.5252C60.8127 45.0695 63.3195 46.5306 64.2337 47.3191C64.2381 47.3228 64.2422 47.3269 64.2467 47.3308C65.8181 44.6259 67.9322 40.4166 69.4256 36.9881C71.8467 31.4305 74.515 30.5858 75.9105 30.5858H75.9417C77.4598 30.5995 78.7661 31.5731 79.4359 33.1903C79.5163 33.3842 79.5464 33.5953 79.5237 33.8039L79.5239 33.8041ZM34.7784 34.25V31.3741C34.7784 30.6838 34.2188 30.1241 33.5284 30.1241C32.8381 30.1241 32.2784 30.6838 32.2784 31.3741V34.25C32.2784 36.8991 34.4338 39.0544 37.083 39.0544H47.1747L53.4473 46.6034C53.6895 46.8948 54.0445 47.0547 54.4091 47.0547C54.5511 47.0547 54.6947 47.0305 54.8334 46.9803C55.3287 46.8013 55.6587 46.3312 55.6587 45.8047V39.0544H59.0292C61.6784 39.0544 63.8337 36.8991 63.8337 34.25V16.7981C63.8337 14.1489 61.6784 11.9936 59.0292 11.9936H51.7789C51.0886 11.9936 50.5289 12.5533 50.5289 13.2436C50.5289 13.9339 51.0886 14.4936 51.7789 14.4936H59.0292C60.2998 14.4936 61.3337 15.5273 61.3337 16.7981V34.25C61.3337 35.5206 60.3 36.5544 59.0292 36.5544H54.4087C53.7184 36.5544 53.1587 37.1141 53.1587 37.8044V42.3445L48.7227 37.0056C48.4852 36.7198 48.133 36.5544 47.7612 36.5544H37.083C35.8123 36.5544 34.7784 35.5206 34.7784 34.25ZM16.1664 22.7252V5.27328C16.1664 2.62406 18.3217 0.46875 20.9709 0.46875H42.9172C45.5664 0.46875 47.7217 2.62406 47.7217 5.27328V22.7252C47.7217 25.3744 45.5664 27.5297 42.9172 27.5297H32.8256L26.553 35.0788C26.3108 35.3702 25.9558 35.53 25.5912 35.53C25.4491 35.53 25.3056 35.5058 25.1669 35.4556C24.6716 35.2766 24.3416 34.8066 24.3416 34.28V27.5297H20.9711C18.3219 27.5297 16.1666 25.3744 16.1666 22.7252H16.1664ZM18.6664 22.7252C18.6664 23.9958 19.7002 25.0297 20.9709 25.0297H25.5914C26.2817 25.0297 26.8414 25.5894 26.8414 26.2797V30.8198L31.2777 25.4809C31.5152 25.1952 31.8673 25.0297 32.2391 25.0297H42.9172C44.188 25.0297 45.2217 23.9959 45.2217 22.7252V5.27328C45.2217 4.0025 44.188 2.96875 42.9172 2.96875H20.9709C19.7002 2.96875 18.6664 4.0025 18.6664 5.27328V22.7252ZM39.3558 15.9759C40.4475 15.9759 41.3325 15.0909 41.3325 13.9992C41.3325 12.9075 40.4475 12.0223 39.3558 12.0223C38.2641 12.0223 37.3789 12.9073 37.3789 13.9992C37.3789 15.0911 38.2639 15.9759 39.3558 15.9759ZM24.5325 15.9759C25.6242 15.9759 26.5092 15.0909 26.5092 13.9992C26.5092 12.9075 25.6242 12.0223 24.5325 12.0223C23.4408 12.0223 22.5558 12.9073 22.5558 13.9992C22.5558 15.0911 23.4408 15.9759 24.5325 15.9759ZM31.9442 15.9759C33.0359 15.9759 33.9209 15.0909 33.9209 13.9992C33.9209 12.9075 33.0359 12.0223 31.9442 12.0223C30.8525 12.0223 29.9673 12.9073 29.9673 13.9992C29.9673 15.0911 30.8523 15.9759 31.9442 15.9759ZM33.2272 48.1586C33.2161 48.1489 33.2048 48.1395 33.1934 48.1302C29.1534 44.8583 25.9903 42.1833 22.7087 38.9628C19.1877 35.5067 16.6806 36.9681 15.7664 37.7567C15.762 37.7605 15.758 37.7645 15.7536 37.7683C14.1825 35.0639 12.0683 30.8545 10.5745 27.4256C8.15328 21.8675 5.485 21.0233 4.08969 21.0233C4.07922 21.0233 4.06875 21.0233 4.05844 21.0233C2.54031 21.037 1.23391 22.0108 0.564062 23.628C0.483749 23.8219 0.453593 24.033 0.476249 24.2416C0.603124 25.4062 1.22172 27.5669 1.77844 29.1917C1.78219 29.2028 1.78625 29.2141 1.79047 29.2252L9.66203 50.2311C10.9902 53.7289 12.787 55.4536 14.2311 56.8394C14.5214 57.118 14.7956 57.3813 15.0486 57.6422C15.6 58.2109 16.1194 58.7083 16.6216 59.1892C19.0939 61.557 20.7272 63.1212 21.3197 68.8473C21.3862 69.4903 21.9289 69.9689 22.5616 69.9689C22.6045 69.9689 22.648 69.9666 22.6917 69.962C23.3784 69.8911 23.8775 69.2767 23.8064 68.5902C23.1194 61.9508 21.015 59.9355 18.3506 57.3839C17.8648 56.9186 17.3625 56.4375 16.8434 55.9022C16.5591 55.6087 16.2691 55.3305 15.962 55.0358C14.6334 53.7606 13.1273 52.3153 12.0011 49.3489L4.13766 28.365C3.62328 26.8617 3.17 25.2188 3.00969 24.3014C3.21203 23.9358 3.55531 23.5283 4.08078 23.5234H4.09031C5.04156 23.5234 6.70578 24.8055 8.28234 28.4244C10.0061 32.3813 12.5487 37.3731 14.1966 40.0359C14.223 40.0786 14.252 40.1184 14.2827 40.1567C14.2158 40.4512 14.1791 40.7556 14.1742 41.0686C14.1194 44.6647 18.0536 48.578 21.7456 51.9637C22.1105 52.2984 22.4256 52.5873 22.67 52.8214C23.1683 53.2992 23.9595 53.2823 24.4373 52.7839C24.915 52.2856 24.8981 51.4942 24.3997 51.0166C24.1356 50.7633 23.8111 50.4658 23.4353 50.1213C21.2269 48.0959 16.6317 43.8817 16.6741 41.1069C16.6828 40.532 16.9131 40.0691 17.3992 39.65C18.2612 38.9069 19.4586 39.2756 20.9577 40.747C24.3053 44.0325 27.5138 46.7469 31.6027 50.0589C36.7394 54.5455 36.3273 62.6997 36.0266 68.6558C35.9917 69.3453 36.5225 69.9323 37.2119 69.9673C37.2333 69.9684 37.2547 69.9689 37.2759 69.9689C37.9373 69.9689 38.4895 69.45 38.5233 68.7819C38.7098 65.0853 38.8292 61.4773 38.2486 57.9784C37.537 53.6913 35.8945 50.4794 33.227 48.1586H33.2272Z" fill="#0E2F49"/>
</g>
<defs>
<clipPath id="clip0_2_1237">
<rect width="80" height="80" fill="white"/>
</clipPath>
</defs>
</svg>
