<svg width="80" height="80" viewBox="0 0 80 80" fill="none" xmlns="http://www.w3.org/2000/svg">
<path d="M73.9053 51.4805C73.2327 50.3574 70.4767 47.0197 63.2566 51.2246L50.7175 58.528C50.2006 58.8289 49.6764 59.0558 49.1345 59.2104C49.3103 58.8774 49.4528 58.513 49.5581 58.1197C50.218 55.6566 48.7563 53.086 46.2305 52.2671C46.177 52.2497 46.1224 52.236 46.0669 52.226C42.4745 51.578 38.9236 50.2943 36.0705 49.2629C35.0764 48.9035 34.1375 48.5641 33.338 48.3049C30.0766 47.2468 27.1406 48.5491 24.6991 49.9629L15.4902 55.2946L14.6789 53.8611C14.2725 53.1432 13.6091 52.6258 12.8106 52.4046C12.0127 52.1833 11.1772 52.2854 10.4592 52.6916L6.94127 54.6827C5.45549 55.5236 4.93095 57.4164 5.77174 58.9022L16.115 77.1782C16.5214 77.8961 17.1849 78.4135 17.9833 78.6347C18.2594 78.7113 18.5399 78.7491 18.8183 78.7491C19.3452 78.7491 19.865 78.6136 20.3347 78.3479L23.853 76.3566C25.3388 75.5157 25.8635 73.6229 25.0225 72.1371L24.0231 70.3713L25.9825 69.2402L41.9875 73.5286C42.8858 73.7694 43.7792 73.8891 44.6583 73.8889C46.4361 73.8889 48.1538 73.3994 49.7238 72.4329L72.4792 58.421C74.6138 57.1066 75.2936 53.7985 73.9053 51.4805ZM22.6214 74.1808L19.1031 76.1721C18.9186 76.2766 18.7406 76.2504 18.6508 76.2257C18.5611 76.2008 18.395 76.1314 18.2906 75.9469L7.94736 57.671C7.78814 57.3897 7.89142 57.0175 8.17252 56.8585L11.6906 54.8674C11.7933 54.8093 11.8941 54.7916 11.9786 54.7916C12.046 54.7916 12.1031 54.8029 12.143 54.8139C12.2327 54.8388 12.3986 54.908 12.5031 55.0925L22.8466 73.3683C23.0058 73.6497 22.9025 74.0218 22.6214 74.1808ZM43.9997 61.5625L45.5592 61.8161C47.9239 62.1943 50.0227 61.8254 51.9755 60.6883L64.5147 53.3849C68.0506 51.3254 70.7594 51.0935 71.7605 52.7649C72.446 53.9094 72.147 55.6894 71.168 56.2921L48.4127 70.3039C46.6416 71.3943 44.6977 71.6669 42.6344 71.1138L26.1291 66.6913C25.8089 66.6058 25.4678 66.6505 25.1806 66.8161L22.7916 68.1954L16.7216 57.4702L25.9516 52.1261C28.0153 50.9313 30.245 49.9291 32.5666 50.6825C33.3267 50.9291 34.2042 51.2463 35.2203 51.6136C38.1383 52.6686 41.7639 53.9794 45.5316 54.6694C46.7669 55.1061 47.4577 56.2983 47.143 57.4724C46.7286 59.0188 45.4313 59.2104 44.397 59.0924C42.5586 58.7138 40.8088 58.2146 38.9574 57.6858C38.0763 57.4343 37.1652 57.1739 36.2281 56.9229C35.5616 56.7446 34.876 57.14 34.6972 57.8068C34.5185 58.4736 34.9142 59.1589 35.5811 59.3377C36.4983 59.5835 37.3994 59.8408 38.2708 60.0896C40.1875 60.6369 41.9978 61.1539 43.9497 61.553M12.6439 58.2775C12.7442 58.9639 12.2692 59.6018 11.5827 59.7021C10.8963 59.8024 10.2585 59.3274 10.1581 58.6408C10.0578 57.9544 10.5328 57.3166 11.2194 57.2163C11.9058 57.116 12.5436 57.5911 12.6439 58.2775ZM31.0811 20.7743C31.6594 21.9021 31.9497 22.468 32.0327 22.9386C32.1156 23.4091 32.0364 24.0402 31.8789 25.2977C31.8392 25.6141 31.795 25.9664 31.7477 26.3624C31.4874 28.54 32.667 30.5833 34.6831 31.4469C35.0497 31.6039 35.3769 31.7418 35.6706 31.8657C35.7241 31.8882 35.775 31.9097 35.8261 31.9313L31.1802 41.91C30.9836 42.3322 31.038 42.8285 31.3213 43.1982C31.6045 43.5677 32.0695 43.7494 32.5285 43.6689L37.6352 42.7768L40.2397 47.2589C40.4641 47.645 40.8766 47.8808 41.3203 47.8808C41.3392 47.8808 41.3583 47.8804 41.3772 47.8796C41.8424 47.8585 42.2572 47.5805 42.4538 47.1585L47.0658 37.2524L46.9747 37.21C47.7644 36.9711 48.2303 36.851 48.6124 36.851C49.0902 36.851 49.698 37.0385 50.9089 37.4122C51.0359 37.4514 51.1705 37.4929 51.3102 37.5358L54.6386 45.2633C54.8228 45.691 55.2294 45.9808 55.6938 46.0154C55.7249 46.0177 55.756 46.0188 55.7869 46.0188C56.2169 46.0188 56.6197 45.7971 56.8488 45.4279L59.5822 41.0232L64.6606 42.0633C65.1169 42.1568 65.5872 41.9888 65.881 41.6277C66.1749 41.2664 66.2436 40.7719 66.0595 40.3443L62.2764 31.5605C62.3625 31.5239 62.451 31.4861 62.5417 31.4472C64.5578 30.5838 65.7375 28.5404 65.4772 26.3627C65.4299 25.9668 65.3858 25.6144 65.3461 25.2982C65.1883 24.0407 65.1092 23.4096 65.1922 22.9389C65.2752 22.4685 65.5655 21.9024 66.1436 20.7747C66.2891 20.491 66.4511 20.175 66.6311 19.8193C67.6206 17.8619 67.2108 15.5383 65.6117 14.0375C65.321 13.7646 65.0608 13.5232 64.827 13.3063C63.898 12.4443 63.4316 12.0118 63.1927 11.5979C62.9538 11.1841 62.8122 10.5639 62.5305 9.32848C62.4595 9.01754 62.3806 8.67129 62.2896 8.28301C61.7894 6.14754 59.9819 4.63098 57.792 4.50926C57.3939 4.48707 57.0394 4.46957 56.721 4.45363C55.4552 4.39066 54.8199 4.35895 54.3708 4.19551C53.9217 4.03207 53.4147 3.64801 52.4047 2.8827C52.1505 2.6902 51.8675 2.47582 51.5483 2.23676C49.7925 0.922383 47.4331 0.922383 45.6774 2.23676C45.3581 2.47582 45.0752 2.6902 44.821 2.8827C43.8108 3.64801 43.3039 4.03207 42.8549 4.19551C42.4058 4.35895 41.7706 4.39066 40.5047 4.45363C40.1863 4.46957 39.8316 4.48707 39.4336 4.50926C37.2438 4.63113 35.4363 6.1477 34.9361 8.28301C34.8452 8.67129 34.7663 9.01738 34.6952 9.32832C34.4133 10.5639 34.2719 11.1839 34.0328 11.5979C33.7939 12.0116 33.3275 12.4443 32.3986 13.3061C32.1649 13.523 31.9045 13.7646 31.6138 14.0374C30.0145 15.5383 29.6049 17.8618 30.5942 19.8191C30.7736 20.1747 30.9356 20.4907 31.0811 20.7743ZM41.1981 43.9321L39.3591 40.7672C39.0961 40.3147 38.5794 40.0741 38.0631 40.1639L34.4574 40.7939L38.0216 33.1385C38.3166 33.4671 38.6458 33.9764 39.1891 34.8179C39.362 35.0858 39.5547 35.3841 39.773 35.718C40.7003 37.136 42.2342 37.94 43.8522 37.94C43.898 37.94 43.9442 37.9363 43.9902 37.935L41.1981 43.9321ZM59.2302 38.3989C58.7174 38.2939 58.1933 38.5196 57.9174 38.9644L55.9874 42.0746L54.1764 37.87C55.4872 37.65 56.6799 36.8982 57.4516 35.718C57.6699 35.3843 57.8624 35.0861 58.0353 34.8182C58.7228 33.7535 59.0678 33.2191 59.4339 32.9119C59.5767 32.7921 59.7539 32.6811 59.9855 32.5614L62.816 39.1333L59.2302 38.3989ZM33.3241 15.86C33.611 15.5908 33.8677 15.3525 34.0985 15.1386C36.3172 13.0804 36.4589 12.8347 37.1322 9.8841C37.2022 9.57738 37.28 9.23598 37.3699 8.85285C37.6186 7.79098 38.4831 7.06566 39.572 7.00504C39.9649 6.98316 40.3145 6.96582 40.6288 6.95004C43.6516 6.79957 43.918 6.70254 46.3303 4.87488C46.581 4.68488 46.8603 4.47332 47.1753 4.23754C47.6119 3.91066 48.1122 3.74738 48.6127 3.74738C49.113 3.74738 49.6133 3.91066 50.05 4.23754C50.365 4.47316 50.6442 4.68473 50.8949 4.87473C53.3072 6.70238 53.5736 6.79926 56.5964 6.94988C56.9106 6.96551 57.2603 6.98285 57.6531 7.00488C58.7422 7.06551 59.6066 7.79082 59.8553 8.8527C59.945 9.23582 60.023 9.57738 60.093 9.8841C60.7661 12.8346 60.9078 13.0802 63.1267 15.1385C63.3574 15.3524 63.6141 15.5907 63.901 15.8599C64.6963 16.6063 64.8922 17.7175 64.4 18.691C64.2225 19.0421 64.0627 19.3538 63.9192 19.6336C62.5383 22.3268 62.4891 22.606 62.8656 25.6089C62.9047 25.921 62.9483 26.2685 62.995 26.6591C63.1245 27.7421 62.5603 28.7193 61.5577 29.1486C61.1961 29.3035 60.8733 29.4396 60.5833 29.5618C57.7944 30.7371 57.5772 30.9193 55.9353 33.4618C55.7647 33.726 55.5747 34.0202 55.3594 34.3494C54.7625 35.2621 53.7024 35.648 52.658 35.3327C52.2814 35.2188 51.9467 35.1157 51.6463 35.0229C48.7545 34.1307 48.471 34.1305 45.5786 35.0229C45.2781 35.1157 44.9435 35.2188 44.5669 35.3327C43.5231 35.6482 42.4624 35.2622 41.8655 34.3494C41.6502 34.0202 41.46 33.7258 41.2894 33.4616C39.6477 30.9193 39.4305 30.7369 36.6414 29.5618C36.3516 29.4396 36.0289 29.3036 35.6672 29.1486C34.6645 28.7193 34.1003 27.7421 34.2299 26.6589C34.2766 26.2683 34.3202 25.9207 34.3594 25.6086C34.736 22.6057 34.6867 22.3266 33.3056 19.6333C33.1622 19.3535 33.0024 19.0419 32.8249 18.6908C32.3328 17.7177 32.5288 16.6064 33.3241 15.86ZM48.6122 31.0563C54.9322 31.0563 60.0739 25.9146 60.0739 19.5946C60.0739 13.2746 54.9322 8.13301 48.6122 8.13301C42.2922 8.13301 37.1506 13.2747 37.1506 19.5946C37.1506 25.9146 42.2924 31.0563 48.6122 31.0563ZM48.6122 10.6329C53.5536 10.6329 57.5739 14.653 57.5739 19.5944C57.5739 24.5358 53.5538 28.5561 48.6122 28.5561C43.6706 28.5561 39.6506 24.536 39.6506 19.5944C39.6506 14.6529 43.6708 10.6329 48.6122 10.6329ZM45.4302 24.0239L42.2133 20.8069C41.725 20.3188 41.7252 19.5274 42.2133 19.0393C42.7016 18.551 43.4931 18.5511 43.981 19.0393L46.3558 21.4143L53.2874 15.1236C53.7986 14.6596 54.5891 14.698 55.0531 15.2093C55.517 15.7205 55.4788 16.5111 54.9675 16.975L47.1541 24.0658C46.9152 24.2825 46.6144 24.3902 46.3142 24.3902C45.9936 24.39 45.6736 24.2674 45.4302 24.0239Z" fill="#0E2F49"/>
</svg>
