<svg width="80" height="80" viewBox="0 0 80 80" fill="none" xmlns="http://www.w3.org/2000/svg">
<path d="M64.9206 45.5313L70.1295 31.5625C71.4556 28.4763 74.1367 29.0499 74.1367 29.0499C76.2118 29.4296 77.3285 31.1302 77.0919 33.0349L72.3136 52.2433C71.0795 57.1782 67.6391 61.9905 63.6338 65.1005L55.3779 71.0074V74.4906C55.3779 75.3241 54.7023 75.9997 53.8688 75.9997H40.0235V67.2437C40.0235 67.2437 39.1212 57.2718 48.5961 51.5131L59.923 44.2427C60.4966 43.8733 61.147 43.6928 61.7921 43.6928C62.6875 43.6928 63.5743 44.04 64.2435 44.709C65.5695 46.0368 65.5968 48.1817 64.3031 49.5418L56.6752 55.5576" stroke="#0E2F49" stroke-width="2.4145" stroke-miterlimit="10" stroke-linecap="round" stroke-linejoin="round"/>
<path d="M23.3253 55.5576L15.6975 49.5418C14.4037 48.1817 14.4309 46.0368 15.7571 44.709C16.426 44.04 17.3129 43.6928 18.2084 43.6928C18.8535 43.6928 19.5038 43.8733 20.0775 44.2427L31.4044 51.5131C40.8791 57.2718 39.977 67.2437 39.977 67.2437V75.9997H26.1317C25.2982 75.9997 24.6226 75.3241 24.6226 74.4906V71.0074L16.3667 65.1005C12.3612 61.9905 8.92101 57.1782 7.6869 52.2433L2.90831 33.0349C2.67169 31.13 3.7884 29.4295 5.86351 29.0499C5.86351 29.0499 8.5445 28.4763 9.87067 31.5625L15.0796 45.5313" stroke="#0E2F49" stroke-width="2.4145" stroke-miterlimit="10" stroke-linecap="round" stroke-linejoin="round"/>
<path d="M33.1372 43.0591H31.2268C30.3934 43.0591 29.7178 42.3835 29.7178 41.5501V33.4591C29.7178 30.1849 32.3721 27.5308 35.6461 27.5308H44.354C47.6282 27.5308 50.2824 30.185 50.2824 33.4591V41.5501C50.2824 42.3835 49.6068 43.0591 48.7733 43.0591H46.8876" stroke="#0E2F49" stroke-width="2.4145" stroke-miterlimit="10" stroke-linecap="round" stroke-linejoin="round"/>
<path d="M39.9999 27.5309C43.8645 27.5309 46.9973 24.398 46.9973 20.5335C46.9973 16.669 43.8645 13.5361 39.9999 13.5361C36.1354 13.5361 33.0026 16.669 33.0026 20.5335C33.0026 24.398 36.1354 27.5309 39.9999 27.5309Z" stroke="#0E2F49" stroke-width="2.4145" stroke-miterlimit="10" stroke-linecap="round" stroke-linejoin="round"/>
<path d="M47.2038 17.9951H56.2529C59.5271 17.9951 62.1812 20.6494 62.1812 23.9235V31.9147C62.1812 32.8029 61.4611 33.5229 60.573 33.5229H50.2737" stroke="#0E2F49" stroke-width="2.4145" stroke-miterlimit="10" stroke-linecap="round" stroke-linejoin="round"/>
<path d="M51.8994 17.9947C55.7639 17.9947 58.8967 14.8619 58.8967 10.9974C58.8967 7.13283 55.7639 4 51.8994 4C48.0348 4 44.902 7.13283 44.902 10.9974C44.902 14.8619 48.0348 17.9947 51.8994 17.9947Z" stroke="#0E2F49" stroke-width="2.4145" stroke-miterlimit="10" stroke-linecap="round" stroke-linejoin="round"/>
<path d="M29.7264 33.5229H19.4271C18.5388 33.5229 17.8188 32.8029 17.8188 31.9147V23.9235C17.8188 20.6493 20.4731 17.9951 23.7472 17.9951H33.0027" stroke="#0E2F49" stroke-width="2.4145" stroke-miterlimit="10" stroke-linecap="round" stroke-linejoin="round"/>
<path d="M28.1005 17.9947C31.9651 17.9947 35.0979 14.8619 35.0979 10.9974C35.0979 7.13283 31.9651 4 28.1005 4C24.236 4 21.1032 7.13283 21.1032 10.9974C21.1032 14.8619 24.236 17.9947 28.1005 17.9947Z" stroke="#0E2F49" stroke-width="2.4145" stroke-miterlimit="10" stroke-linecap="round" stroke-linejoin="round"/>
<circle cx="39.9999" cy="43.0594" r="1.50906" fill="#0E2F49"/>
</svg>
