<svg width="80" height="80" viewBox="0 0 80 80" fill="none" xmlns="http://www.w3.org/2000/svg">
<g clip-path="url(#clip0_2_1227)">
<path d="M75.4773 57.8973C75.02 57.9016 74.5656 57.9712 74.128 58.104L69.2627 59.7147L70.5573 57.912C71.1699 57.0751 71.4494 56.0402 71.3414 55.0087C71.2334 53.9772 70.7456 53.0227 69.9729 52.3308C69.2003 51.6389 68.1979 51.2592 67.1607 51.2653C66.1236 51.2714 65.1258 51.663 64.3613 52.364L51.0667 65.284L41.5893 61.784C41.5054 61.7542 41.4353 61.6949 41.3921 61.617C41.3489 61.5392 41.3356 61.4483 41.3547 61.3613L41.9253 58.428C41.9366 58.3581 41.9677 58.2929 42.015 58.2402C42.0623 58.1875 42.1237 58.1494 42.192 58.1307L50.696 56.6267C51.7321 56.3795 52.6423 55.7626 53.2559 54.8919C53.8695 54.0212 54.1442 52.9565 54.0285 51.8977C53.9128 50.8388 53.4146 49.8586 52.6275 49.1409C51.8403 48.4233 50.8184 48.0176 49.7533 48L34.1947 48.984C32.6213 49.0718 31.0941 49.5477 29.7493 50.3693L22.6307 54.6187C21.0246 55.5553 19.1923 56.0331 17.3333 56H4C2.93913 56 1.92172 56.4214 1.17157 57.1716C0.421427 57.9217 0 58.9391 0 60L0 69.3333C0 70.3942 0.421427 71.4116 1.17157 72.1618C1.92172 72.9119 2.93913 73.3333 4 73.3333H23.828L48.1947 79.7133C48.9597 79.9032 49.745 79.9995 50.5333 80C52.1152 79.9989 53.6724 79.6074 55.0667 78.86L77.5653 66.5387C78.5606 66.0036 79.3248 65.1216 79.7126 64.0603C80.1005 62.9989 80.0851 61.8321 79.6693 60.7813C79.3363 59.9385 78.7596 59.214 78.013 58.7003C77.2663 58.1866 76.3836 57.9071 75.4773 57.8973ZM66.204 54.2973C66.4785 54.0535 66.8338 53.9203 67.2009 53.9238C67.5681 53.9272 67.9208 54.067 68.1907 54.316C68.4655 54.5718 68.6381 54.9186 68.6766 55.292C68.7151 55.6655 68.6168 56.0402 68.4 56.3467L64.956 61.1387L56.1693 64.0467L66.204 54.2973ZM76.3053 64.2L53.8053 76.516C52.2884 77.3276 50.5238 77.5462 48.8547 77.1293L24.3373 70.7093C24.2271 70.6811 24.1138 70.6667 24 70.6667H4C3.64638 70.6667 3.30724 70.5262 3.05719 70.2761C2.80714 70.0261 2.66667 69.687 2.66667 69.3333V60C2.66667 59.6464 2.80714 59.3072 3.05719 59.0572C3.30724 58.8071 3.64638 58.6667 4 58.6667H17.3333C19.6749 58.7026 21.9813 58.0937 24 56.9067L31.132 52.6493C32.1072 52.0523 33.2156 51.7073 34.3573 51.6453L49.576 50.6667H49.7533C50.1379 50.6725 50.5086 50.8113 50.8024 51.0595C51.0963 51.3076 51.2952 51.6498 51.3653 52.028C51.4553 52.4487 51.3824 52.8879 51.1611 53.2569C50.9399 53.6259 50.5868 53.8972 50.1733 54.016L41.7173 55.5093C41.1235 55.6244 40.5777 55.9144 40.15 56.342C39.7224 56.7697 39.4324 57.3155 39.3173 57.9093L38.7453 60.8493C38.6033 61.5567 38.7182 62.2916 39.0694 62.9219C39.4206 63.5522 39.9851 64.0365 40.6613 64.288L50.6613 67.9787C51.2887 68.2151 51.9769 68.2357 52.6173 68.0373L74.9253 60.656C75.3746 60.507 75.8644 60.5395 76.2901 60.7465C76.7158 60.9535 77.0437 61.3186 77.204 61.764C77.379 62.2088 77.3841 62.7024 77.2183 63.1508C77.0526 63.5991 76.7276 63.9707 76.3053 64.1947V64.2Z" fill="#0E2F49"/>
<path d="M67.1587 37.0668C67.6983 37.3151 68.299 37.3992 68.886 37.3086C69.473 37.218 70.0204 36.9568 70.46 36.5575L78.9614 28.9735C79.2872 28.6849 79.5481 28.3304 79.7268 27.9334C79.9055 27.5365 79.9979 27.1062 79.9979 26.6708C79.9979 26.2355 79.9055 25.8052 79.7268 25.4082C79.5481 25.0113 79.2872 24.6568 78.9614 24.3682L70.456 16.7828C70.0111 16.3901 69.4623 16.1342 68.8755 16.0457C68.2887 15.9573 67.6888 16.0401 67.1479 16.2842C66.607 16.5283 66.1481 16.9234 65.8262 17.422C65.5043 17.9205 65.3332 18.5014 65.3334 19.0948V21.3335H56C55.5522 21.3324 55.1054 21.377 54.6667 21.4668V14.6668H56.9067C57.5015 14.6688 58.0842 14.4985 58.5843 14.1765C59.0845 13.8546 59.4808 13.3948 59.7254 12.8526C59.97 12.3104 60.0524 11.709 59.9628 11.121C59.8731 10.533 59.6151 9.98349 59.22 9.53884L51.6387 1.04151C51.342 0.729214 50.9851 0.480417 50.5894 0.310202C50.1937 0.139986 49.7675 0.0518962 49.3368 0.0512729C48.9061 0.0506495 48.4797 0.137505 48.0835 0.306575C47.6873 0.475645 47.3296 0.723407 47.032 1.03484L39.4467 9.54151C39.0525 9.98623 38.7953 10.5355 38.7061 11.1231C38.6169 11.7106 38.6995 12.3115 38.944 12.8531C39.1885 13.3948 39.5844 13.8543 40.084 14.1761C40.5837 14.4979 41.1657 14.6683 41.76 14.6668H44V21.4668C43.5613 21.377 43.1145 21.3324 42.6667 21.3335H33.3334V19.0935C33.3349 18.4987 33.1644 17.9161 32.8423 17.4161C32.5202 16.916 32.0603 16.5198 31.5181 16.2753C30.9759 16.0307 30.3745 15.9483 29.7864 16.0379C29.1984 16.1275 28.6488 16.3853 28.204 16.7802L19.7054 24.3602C19.3786 24.6485 19.1168 25.0029 18.9373 25.3999C18.7577 25.7969 18.6646 26.2276 18.6639 26.6633C18.6633 27.0991 18.7552 27.53 18.9336 27.9276C19.112 28.3251 19.3728 28.6803 19.6987 28.9695L28.204 36.5548C28.649 36.9492 29.1985 37.2065 29.7864 37.2957C30.3742 37.385 30.9753 37.3024 31.5173 37.058C32.0593 36.8135 32.5191 36.4176 32.8413 35.918C33.1635 35.4183 33.3344 34.8361 33.3334 34.2415V32.0002H40C41.0609 32.0002 42.0783 32.4216 42.8285 33.1718C43.5786 33.9219 44 34.9393 44 36.0002V42.6668C44 43.3741 44.281 44.0524 44.7811 44.5525C45.2812 45.0526 45.9595 45.3335 46.6667 45.3335H52C52.7073 45.3335 53.3856 45.0526 53.8857 44.5525C54.3858 44.0524 54.6667 43.3741 54.6667 42.6668V36.0002C54.6667 34.9393 55.0881 33.9219 55.8383 33.1718C56.5884 32.4216 57.6058 32.0002 58.6667 32.0002H65.3334V34.2402C65.3278 34.8382 65.4978 35.4248 65.8222 35.9272C66.1467 36.4296 66.6113 36.8259 67.1587 37.0668ZM58.6667 29.3335C56.8986 29.3335 55.2029 30.0359 53.9527 31.2861C52.7024 32.5364 52 34.2321 52 36.0002V42.6668H46.6667V36.0002C46.6667 34.2321 45.9643 32.5364 44.7141 31.2861C43.4638 30.0359 41.7682 29.3335 40 29.3335H32C31.6464 29.3335 31.3073 29.474 31.0572 29.724C30.8072 29.9741 30.6667 30.3132 30.6667 30.6668V34.2402C30.6693 34.3232 30.6466 34.405 30.6016 34.4748C30.5565 34.5445 30.4914 34.599 30.4147 34.6308C30.3443 34.6658 30.2648 34.6782 30.1871 34.6665C30.1094 34.6548 30.0371 34.6196 29.98 34.5655L21.4667 26.9748C21.4224 26.9365 21.3869 26.8892 21.3625 26.8359C21.3381 26.7826 21.3255 26.7247 21.3255 26.6662C21.3255 26.6076 21.3381 26.5497 21.3625 26.4965C21.3869 26.4432 21.4224 26.3958 21.4667 26.3575L29.972 18.7708C30.0294 18.7168 30.1019 18.6816 30.1798 18.67C30.2577 18.6583 30.3374 18.6707 30.408 18.7055C30.485 18.7364 30.5505 18.7905 30.5954 18.8602C30.6404 18.93 30.6625 19.012 30.6587 19.0948V22.6668C30.6587 23.0205 30.7992 23.3596 31.0492 23.6097C31.2993 23.8597 31.6384 24.0002 31.992 24.0002H42.6587C43.3615 24.0006 44.0517 24.1874 44.6587 24.5415C44.8614 24.6585 45.0913 24.7201 45.3254 24.7201C45.5594 24.7201 45.7893 24.6585 45.992 24.5415C46.1947 24.4245 46.363 24.2562 46.4801 24.0535C46.5971 23.8508 46.6587 23.6209 46.6587 23.3868V13.3335C46.6587 12.9799 46.5182 12.6407 46.2682 12.3907C46.0181 12.1407 45.679 12.0002 45.3254 12.0002H41.76C41.6772 12.0039 41.5952 11.9818 41.5254 11.9369C41.4557 11.892 41.4016 11.8265 41.3707 11.7495C41.3356 11.6791 41.3231 11.5996 41.3347 11.5219C41.3464 11.4441 41.3818 11.3718 41.436 11.3148L49.028 2.80017C49.2414 2.56017 49.42 2.55351 49.644 2.80017L57.2307 11.3068C57.285 11.3638 57.3203 11.4361 57.332 11.5139C57.3437 11.5916 57.3311 11.6711 57.296 11.7415C57.2665 11.82 57.213 11.8872 57.1431 11.9336C57.0732 11.98 56.9905 12.0033 56.9067 12.0002H53.3334C52.9798 12.0002 52.6406 12.1407 52.3906 12.3907C52.1405 12.6407 52 12.9799 52 13.3335V23.3855C52 23.6196 52.0617 23.8495 52.1787 24.0522C52.2957 24.2549 52.464 24.4232 52.6667 24.5402C52.8694 24.6572 53.0993 24.7188 53.3334 24.7188C53.5674 24.7188 53.7974 24.6572 54 24.5402C54.6072 24.1865 55.2974 24.0002 56 24.0002H66.6667C67.0203 24.0002 67.3595 23.8597 67.6095 23.6097C67.8596 23.3596 68 23.0205 68 22.6668V19.0935C67.9963 19.0106 68.0184 18.9286 68.0633 18.8589C68.1082 18.7891 68.1737 18.7351 68.2507 18.7042C68.3215 18.6697 68.401 18.6575 68.4789 18.6692C68.5567 18.6808 68.6292 18.7158 68.6867 18.7695L77.2001 26.3615C77.2437 26.3998 77.2786 26.447 77.3026 26.4999C77.3265 26.5527 77.3389 26.6101 77.3389 26.6682C77.3389 26.7262 77.3265 26.7836 77.3026 26.8365C77.2786 26.8894 77.2437 26.9366 77.2001 26.9748L68.6947 34.5615C68.6377 34.6156 68.5654 34.6508 68.4877 34.6625C68.4099 34.6742 68.3305 34.6618 68.26 34.6268C68.1827 34.5966 68.1165 34.5435 68.07 34.4747C68.0236 34.4058 67.9992 34.3245 68 34.2415V30.6668C68 30.3132 67.8596 29.9741 67.6095 29.724C67.3595 29.474 67.0203 29.3335 66.6667 29.3335H58.6667Z" fill="#0E2F49"/>
</g>
<defs>
<clipPath id="clip0_2_1227">
<rect width="80" height="80" fill="white"/>
</clipPath>
</defs>
</svg>
